/* XPM */
static char *dfa39fdf414d4279b6feddba437c4f0c0GoqL3DFAvDMnWjs[] = {
/* columns rows colors chars-per-pixel */
"30 54 134 2 ",
"   c None",
".  c #8D0807",
"X  c #8D0907",
"o  c #8E0907",
"O  c #8F0907",
"+  c #8E0908",
"@  c #8F0908",
"#  c #8E0A08",
"$  c #8F0A08",
"%  c #900A07",
"&  c #900A08",
"*  c #910A08",
"=  c #910B08",
"-  c #910B09",
";  c #920B08",
":  c #930B08",
">  c #920B09",
",  c #940B08",
"<  c #930C09",
"1  c #940C08",
"2  c #940C09",
"3  c #950C09",
"4  c #950D09",
"5  c #960D09",
"6  c #970D09",
"7  c #950D0A",
"8  c #960D0A",
"9  c #970D0A",
"0  c #960E0A",
"q  c #970E0A",
"w  c #970E0B",
"e  c #970F0B",
"r  c #960F0C",
"t  c #980D09",
"y  c #980E09",
"u  c #990E09",
"i  c #980D0A",
"p  c #980E0A",
"a  c #990E0A",
"s  c #990F0A",
"d  c #980E0B",
"f  c #990E0B",
"g  c #980F0B",
"h  c #990F0B",
"j  c #9A0E0A",
"k  c #9A0F0A",
"l  c #9B0F0A",
"z  c #9A0F0B",
"x  c #9B0F0B",
"c  c #9C0F0B",
"v  c #980F0C",
"b  c #990F0C",
"n  c #9A100B",
"m  c #9B100B",
"M  c #9C100B",
"N  c #98100C",
"B  c #99100C",
"V  c #98100D",
"C  c #99100D",
"Z  c #9A100C",
"A  c #9B100C",
"S  c #9A100D",
"D  c #9A110D",
"F  c #9B110D",
"G  c #98110E",
"H  c #99110E",
"J  c #99120F",
"K  c #9B120E",
"L  c #9A120F",
"P  c #9A130F",
"I  c #9C100C",
"U  c #9D100C",
"Y  c #9C110C",
"T  c #9D110C",
"R  c #9C110D",
"E  c #9D110D",
"W  c #9E110C",
"Q  c #9E110D",
"!  c #9C120D",
"~  c #9D120D",
"^  c #9E120D",
"/  c #9C120E",
"(  c #9D120E",
")  c #9D130E",
"_  c #9C120F",
"`  c #9C130F",
"'  c #9E120E",
"]  c #9E130E",
"[  c #9F130E",
"{  c #9E130F",
"}  c #9F130F",
"|  c #9F140F",
" . c #991311",
".. c #9A1310",
"X. c #9B1310",
"o. c #9B1410",
"O. c #9B1411",
"+. c #9C1410",
"@. c #9D1410",
"#. c #9C1411",
"$. c #9E1410",
"%. c #9F1410",
"&. c #9E1411",
"*. c #9F1511",
"=. c #9D1512",
"-. c #9D1612",
";. c #9D1613",
":. c #9E1612",
">. c #9F1612",
",. c #9F1712",
"<. c #9E1613",
"1. c #9F1613",
"2. c #9E1713",
"3. c #9F1713",
"4. c #9E1714",
"5. c #9F1714",
"6. c #9F1814",
"7. c #9D1816",
"8. c #A01611",
"9. c #A11712",
"0. c #A01713",
"q. c #A11713",
"w. c #A01714",
"e. c #A01814",
"r. c #A21914",
"t. c #A21915",
"y. c #A01916",
"u. c #A11B18",
"i. c #A21B18",
"p. c #A01C19",
"a. c #A31D1A",
"s. c #A51F1C",
"d. c #A5201D",
"f. c #B22F2D",
/* pixels */
"      I                                           I ^       ",
"      I $.I I I I I I M B M I N I M B I I M c B c B I       ",
"      x x - > > > > - % ; > > > ; > ; > % % % - - x B       ",
"      M N - $ - % % . . ; % . % . % ; ; 8 % - % . B M       ",
"      I N 8 x c x x x x M M t t B M M M c M x % $ x ^       ",
"      I N x M I M M x x M M c l M M M x M I c 1 $ M M       ",
"      I B 8 M M M M M M M M B B B M M M I I M % $ x ^       ",
"      M B x I M M M M M M B 8 8 8 x M M I I M 8 $ 8 ^       ",
"      I N x B M I x 8 x B M M I $.[ N x B M c , $ x I       ",
"      I N 8 c M 0.N x x ^ I B c [ e.e.e.I x c % $ 8 [       ",
"      I N x I I e.B B M M M t x B M ^ | 6.N M 8 $ x I       ",
"      I B x I I 0.B I M M c c t M I ^ | e.N M % $ r I       ",
"      I N x c M $.N I M ^ I t x M I I | y.B M 1 . B I       ",
"      M B 8 M M 2.x M M ^ I x t c M ^ I $.B M 1 % x |       ",
"      [ N x B M 2.8 B M M ^ x x M I ^ | 0.x M > $ x I       ",
"      I I 8 B M 2.x M M ^ c x c M I ^ ^ 0.B M > $ 8 |       ",
"      I N 8 I [ $.x M M M M t l c c I | e.x M , . B [       ",
"      I N x M I 6.B M M M M B l c M ^ | e.B M 1 . B I       ",
"      M I 8 M I 6.8 M I M W l l M c ^ ^ e.B M 1 . x M       ",
"      M B B M I 2.8 M M M M l l c c ^ ^ 0.B M , % B [       ",
"      I B 8 M I e.8 N I M W M c x x M [ 2.B M 8 . B [       ",
"      I b x M M $.x M I M M x t x x M | e.B M 1 . B I       ",
"      I N B I I e.8 M M M M t l x x x I 0.M M ; # B [       ",
"      I I B I I $.8 M M W M t B x t x M $.N M 8 . x I       ",
"      I I 8 M M e.8 M M M M t M l B B [ $.8 x 1 . 0 I       ",
"      I N B M M 2.8 M B M M t x t x M [ 6.x x 1 . 8 M       ",
"      I B 8 M M e.8 M B M M x t c l I [ 6.8 0 ; . 8 B       ",
"      M B 8 M [ $.8 M M M M t x l B N $.$.x x > # 0 M       ",
"      I B 1 B M 6.8 N x x x t t l c c M 2.x [ r . 8 [       ",
"      I B x M M $.x B c x x t x t l M 0.p.6.d.7.. 8 M       ",
"      M x 8 M M 2.8 8 8 1 x 1 c x x t | p.$.d.N # 0 I       ",
"      N 8 x M M $.N [ [ e.P 8 1 x M M I $.P f.p.. 8 I       ",
"      I N 8 B c x x x 1 [ e.y.P 8 1 x M $.N a.P . 8 M       ",
"      M x 8 M c x t x x M M B 0.e.P B 8 N B x ; . 8 I       ",
"      M N 8 M M t x 8 x M M x t x B [ M B x x ; . 0 I       ",
"      M b x M M [ 0 P P x t x M x t B x x x x % . 0 [       ",
"      I N x M M [ B [ e.2.N x x x B c x x M c % # 0 [       ",
"      I B 8 M M 2.t B x [ y.6.N 0 8 x 1 8 x c 8 . 0 I       ",
"      M B 8 M M 0.8 M x M M [ $.e.$.I [ N x c % # B M       ",
"      I B 8 M M e.8 M x c M B B I N I N $.x c , . 0 M       ",
"      I x x ^ M $.8 M l c M l M x t M M $.B c - . 8 I       ",
"      I N B M M 2.8 l t c t c t M M M M $.B M % . x I       ",
"      I N x I | 2.8 B B M l t M c t B M $.B B 1 . 0 M       ",
"      I N 8 M [ e.8 x t c M t M B M M M 2.0 M % . 0 M       ",
"      | I x B I e.1 t x x x t M x t x M $.8 x , # 0 M       ",
"      I M B M [ e.1 B t x t x c x x t M $.x x 1 . B I       ",
"      I I B I M 2.1 x x M c t c x x M B 6.8 c % . 8 B       ",
"      I B B M M e.1 , x 1 1 1 t 8 x 8 B P B B 8 . 8 M       ",
"      I I x x B [ r N B I I M N [ N B N I B M , . 8 B       ",
"      M N B M M x x M B B M c B M M x x M B x , . 8 M       ",
"      M B B M M x x M M M M x x M B c x x x x % . 8 I       ",
"      ^ M B | I x x M M M M x x M M c x c x x , . x I       ",
"      I B B | I M M M I I I M I M M I I M M B 8 $ 8 B       ",
"      I I                                         x B       "
};
