/* XPM */
static char *_26c2bded6da4831d1044cebbfd6fbc11zAS6JL5O99hU7t1[] = {
/* columns rows colors chars-per-pixel */
"60 40 149 2 ",
"   c #271E0F",
".  c #281F0F",
"X  c #271F10",
"o  c #281F10",
"O  c #2C2312",
"+  c #312614",
"@  c #352916",
"#  c #3A2C17",
"$  c #312718",
"%  c #352B1A",
"&  c #3B2E19",
"*  c #3E301B",
"=  c #3C3322",
"-  c #42341D",
";  c #443621",
":  c #463923",
">  c #483A25",
",  c #453C2B",
"<  c #493F2E",
"1  c #473F30",
"2  c #4C402E",
"3  c #4D4433",
"4  c #504634",
"5  c #524837",
"6  c #544B3A",
"7  c #584F3D",
"8  c #5B513F",
"9  c #5C5444",
"0  c #5E5748",
"q  c #605747",
"w  c #615847",
"e  c #645C4C",
"r  c #685F4E",
"t  c #665F50",
"y  c #68604F",
"u  c #676051",
"i  c #6B6354",
"p  c #6E6758",
"a  c #6F6859",
"s  c #706756",
"d  c #706857",
"f  c #736B5C",
"g  c #79715F",
"h  c #756E60",
"j  c #777061",
"k  c #7B7464",
"l  c #7F7867",
"z  c #7E7769",
"x  c #7F7868",
"c  c #847D6C",
"v  c #887F6E",
"b  c #847E72",
"n  c #88806F",
"m  c #878175",
"M  c #8C8473",
"N  c #8F8876",
"B  c #8B857A",
"V  c #8F8A7F",
"C  c #918876",
"Z  c #938C7A",
"A  c #99917E",
"S  c #8F8A80",
"D  c #938D83",
"F  c #979082",
"G  c #9A9383",
"H  c #9C978B",
"J  c #9E988B",
"K  c #9F9A91",
"L  c #A19B8C",
"P  c #A39E94",
"I  c #A6A195",
"U  c #AAA495",
"Y  c #A5A199",
"T  c #AAA59C",
"R  c #ACA89F",
"E  c #B1AB9F",
"W  c #ADA9A2",
"Q  c #B2ADA3",
"!  c #B3AFA8",
"~  c #B5B0A6",
"^  c #B5B2AB",
"/  c #BAB5AA",
"(  c #BEBAAF",
")  c #BDB9B0",
"_  c #BDBAB4",
"`  c #C0BCB1",
"'  c #C2BEB3",
"]  c #C0BDB6",
"[  c #C1BEB9",
"{  c #C4C0B6",
"}  c #C5C2BD",
"|  c #C8C4BB",
" . c #CAC7BF",
".. c #CAC7BF",
"X. c #C9C7C2",
"o. c #CDCAC3",
"O. c #CDCAC4",
"+. c #CFCCC4",
"@. c #CCCAC5",
"#. c #CFCDC9",
"$. c #D1CEC7",
"%. c #D0CDC6",
"&. c #D2CFC9",
"*. c #D1CFCA",
"=. c #D3D1CC",
"-. c #D6D4CE",
";. c #D4D3CE",
":. c #D6D4D1",
">. c #D9D7D3",
",. c #DCD9D4",
"<. c #DAD9D6",
"1. c #DDDCD9",
"2. c #DEDDDA",
"3. c #DEDDDA",
"4. c #E0DEDC",
"5. c #E2E1DF",
"6. c #E2E1DE",
"7. c #E3E2E0",
"8. c #E6E5E3",
"9. c #E7E6E3",
"0. c #E5E5E3",
"q. c #E8E7E5",
"w. c #E8E7E6",
"e. c #E9E8E6",
"r. c #E8E8E7",
"t. c #E9E8E7",
"y. c #E9E8E7",
"u. c #EBEAE9",
"i. c #EBEBEA",
"p. c #ECEBEA",
"a. c #EDECEB",
"s. c #EDEDEC",
"d. c #EEEEED",
"f. c #EFEEED",
"g. c #ECECEB",
"h. c #F0EFEF",
"j. c #F0F0EF",
"k. c #F0F0EF",
"l. c gray94",
"z. c #F1F1F1",
"x. c gray95",
"c. c #F2F2F3",
"v. c #F2F3F3",
"b. c #F3F3F3",
"n. c #F3F3F4",
"m. c #F3F4F4",
"M. c #F4F4F4",
"N. c gray96",
"B. c #F3F3F3",
/* pixels */
"M.z.M.z.z.z.M.z.b.z.M.b.b.z.b.z.M.z.e.-.' Q U U ~ 2.| Q U G Z A G G R 5.v.v.u.d.j.b.b.M.z.m.z.M.z.m.z.M.z.b.z.M.z.b.b.M.",
"M.z.M.M.M.z.M.M.b.b.b.z.M.M.b.M.9.( L Z M N C M f Z Z n n n n Z N n k n R / P I E /  .,.u.b.z.m.z.b.z.b.b.M.z.b.b.b.z.b.",
"z.z.M.z.M.z.z.z.b.z.b.b.9.$.` ( H k k c c c c i 6 f c c v n n n l k a 9 p n n c c n Z Z H =.m.z.z.M.z.M.z.M.z.M.z.b.z.b.",
"z.M.z.M.z.M.z.M.b.b.z.o.L A Z Z v l y e i i 0 3 = 3 9 0 e y i d p i 0 3 i k l c c c c l e P M.m.M.M.M.z.M.z.M.z.b.b.b.b.",
"z.b.z.b.M.M.M.z.j.M.e.F n M n c c k 9 % = = $ O O O O O + O $ % % % = % 2 8 y f j k j a 0 N / { $.e.m.z.M.b.M.z.b.z.b.z.",
"b.b.b.b.M.z.=.Q E E ~ l f j g f d w = O O O X O X O O O O   o o X X O X X + + = 5 w 9 3 a M Z N C R u.n.z.z.M.z.b.b.b.b.",
"b.z.b.b.b.o.N c m c k u : , < > = $ O X O O O O X X O O O O O O O X O X X X X X O $ $ * u k z n n v Q u.b.m.z.M.z.n.z.b.",
"b.b.b.j. .G N c k f r 3 $ X . . O X X O O O O O O O O O @ $ @ @ @ + O X O X X O O X O O = 5 u j c c c T f.M.z.M.b.n.z.b.",
"z.b.M.7.M c c z i 6 = $ . . O O O . O O @ & @ O O + O O $ & & # # # + O O X X + + O . X X O * 4 r d d P 2.u.b.n.z.z.m.z.",
"b.b.m.f.H 6 6 9 6 = X O . O + + @ O O O @ # # @ + O $ O @ & - - - * + O O + X @ # # @ + O X X O = i c B m B W u.m.z.m.m.",
"z.z.&.U B i 6 , = O X O + + @ & @ O O + # & * @ # + @ + # - - - - - @ + + + . @ * * # # # + . . O 3 j C c k a H u.z.z.z.",
"M.5.G C N M k i 3 O o + - @ & & @ @ + @ # - - * & @ # + # > - - - * # # @ + O + - - - # # @ O . X O 4 c N M z u P M.M.M.",
"M.5.Z c m c c f 6 $ X % - - - - # # @ $ & * ; * & & # $ $ ; ; = : - & # # + X + - : - - - # + + O X = h N b j r f u.b.b.",
"b.u.G c c k f d 5 + O # ; ; - ; * @ O @ # ; : * - - # $ # ; - - : * * # # + + + - : - - - # + + O X % f n k h 0 r 9.n.n.",
"b.z.J d g k g i 3 O O & ; > ; ; * @ O O # - ; * - - # O # - ; > 2 * & # # # + + - - - * - # @ @ O o $ i k f r 4 a w.n.n.",
"z.$.D d e 9 7 2 % . O & ; ; > - * @ O O * - - * - - # O $ - ; > : * # # # # + + - - & * - - # @ O O O 9 c d w 8 D u.z.z.",
"6.F M Z M g u 9 * O O - - - - - - @ O O * - - ; - - @ . @ - - : - * @ # # # O O - : - ; - - # # + O % j v v c h e ` N.c.",
"=.M n n n k a u : . @ - 2 - - - - @ O O * ; ; : - # @ . @ - > - - - * * # # @ O ; - - : - - & # + o , c C v c k e ^ N.c.",
"0.J n N N M x e % O # - - - - - - + O O * - - - - # @ O @ - : - - ; * * * # + @ - - - 2 - * * & @ O 4 b F M v k t ^ N.c.",
"N.=.j i i g i , O O # - 2 - - > # @ O + - > > - * & @ . @ - - 2 ; - - - # # + $ > > - - - & * # @ O 4 v M b k j t P N.c.",
"m.<.j 9 3 > = + O O + * > - - - - + . # - - - * - # @ O @ > > - ; ; ; - & # @ $ - 2 > - - - * # # O < c v c h t 9 k p.n.",
"b.s.Y a 0 9 0 3 = $ % * > - - - - + O # - > > > - # @ . @ - - 2 - : : ; & # @ @ - - - - - - * @ - O - g c k e 4 < r 4.n.",
"b.k._ n k j a 0 3 @ * ; - - * * # @ O # - > - - - # + . # - - - ; > - - & # + + - > - - > : - @ # $ $ 9 p t 9 9 9 R c.n.",
"N.@.M n n c a 0 2 % * ; - & & # + . . # - - > - - * + . @ - 2 - - > - # # # O $ - 2 2 - - > - # - @ o = f c c j t t [ n.",
"N...n n c l i 0 2 % * > - - - # @ O O & - - > - > - @ X @ - > - - - # @ & # O O - - - - - > - - # + O & k v v v c e f w.",
"m...M c n c f 0 , % ; ; ; ; - # @ + + & - - ; - - - @ X @ - 2 - - - @ # # @ O + - - - - & > - - # + O % j v v v c f 7 [ ",
"m.X.n c n k a 9 = # ; : ; - - # + O O & - : - : - - @ X & - - - * ; - * @ O . + - - - * @ - - - # + O @ i v M M c p 5 ! ",
"b.k.I M c j a 9 % * : : * - - # + O @ - - : - > - - + O & - 2 - @ ; - # # + . + - > - - & - > - - + O O 9 k c k s e D 3.",
"b.k.Q f a i w 3 @ * - : - - - # @ O + - : : - - - # O O - # - & # - - # # @ . + ; > - > & - - - & @ O O w b Z M k k D ;.",
"k./ m k k j a 9 # - : : - - - # + O + - : : - - * @ O O - # # # - - - # # # . O - ; - ; & - > - - + o O t C Z v j t 4 W ",
",.A c c n k j 9 # - > > - - - # + . + - : : ; ; - * O @ & # - - - - - # # # O + - - - ; - & - - & + o $ i v v c k t 9 @.",
"-.G N n k j a 5 # - - - - 2 - - # . # - : - : : ; - @ + @ # # - - > - & # # O + & - - > - - - & & + o + w c N N v j t &.",
"s.~ k f t 9 , % O # - > ; ; & # + O & - ; - < > - - @ O @ # & - - > - - & # O + & & - - - - - - # $ + o 4 h g f f e c 7.",
"-.L M l a 0 3 + O % - - ; ; & @ O + * - - * ; ; - & @ $ @ @ # # & - - - # @ O + @ & # - - & # # # + + O 4 f j j s r 9 c ",
"U n n c z k e = + & ; ; - - # @ + O * ; - # - ; * @ @ $ $ @ # & @ - - - @ + X O + @ - - - # O # @ O $ O 4 j M C b c i 6 ",
"J n n M M z e = # - ; ; - - @ O O O * ; - # & ; # @ @ @ O O @ O O - - - O O X X O O # # # @ O + + O O X , a v c c k t t ",
"J n N N c p 9 = O ; < ; # @ + $ @ % ; > = # & * @ & % * , , = = @ # * & $ O $ % & + @ % # # + + $ $ ; , = t k c c a 9 D ",
"H c f j f e 6 = 2 r d i e w e i i i i i u 0 0 9 9 9 w u a f a i y e r w w r t i i e 9 6 5 5 5 5 6 0 i p 0 3 9 t i i S 1.",
"<.X.~ W W ^ ! ^ K K P Y W ^ ) ' _ [ [ _ ^ P B b b B m b z b b m m m m c z z m B B b b D P Y T Y K S b B S T T W [ X.;.4.",
"b.N.m.z.n.m.z.m.n.m.z.z.n.m.M.z.s.l.u.2.:.#.<.4.9.g.u.r.u.u.0.3.e.9.>.@.X.X.#.3.u.r.w.f.l.n.b.u.5.<.<.r.d.r.9.n.c.h.l.l."
};
