/* XPM */
static char *_4569ad100924d5fb678bfff43138b5bGOpQ4SE3lZdKAaZW[] = {
/* columns rows colors chars-per-pixel */
"60 40 232 2 ",
"   c #3A1C16",
".  c #2F1F20",
"X  c #332122",
"o  c #4F150D",
"O  c #700A07",
"+  c #572617",
"@  c #46281E",
"#  c #612D15",
"$  c #693317",
"%  c #773818",
"&  c #702C19",
"*  c #442B38",
"=  c #553335",
"-  c #4D2E28",
";  c #783A24",
":  c #6B372E",
">  c #77432D",
",  c #7A4734",
"<  c #684235",
"1  c #0A1B5B",
"2  c #3F2F50",
"3  c #071B66",
"4  c #081F73",
"5  c #071F74",
"6  c #0D216D",
"7  c #132468",
"8  c #08217A",
"9  c #142675",
"0  c #293777",
"q  c #2D3675",
"w  c #781F59",
"e  c #513B54",
"r  c #69286B",
"t  c #20447E",
"y  c #775347",
"u  c #73474E",
"i  c #7F6059",
"p  c #7C787B",
"a  c #6E686B",
"s  c #5A5256",
"d  c #8B0401",
"f  c #910200",
"g  c #950804",
"h  c #861817",
"j  c #981A16",
"k  c #94140E",
"l  c #AC0804",
"z  c #B50201",
"x  c #B90806",
"c  c #BB120F",
"v  c #AC1317",
"b  c #BC1818",
"n  c #952618",
"m  c #A92719",
"M  c #B93016",
"N  c #BC142A",
"B  c #AA2F29",
"V  c #951737",
"C  c #C80402",
"Z  c #DB0200",
"A  c #D40302",
"S  c #DB1119",
"D  c #CD1719",
"F  c #E40301",
"G  c #EC0501",
"H  c #E80E0C",
"J  c #F30501",
"K  c #FC0600",
"L  c #F80A04",
"P  c #F7140C",
"I  c #E21D1E",
"U  c #FD231D",
"Y  c #D03937",
"T  c #F42723",
"R  c #F12D28",
"E  c #C6172B",
"W  c #84401E",
"Q  c #944E2D",
"!  c #934F39",
"~  c #9A563B",
"^  c #8E543E",
"/  c #A85438",
"(  c #BB663E",
")  c #E34732",
"_  c #892342",
"`  c #932768",
"'  c #8D5941",
"]  c #895543",
"[  c #AE5F40",
"{  c #9C634C",
"}  c #AE6648",
"|  c #B56647",
" . c #B56B54",
".. c #BA7556",
"X. c #AF7356",
"o. c #8D6C67",
"O. c #B47466",
"+. c #D74644",
"@. c #D85F5E",
"#. c #E44948",
"$. c #FB4845",
"%. c #F9504B",
"&. c #CB714C",
"*. c #C67955",
"=. c #C3664E",
"-. c #EE6C5D",
";. c #F47371",
":. c #D47876",
">. c #E4C612",
",. c #98817D",
"<. c #B48D73",
"1. c #D4825D",
"2. c #C0BD52",
"3. c #DD8962",
"4. c #DA8C6A",
"5. c #D8946E",
"6. c #CC8C6C",
"7. c #E08E69",
"8. c #E58F67",
"9. c #F2976A",
"0. c #EB966C",
"q. c #E9A17A",
"w. c #FBAA78",
"e. c #0A2485",
"r. c #0A2689",
"t. c #0C2B95",
"y. c #0F309D",
"u. c #163399",
"i. c #152D89",
"p. c #313D8B",
"a. c #0F33A5",
"s. c #1237AC",
"d. c #1438A8",
"f. c #1139B3",
"g. c #133EBC",
"h. c #2D3BAD",
"j. c #344A96",
"k. c #2D43B5",
"l. c #50538C",
"z. c #54648F",
"x. c #7E678C",
"c. c #4556A2",
"v. c #5F70A7",
"b. c #1541C5",
"n. c #1744CC",
"m. c #1945CB",
"M. c #1B48D3",
"N. c #1B49D7",
"B. c #234DDA",
"V. c #2F50C9",
"C. c #3C60DC",
"Z. c #1F4EE2",
"A. c #204FE2",
"S. c #2453E8",
"D. c #2C5CF0",
"F. c #5673D7",
"G. c #617CD9",
"H. c #5B79E3",
"J. c #4C4EC4",
"K. c #817E81",
"L. c #7D86AE",
"P. c #728798",
"I. c #718CE9",
"U. c #868286",
"Y. c #928E91",
"T. c #99969A",
"R. c #B69F97",
"E. c #A59694",
"W. c #9898AC",
"Q. c #8A92B3",
"!. c #A09EA1",
"~. c #A9A5A7",
"^. c #BAACAB",
"/. c #B7B5BA",
"(. c #B4A699",
"). c #CE9590",
"_. c #F28E8E",
"`. c #F68988",
"'. c #EC928F",
"]. c #D4A895",
"[. c #FCAB85",
"{. c #FEB786",
"}. c #EBB298",
"|. c #CAB8B9",
" X c #CDB3AE",
".X c #E5B4AA",
"XX c #F2B7B7",
"oX c #F3ACAC",
"OX c #FCC198",
"+X c #D9C2B7",
"@X c #FCC8A6",
"#X c #FDD4A9",
"$X c #FDD6B1",
"%X c #FDE0BD",
"&X c #9BA3C7",
"*X c #BDBEC7",
"=X c #ADB3CB",
"-X c #859EF1",
";X c #9FB1ED",
":X c #C1BFC2",
">X c #BAC7F3",
",X c #CAC8CB",
"<X c #DACBC5",
"1X c #CFD2DE",
"2X c #DAD7D8",
"3X c #C4C9D9",
"4X c #F4CECE",
"5X c #F3D9CC",
"6X c #E9D9D6",
"7X c #F3DEDC",
"8X c #F3D6D6",
"9X c #E0C7C7",
"0X c #F6E5D5",
"qX c #CED4E9",
"wX c #D9DBE3",
"eX c #CAD1EF",
"rX c #DBE4F5",
"tX c #E4E3E5",
"yX c #ECE4E3",
"uX c #EDEDEE",
"iX c #E7E7EA",
"pX c #F3EDEC",
"aX c #F4E9E4",
"sX c #F7F3EE",
"dX c #EDEFF3",
"fX c #E6ECF8",
"gX c #EEF4FD",
"hX c #EEF1F5",
"jX c #F3F3F3",
"kX c #F4F6FA",
"lX c #F6F9FB",
"zX c #FAFCFD",
/* pixels */
"kXpXkXuXsXuXlXsXjXjXjXjXjXjXjXjXjXjXjXjXjXjXjXjXjXjXjXjXjXjXjXjXpXlXjXlXjXkXdXjXjXjXuXlXuXlXsXlXuXsXdXjXjXjXjXjXjXjXjXjX",
"uXkXjXjXjXkXuXjXuXjXjXjXjXjXjXjXjXjXjXjXjXjXjXjXjXjXjXjXjXjXkXjXpX4X4X7XjXpXjXjXjXjXjXsXjXjXjXuXkXjXjXjXjXjXjXjXjXjXjXjX",
"jXjXjXjXjXjXjXjXjXjXjXjXjXjXjXjXjXjXjXjXjXjXjXjXjXjXjXjXjXsX8X_.%.U T ;.oXdXjXjXuXkXjXjXuXkXjXjXsXjXjXjXjXjXjXjXjXjXjXjX",
"jXjXjXjXjXjXjXjXjXjXjXjXjXjXjXjXjXjXjXjXjXjXjXjXjXjXjXjXpXoX$.P K P _._.`.XXjXjXjXjXjXjXjXjXjXjXjXjXjXjXjXjXjXjXjXjXjXjX",
"jXjXjXjXjXjXjXjXjXjXjXjXjXjXjXjXjXjXjXjXjXjXjXjXjXjXkXpX`.T L G J T '.:.`._.7XjXjXjXjXjXjXjXjXjXjXjXjXjXjXjXjXjXjXjXjXjX",
"jXjXjXsXjXjXjXjXjXjXjXjXjXjXjXjXjXjXjXsXjXjXjXjXjXkXpX_.T F F F G L @.XX6X-.oXhXkXjXjXjXdXjXsXkXjXjXjXjXjXjXjXjXjXjXjXjX",
"uXkXuXlXjXjXjXjXjXjXjXjXjXjXjXjXjXjXuXjXjXjXjXjXjXjXoXR A A Z F H H T ) +.Y +.:..XpXjXjXjXjXjXuXjXjXjXjXjXjXjXjXjXjXjXjX",
"kXsXjXjXjXjXjXjXjXjXjXjXjXjXjXjXjXjXjXjXjXjXjXjXjX4X+.C C C A S I b v m n h j k B 8XjXjXjXjXjXjXjXjXjXjXjXjXjXjXuXjXjXjX",
"uXjXjXjXjXjXjXjXjXjXjXjXdXjXjXjXjXjXjXjXjXjXsXpXoX#.D l l l D M +   + } ( + O d  .yXjXjXsXjXjXjXjXuXjXjXjXjXjXjXjXjXkXjX",
"jXjXkXsXjXdXjXjXjXjXjXjXjXjXjXjXjXjXjXjXjXjXkX8X+.x g f d j ! ~ ^ X.O.5.q.<.X.].yXjXjXjXhXjXjXjXjXjXjXjXjXjXjXjXuXjXjXjX",
"uXjXjXjXjXjXjXjXjXjXjXjXjXjXjXjXjXjXjXjXjXjXjX7XY j g O o > *.8.R.v.+XOX}.~.aXjXkXjXjXjXjXjXjXjXjXjXjXjXjXjXjXjXjXjXjXjX",
"jXjXjXjXjXjXjXjXjXjXjXjXjXjXjXjXjXjXjXjXjXjXjXjX'.-.| + o ; 8.w.(.t &XOX}.].#X0XaXjXjXjXjXjXjXjXjXjXjXjXjXjXjXjXjXjXjXjX",
"jXjXsXjXjXjXjXjXjXjXjXjXjXjXsXjXjXjXjXjXjXjXjXjX@X9.&.! + & 7.{.E.z.^.5.4.[.#X#X%XjXjXjXjXjXjXjXsXjXjXjXjXjXjXjXjXjXjXjX",
"jXjXjXjXjXjXjXjXjXjXjXjXjXjXjXjXjXjXjXjXjXjXjXjX}.w.&.( % ~ [.[.< - y < X.8.w.{.$XuXkXjXjXjXjXjXjXjXjXjXjXjXjXjXjXjXjXjX",
"kXjXkXjXjXjXjXjXjXjXjXjXjXjXjXjXjXjXjXjXsXkXlXsX5X[.8.|  .8.q.3.^ @ X X : } *.5.5XjXuXlXjXjXjXjXjXjXjXjXjXjXjXjXuXkXjXjX",
"uXsXjXjXjXjXjXjXuXjXjXjXjXjXjXjXjXjXjXhXjXaX`.-.%.R ) Y =.:.*.3.3.1., -   @ < (.iXtX2XiXkXjXjXjXjXjXjXjXjXjXjXjXjXsXjXjX",
"jXjXjXjXjXjXjXjXjXjXjXjXjXjXjXjXkXkXzXzXhXiX;.K K K K K P M } *.1.8.8.4.*.1.}.<X~.tX/.:XtXkXjXjXjXjXjXjXjXjXjXjXjXjXjXjX",
"uXjXjXjXjXjXjXjXjXjXjXjXjXjXjXzXzXkXlXzXzXkXpX%.K G G J K J j u { ..3.9.w.OXsX|.a !.U.!.,XjXjXjXjXjXjXjXjXjXjXuXjXjXjXjX",
"jXjXjXjXjXjXjXjXjXjXjXjXjXjXgXgXgXgXkXkXzXzXtX'.D v z A F K J r p._ ] *.}.yX<XT.a U.s K./.tXjXjXjXjXjXjXjXsXjXjXjXjXjXjX",
"jXjXjXjXjXjXjXjXjXjXjXjXjXjXwX*XqXrXfXkXkXjXtX2X6X Xh f z F K N B.r h N T B h a T.Y.a a Y./.iXjXjXjXjXjXjXjXjXjXjXjXjXjX",
"jXjXjXjXjXjXjXjXjXjXjXjXjXjXwXT.W./.2XiXtXtXuXuXjXeX_ C Z F K S k.J.E V F z f : !.Y.K.p T.,XjXjXjXjXjXjXjXjXjXjXjXjXjXjX",
"jXjXjXjXjXjXjXjXjXjXjXjXjXjXsX/.U.K./.,X~./.uXjXjX;Xh.w N S S ` c.2.x.l.M z f O o.~.~.2XuXlXjXjXjXjXjXjXjXjXjXjXjXjXjXjX",
"jXjXjXjXdXsXjXjXjXjXjXjXjXjXjXjX~.p W.:X!./.jXjXjXI.g.f.h.h.h.A.a >.P.V.<.O.).+XyXuXjXjXjXjXjXjXjXjXjXjXjXjXjXjXjXjXjXjX",
"jXjXjXjXjXjXjXjXjXjXjXjXjXjXjXjXdX2X^.,.p /.kXjXeXC.f.f.g.b.n.N.f.l.V.C.3XzXjXkXdXsXdXsXsXkXjXjXjXjXjXjXjXjXjXjXjXjXjXjX",
"jXjXjXjXjXjXjXjXjXjXjXjXjXjXjXjXjXiX,.= * p.;XdX;Xm.s.f.f.g.b.n.m.n.M.F.rXhXjXjXjXjXjXjXjXjXjXjXjXuXjXjXjXjXjXjXjXjXjXjX",
"jXjXjXjXjXjXjXjXjXjXjXjXjXjXjXsXkX).> = 9 e.u.F.H.s.t.a.f.f.g.b.n.n.b.G.dXkXuXkXjXjXuXjXjXjXjXjXjXjXjXjXjXjXjXjXjXjXjXjX",
"jXjXjXjXjXjXjXjXjXjXjXjXjXjXjXsX+X{ ; 0 5 e.r.t.V.y.t.a.f.g.n.M.Z.Z.B.I.dXjXjXjXjXjXjXjXjXjXjXjXkXjXjXjXjXjXjXjXjXjXjXjX",
"jXjXjXjXjXjXjXjXjXjXjXjXjXjXjX X~ % e t.5 5 e.e.t.i.e.u.f.g.n.M.N.S.S.D.-XdXjXjXjXjXjXjXjXjXjXjXjXjXjXjXjXjXjXjXjXjXjXjX",
"jXjXjXjXjXjXjXjXjXjXjXjXjXjX<X' % % e 6 4 4 4 4 6 9 6 8 t.a.f.g.n.M.Z.S.D.>XjXkXjXsXjXjXjXjXjXjXjXkXjXjXjXsXjXjXjXjXjXjX",
"uXjXjXjXjXjXjXjXjXjXjXjXjXjX X% % % X 6 7 4 3 3 3 1 1 7 6 4 e.u.d.b.M.A.S.I.qX|.<.3..XuXsXsXjXjXjXuXjXjXjXuXjXjXjXjXjXjX",
"kXjXjXjXjXjXjXjXjXjXjXjXjXjXtXy # # o./.*XQ.z.t 0 0 l.L.W.z.0 4 e.d.n.N.A.Z.c.] ~ ( ( ].uXlXjXjXjXjXjXjXjXjXjXjXjXjXjXjX",
"jXjXjXsXdXjXjXjXjXjXjXjXjXjXjX2X^. XtXhXsXsXuX2X1X1XuXkXzXuX1XL.i.y.g.M.N.M.e , Q X.} ..uXjXjXjXjXjXjXjXjXjXjXjXjXuXjXjX",
"jXjXjXjXjXjXjXuXjXjXjXuXkXjXjXjXjXjXjXjXjXjXjXjXjXlXsXjXjXjXjXiXc.t.s.b.m.k.: % W Q Q 6.aXjXsXjXjXjXjXjXjXjXjXjXjXjXjXjX",
"jXjXjXsXjXjXjXjXjXsXjXjXjXjXjXjXjXjXjXjXjXjXjXjXjXjXjXjXjXjXjXjX&Xi.t.s.k.t $ $ % % ..5XjXuXjXjXjXjXjXjXjXjXjXjXjXjXjXjX",
"jXjXjXjXjXjXjXjXjXjXjXjXjXjXjXjXjXjXjXjXjXjXjXjXjXjXjXjXjXjXjXjXiXv.e.y.u.= $ $ % X.5XkXjXjXjXjXjXjXjXjXjXjXjXjXjXjXjXjX",
"jXjXjXjXjXjXjXjXjXjXjXjXjXjXjXjXjXjXjXjXjXjXjXjXjXjXjXjXjXjXjXjXjXeXj.9 * $ # , <.uXjXjXjXjXjXjXjXjXjXjXjXjXjXjXjXjXjXjX",
"uXjXjXjXjXjXjXjXjXjXjXjXjXjXjXjXjXjXjXjXjXjXjXjXjXjXjXjXjXjXjXjXjXhXW.@ + + ' +XjXjXjXjXjXjXjXjXjXjXjXjXjXjXjXjXjXjXjXjX",
"kXjXjXjXjXjXjXjXjXjXjXjXjXjXjXjXjXjXjXjXjXjXjXjXjXjXjXjXjXjXjXjXdXkXyXE., o.<XjXjXjXjXjXjXjXjXjXjXjXuXjXjXjXjXjXjXjXjXkX",
"jXjXjXjXjXjXjXjXjXjXjXjXjXjXjXjXjXjXjXjXjXjXjXjXjXjXjXjXjXjXjXjXjXjXjXjXuXyXlXjXjXjXjXjXjXjXjXjXkXjXjXjXjXjXjXjXjXjXjXsX",
"jXjXjXjXjXjXjXjXjXjXjXjXjXjXjXjXjXjXjXjXjXjXjXjXjXjXjXjXjXjXjXjXjXjXjXjXjXlXsXjXjXjXjXjXjXjXjXjXuXsXjXjXjXjXjXjXuXjXjXjX"
};
