/* XPM */
static char *_55e8a1fb2a14000f4fe7cf69de5898c7aPx7XGbBjKlf3vK[] = {
/* columns rows colors chars-per-pixel */
"60 40 171 2 ",
"   c #272303",
".  c #2D2404",
"X  c #342605",
"o  c #392706",
"O  c #342807",
"+  c #3A2907",
"@  c #372A08",
"#  c #3D2B09",
"$  c #442D0A",
"%  c #482C0A",
"&  c #532F0C",
"*  c #46310C",
"=  c #4B320D",
"-  c #56320E",
";  c #5A320E",
":  c #4E3911",
">  c #5B3610",
",  c #523B12",
"<  c #5A3C13",
"1  c #653611",
"2  c #683711",
"3  c #643912",
"4  c #6A3B13",
"5  c #743C15",
"6  c #793D16",
"7  c #5F4116",
"8  c #644217",
"9  c #694317",
"0  c #644719",
"q  c #6A471A",
"w  c #65481A",
"e  c #6C4A1B",
"r  c #7B4017",
"t  c #71471A",
"y  c #7E4218",
"u  c #714C1D",
"i  c #775421",
"p  c #7A5421",
"a  c #844419",
"s  c #8B451B",
"d  c #854A1D",
"f  c #894B1E",
"g  c #93471C",
"h  c #9B471C",
"j  c #95481D",
"k  c #9B4B1E",
"l  c #A3471D",
"z  c #A34B1F",
"x  c #AF4A1F",
"c  c #865221",
"v  c #8A5422",
"b  c #815924",
"n  c #8C5B26",
"m  c #8E5F28",
"M  c #955725",
"N  c #9D5423",
"B  c #A44E20",
"V  c #AB4E21",
"C  c #B24E22",
"Z  c #A55324",
"A  c #AA5022",
"S  c #A45B28",
"D  c #A95E29",
"F  c #B45324",
"G  c #BB5425",
"H  c #B25827",
"J  c #BA5827",
"K  c #BD5C29",
"L  c #8F622A",
"P  c #92652B",
"I  c #99662C",
"U  c #9E692E",
"Y  c #AE672E",
"T  c #BF622D",
"R  c #A56D31",
"E  c #AC6C31",
"W  c #B46A30",
"Q  c #BC6E33",
"!  c #AC7535",
"~  c #AD7836",
"^  c #B27335",
"/  c #B97536",
"(  c #BC7D3A",
")  c #C15727",
"_  c #C15827",
"`  c #C35928",
"'  c #C95B2A",
"]  c #C5662F",
"[  c #C4652F",
"{  c #CB622D",
"}  c #CF632E",
"|  c #CA642E",
" . c #C56730",
".. c #CC6730",
"X. c #C66830",
"o. c #C76931",
"O. c #C76930",
"+. c #C66B32",
"@. c #C86830",
"#. c #C96A31",
"$. c #CF6B32",
"%. c #C96C32",
"&. c #CB6E33",
"*. c #CD6C32",
"=. c #CF6C33",
"-. c #CB6D33",
";. c #D76C33",
":. c #CD7135",
">. c #C17E3B",
",. c #CF7839",
"<. c #D37236",
"1. c #D27738",
"2. c #D17F3C",
"3. c #D57F3C",
"4. c #D67F3D",
"5. c #D67A3A",
"6. c #DA7B3B",
"7. c #E07C3C",
"8. c #BF813D",
"9. c #C6833E",
"0. c #C1823D",
"q. c #CA863F",
"w. c #D6803D",
"e. c #D9803D",
"r. c #D8813E",
"t. c #DC803E",
"y. c #DD823F",
"u. c #E2823F",
"i. c #CC8640",
"p. c #CF8941",
"a. c #DC8742",
"s. c #D38D44",
"d. c #DE8A43",
"f. c #D69247",
"g. c #DC9348",
"h. c #E28540",
"j. c #E08440",
"k. c #E18540",
"l. c #E38C44",
"z. c #E88D45",
"x. c #E98D45",
"c. c #E88E45",
"v. c #E98E45",
"b. c #E98E46",
"n. c #EA8E46",
"m. c #E49147",
"M. c #EB9047",
"N. c #E99047",
"B. c #E39549",
"V. c #EB9248",
"C. c #EE954A",
"Z. c #E5994B",
"A. c #EB9A4C",
"S. c #ED9B4C",
"D. c #ED9C4D",
"F. c #EF9C4D",
"G. c #EC9C4D",
"H. c #F0964A",
"J. c #F49D4E",
"K. c #F39D4E",
"L. c #EFA04F",
"P. c #F5A04F",
"I. c #F5A251",
"U. c #FDA753",
"Y. c #FEA754",
"T. c #FBA552",
"R. c #FBAA55",
"E. c #FAA955",
"W. c #FFA955",
"Q. c #FFAB56",
"!. c #FEAA55",
/* pixels */
"A.&.@.@.@.@.o.o.@.@. .$.N & E E.w.] @.@.o.o.o. . .o.@. .4 4 Z.D.@.o.o. .@.o. .@. .o.=.N & E Q.4.] @.X.o.o.] @.@.] @.T 4 ",
"e.G C F G F F G F F F ) a   v b.@.C G G G F F G G F G C $ * 2.a.G F F G F G G F G C G y   n b.] C G G F G F F G G G x * ",
"A F F F A F C F F F F G a X 5 F A F F A F F F F F C F V % % B C F F H F F F F F F F G a X 6 F C F F F F A C F F F F A = ",
"$ + # $ * % $ # # # + # o X + # # # $ $ $ % # # # # # # X X # $ + + $ $ $ $ # # # # # o X X $ + # $ # $ = $ # # + # # X ",
"! ~ R s 6 O < ! ! ! ! ! ~ ~ ! ! ~ ~ M a - O n ~ ! ! ! ! ~ ~ ! ! ~ R s 5 @ < R ! ! ! ~ ! ^ ~ ~ ~ ! M a : @ m ! ! ! ! ! ! ",
"b.M.a.' A O e T.J.b.c.b.b.c.c.c.b.n.;.) 2 X 9.Q.V.c.N.b.b.b.x.x.M.y.' B X u Q.K.z.x.b.b.c.b.b.b.b.;.) 3 X i.T.N.v.v.v.c.",
"C C C G k O 0 D.w.V C C C C F C C C F G 3 O ( D.K V C C C C C C F C G k O e G.w.V C C C C C F C C C F 3 O ( D.K C C C C ",
") ` ) ' V # 3 { ' _ ` ) ) ) _ _ ` ) ) ' 4 @ N } ` ) ` ) ` ) ) ) _ G ' Z # 3 { ' ) ) ` ) G _ ) ) ) ` ' 3 O A } ' _ _ _ J ",
"1 1 1 2 ; @ # 1 1 1 2 2 2 5 4 1 1 1 1 3 $ X - 1 1 1 2 4 4 4 3 3 3 1 1 ; X $ 1 1 1 2 4 4 4 4 1 1 1 1 2 % X - 1 1 1 2 4 4 ",
"0 w w w w e e 0 0 w 7 ; = X : w w w w 0 q e w 0 w 0 < - # # 0 w 0 0 w w e q w 0 w < > % O : q w w 0 0 e e w w w 0 > - # ",
"I.K.K.K.P.F.K.J.K.I.y.` s . I U.K.K.P.K.F.K.P.P.K.K.] F = : B.P.K.K.I.K.K.K.I.K.I.a.` a . U T.P.K.K.K.F.K.K.J.J.K.| A - ",
"Z.[ K K K K K K K K K G a . P R.,.K K K T K ` K K K G A % = B.A.T K K ` K K K K K J J a . I T.1.J T K K T K K K K J A * ",
"<.G G G G G G G G G G ' s . c 7.[ G G G G G G G G G _ F = * :.<.J G G G G G G J G G ` a . v 7.[ G G G G G G G G G _ F = ",
"j k k k k k k k k k k k 5 O 2 h h k k h k k k k k k k j $ $ s k k j k k k k k j k k B 5 O 4 h h k k k k k k k k h k g * ",
"# # # # # # # # # # # # # # # # # # + # # # # # # # # # # # # # # # # # # # # # # # o # # # # # # # # # # # # # # # # # ",
"B B B V g @ 7 s.s.s.s.s.f.f./ l Z B z A ; @ ! s.s.s.s.s.f.s.A z B B V g X q s.s.s.s.s.s.f.Q B B B B Z ; @ ! s.s.f.s.f.p.",
"G G G ` B o e T.V.5.6.6.5.6.@.G G G G _ 2 @ 0.Q.y.5.6.6.6.1._ G J G ) B O u T.V.5.5.5.5.6...G G G G ) 3 O i.T.t.5.6.6.6.",
"G G F G B O 8 V.5.C C C C C F G F G F G 3 X ^ b.K x F C C C F G G F G k O q N.1.C C C C C F G G G G J 1 O / N.K C C C C ",
"G J G J B # > J G J J J G G G J G G K ) 2 @ k ) G G J G J G G G J G J B # 3 G G ) J J J J J J J G J J 2 @ k ) J G G G J ",
"% % % % $ . o % % % % % % = % % % % % % o . $ % % $ % % = = % % % % % $ X X % % % % % % % % % % % % % o . $ % % % % % * ",
"m P P P P I P P P P P P v 5 c L L P P P P I P P P P P L y r L L P P P P I P P P P P P c 6 c P L L P P P I P P P P P P y ",
"T.H.H.C.H.H.H.H.V.H.H.J.5.l 1.Q.J.C.H.H.H.A.H.H.C.C.H.M.H H K.T.H.C.C.H.H.C.C.H.H.V.J.1.B 5.W.F.C.H.H.C.H.H.H.H.C.H.N.H ",
"m.J C F C F F F F F C G a . P I.:.F F F F F F F F F F F * * g.m.F F F F F F F F C C G y   I I.+.C F F F F C F F F F V % ",
"@.` ) ) ) ) J ) ) ) ) ' s . d ;.` _ G _ ) ) ) ) ) _ ` G = * [ } ) ) ) ) ) ) ) ) ` ) ' s X d ;.' ) ) ) ) J ) ) ) ) ' F = ",
"6 6 6 6 6 y y 6 6 5 6 6 > X - 6 5 6 r 6 r y 6 6 6 5 6 5 # # 4 6 5 6 6 y a 6 5 6 6 6 6 > X ; 6 5 6 6 6 y y 6 5 6 6 6 5 # ",
", : , % % @ # , , , , , , < , , , , = % # O : , , , , , < < , , , : % $ @ # , , , , , , < , , , , = = # @ : , , : , , < ",
"D.F.m.J k # e F.A.F.D.D.D.F.G.D.F.L.:.G 3 @ ( K.A.F.G.G.G.A.D.D.K.m.J z @ u D.A.D.D.D.D.A.D.A.A.D.:.F 3 @ ( K.A.A.A.F.F.",
" . .[ G B @ w I.l.[  . . . . . .] o.K G 3 O 0.T.:.[ ] ] ] ] ] ]  .[ J k O e T.m.[ [ [  . . . . .o.K G 1 O i.I.:.[  . . .",
"G F G J B @ 3 a.&.F G F C G C G G G G ) 3 X Y u.K F G G G G F G G F ) B @ 4 a.&.C G G F G G F G G G G 3 O W j.K F G F F ",
"V V V V g # > B B A V V V A V V B A V V 3 # a V V A B A B V B V A B V j # ; V B V V V V B V V V B A V 3 @ s V V A V V V ",
"# # # # o O O # @ # # # $ $ # # @ # # # @ X # # # o # # # $ # # @ @ # o O X # @ # # # # $ # # # # o # X X # # o # # # % ",
"( ( 8.8.8.( i.( 8.i.E j 5 . p 0.( 8.8.( 8.8.8.8.0.( N g $ * ^ ( ( i.( 8.0.0.8.( i.E k 4 X p 0.( 8.8.8.8.0.8.8.8.( N s * ",
"I.l.j.j.j.h.j.j.h.h.<.` s . I W.N.u.k.k.k.k.k.k.k.j.' F = = A.T.k.u.k.k.k.k.k.k.l.<.` s . R Y.b.k.k.k.k.k.k.k.k.a.' F = ",
"d.F C C C C C C C C C G a . m F.o.C C C C C C C C C F F * = s.l.F C C C C C C C C C G a . m F. .V C C C C C C C C F V = ",
") ) J ) J J ) K ) ) J ' s O a ' ) K J ) J G ) ) ) G ) J = * J ` ) ) ) G G ) ) K ) G ' a O a { K ) ) ) K G ) ) ) ) ) F = ",
"> > > > > 3 3 - > - ; ; % . % > > > > > 3 3 > - ; - - - X O - > > > > > 1 > - - - ; ; % . % > ; > > > > 1 > ; - - ; - o ",
"3 3 3 1 > O * p i p p p p b t 3 3 3 3 1 % O w p i p p p p p 3 3 3 3 3 > O * i i p p p p b t 1 3 1 3 3 $ X w p p p i p p ",
") J ) ' V O e I.P.J.F.F.F.P.6.G ) ) G ' 2 O 9.Y.J.J.J.F.J.H.' G ) G ' B X u T.I.F.J.J.J.J.6.G K ) ) ' 1 @ i.Y.F.J.J.J.F.",
"G F F G k o q I.a.G J J J J G F F F G J 3 O ( P. .F J J K G G G G F G k X e I.a.G J ) G K G F F F F G > O i.J. .G J J J ",
"G F G J B O < ;. .F G F G F F G G G F J 1 O S <.J F F G F F G F J F G B @ 4 :. .F F F F F F G F F G J 3 O S <.J F F G F "
};
