/* XPM */
static char *_a88dc0a83fc43169c1243bccae3ec84Vvco2nLzfsBXxx3Q[] = {
/* columns rows colors chars-per-pixel */
"60 40 207 2 ",
"   c None",
".  c #CF881D",
"X  c #D2871F",
"o  c #D68A1F",
"O  c #D98C1F",
"+  c #D7901E",
"@  c #DC931F",
"#  c #DE991F",
"$  c #E1991F",
"%  c #CF8E2D",
"&  c #D58B20",
"*  c #D98D20",
"=  c #DC9321",
"-  c #DC9922",
";  c #D4942C",
":  c #DA942A",
">  c #D79A2D",
",  c #D39425",
"<  c #CC8D31",
"1  c #CD933B",
"2  c #CF993E",
"3  c #D59634",
"4  c #DC9C32",
"5  c #D59A3B",
"6  c #DF9F39",
"7  c #E09723",
"8  c #E29B23",
"9  c #DEA42B",
"0  c #DEA332",
"q  c #DBA43E",
"w  c #DEAA3C",
"e  c #E6A124",
"r  c #E9A425",
"t  c #ECAA25",
"y  c #E3A329",
"u  c #EAA728",
"i  c #E4AA2B",
"p  c #EDAC29",
"a  c #F0AE24",
"s  c #F0AE2B",
"d  c #EDB12B",
"f  c #F3B326",
"g  c #F3B42B",
"h  c #F6BB2D",
"j  c #F8BD2D",
"k  c #E2A234",
"l  c #E3AD33",
"z  c #EEAF34",
"x  c #E1A43A",
"c  c #E3B234",
"v  c #ECB934",
"b  c #E7B23C",
"n  c #E5BC3C",
"m  c #EABB3B",
"M  c #EBB535",
"N  c #F5BC31",
"B  c #F9BF30",
"V  c #FBC02E",
"C  c #FBC433",
"Z  c #FDC937",
"A  c #F3C23C",
"S  c #FDCB3A",
"D  c #FBC73B",
"F  c #FED13E",
"G  c #CD9C45",
"H  c #C69748",
"J  c #CB9F4B",
"K  c #D09A43",
"L  c #CFA046",
"P  c #CDA24C",
"I  c #D4A245",
"U  c #D6A947",
"Y  c #D7AF4D",
"T  c #DCAB4B",
"R  c #D9A847",
"E  c #DCB54E",
"W  c #CFAC54",
"Q  c #D3AC51",
"!  c #DDB451",
"~  c #DFB35B",
"^  c #DDBD5B",
"/  c #E4AC44",
"(  c #E5BC44",
")  c #EDBD43",
"_  c #E5BB4B",
"`  c #E9BC4A",
"'  c #E5B54A",
"]  c #E6BF54",
"[  c #EEBD50",
"{  c #E1BB6B",
"}  c #E0BB64",
"|  c #DEC55A",
" . c #DCC052",
".. c #E5C246",
"X. c #ECC343",
"o. c #E5C34B",
"O. c #ECC24A",
"+. c #E7CA4D",
"@. c #ECCB4B",
"#. c #FDCC42",
"$. c #F5CB4F",
"%. c #F5C64C",
"&. c #ECD14E",
"*. c #FED443",
"=. c #FED846",
"-. c #F4D54B",
";. c #FED44B",
":. c #FEDB4B",
">. c #F7D345",
",. c #E6C253",
"<. c #ECC356",
"1. c #E3CC54",
"2. c #E0CB5F",
"3. c #E8C85F",
"4. c #E6C45A",
"5. c #F5CC53",
"6. c #F9CF57",
"7. c #F1CB5C",
"8. c #EED551",
"9. c #FDD455",
"0. c #FDDB52",
"q. c #F4D15D",
"w. c #FDD75D",
"e. c #FDDC5C",
"r. c #F6DC51",
"t. c #FEE051",
"y. c #DECB63",
"u. c #DFC672",
"i. c #E3C363",
"p. c #E5CD6B",
"a. c #EFCE6B",
"s. c #E5C767",
"d. c #F1CC60",
"f. c #EDD064",
"g. c #F5D465",
"h. c #F9D464",
"j. c #FEDC61",
"k. c #F8D66A",
"l. c #F6D96D",
"z. c #FCDB6B",
"x. c #F4D36B",
"c. c #E4C375",
"v. c #E2C873",
"b. c #E4C57D",
"n. c #ECCC7A",
"m. c #E6D67B",
"M. c #EFD57E",
"N. c #E7D87F",
"B. c #EFD474",
"V. c #F4D973",
"C. c #FEDD73",
"Z. c #F1D67F",
"A. c #F2DB7B",
"S. c #FADC7B",
"D. c #F2D377",
"F. c #FEE164",
"G. c #FDE46B",
"H. c #FEE671",
"J. c #FDE877",
"K. c #FDE27D",
"L. c #FEE97B",
"P. c #E6C782",
"I. c #E9CD8C",
"U. c #E6C984",
"Y. c #E6D882",
"T. c #E9D48C",
"R. c #ECD182",
"E. c #F2DB81",
"W. c #F0D98B",
"Q. c #E7D192",
"!. c #EBD697",
"~. c #EED895",
"^. c #F2DD93",
"/. c #F2DD9E",
"(. c #EEE08A",
"). c #FDE483",
"_. c #FEEC82",
"`. c #F4E38B",
"'. c #FDE48C",
"]. c #FDEE8C",
"[. c #FBE98F",
"{. c #F6E182",
"}. c #EFE391",
"|. c #F6E695",
" X c #FCE594",
".X c #F7E891",
"XX c #FAEB94",
"oX c #FAE59B",
"OX c #F4E99A",
"+X c #F8E899",
"@X c #FEE89E",
"#X c #FDF194",
"$X c #FDF29C",
"%X c #EDDCA4",
"&X c #EFE1AA",
"*X c #F4E2A4",
"=X c #FEEAA3",
"-X c #F2E4AB",
";X c #FDECAB",
":X c #F9E6A5",
">X c #F2E7B0",
",X c #FDEEB4",
"<X c #FEF1BC",
"1X c #FDF3C4",
"2X c #FDF6CA",
"3X c #FDF9CD",
"4X c #FDFAD0",
/* pixels */
"                                                                                                                        ",
"                                                                                                                        ",
"                                                XX+XOX`.`.A.A.A.l.l.z.g.                                                ",
"                                          +XOX(.Y.p.2.1.1.+.+.+.........@.5.q.                                          ",
"                                      OXOXY.y.1.8.r.t.:.:.:.:.=.*.F D A v c b 5.x.                                      ",
"                                  |.OXm.| &.r.t.:.:.:.=.=.*.F F S S S S Z C h l ] E.W.                                  ",
"                                +XW.| @.:.t.:.=.=.*.F F S S Z Z Z C C C B V C B d ' !.*X                                ",
"                              .Xm...>.=.=.F F F S S Z S S D D Z C C h h N h g g g s R Q.-X                              ",
"                            [.f.A F *.F F S Z Z S 9.z.).)._.J.l.q.$.D N g g s s p p u 0 b.^.                            ",
"                          {.s.n D S Z C C C D k..X$X$X]._.J.G.F.e.:.>.D N t p t r r r 8 > i.B.                          ",
"                        A.f.c C Z C C C C 6.[.$X#X_.L.H.F.e.0.>.#.S S Z D N u 8 8 8 8 7 7 , O.3.                        ",
"                        g.w B C V V B B h.XX]._.J.G.t.e.;.*.S S Z C C C B h g r 8 8 - = = * , )                         ",
"                      g.( d C B N N g g.].L.H.F.e.0.>.#.S Z Z C C V h h h d g p 8 : * * @ O o y `                       ",
"                      5.9 g g g d g %.).H.t.e.;.*.S S S S Z V h h h g d p p t u 8 7 * * O O * X l                       ",
"                    q.n y g s s t z V.e.0.;.#.S S C Z V V h h g d d p p t r r 8 8 = * * O O O O : T                     ",
"                    6.9 i p t u r [ w.*.S S Z Z C C h h h h d d t t t r e 8 8 8 7 = & * O O @ O X q                     ",
"                    7.> u u r 8 y d.#.Z Z Z V N h h d g d f t t r r 8 8 8 8 - = O = o + $ $ $ $ . 3                     ",
"                    a.> 8 8 8 7 k 5.C C V h h h g d f p p r e e 8 8 8 7 - = = = * * & = $ $ $ $ & ;                     ",
"                    R.; 7 7 - @ k %.B B h h g d f p t t r 8 8 8 8 - = = O O * * * * & * $ r r t 8 >                     ",
"                    !.% 7 * = O 6 %.g g d f p t i e e 8 8 7 - - = * = * * * * * * = & - a a a a e 0                     ",
"                    %X< O + O O 4 ) s s t t r r 8 8 8 - 7 - = * * * * * * O * = - 7 - e f f h j t c                     ",
"                    %X1 O O O O : ' t a r e 8 8 8 7 = = = * * * * * * * * = 7 8 r u y p h j j j d A                     ",
"                    ^.K o O O O * / u 8 8 8 7 7 - = * = * * * * * * * 7 8 8 r a s g y N V C C S v O.                    ",
"                    M.T o @ @ @ = 6 k 7 - 7 = * * * * * * * * * 7 7 8 r u g g h B B l C Z D S #.m _                     ",
"                    p.` & # $ $ 8 8 x - = = * * * * * * * = 7 8 8 r p g g B C Z S l X.#.;.;.9.5.b Y                     ",
"                      O.: $ e $ r r l 4 * * * * * * * 7 7 8 8 u s g h B C C Z F m ` 9.w.h.z.C.' w                       ",
"                      ,.i # t r a a a p : * * * = 7 7 8 u s g N j C C S S *.*.X.E z.z.C.S.).D.k J                       ",
"                        m - t f a f f h d : = 8 8 r u s s N B B Z S F *.=.=.+.^ S.).'. X XoX! 5                         ",
"                          0 - g j j j V B N y 8 t g g B B C S S *.*.=.:.-.E v.[. X@X=X=X;X{ 3                           ",
"                          U : y j V V Z Z S #.m b M N C S S *.=.=.-.@.| u.^.=X;X;X,X<X<XI.5 H                           ",
"                            G : i D *.#.;.6.9.j.h.7.<.] ,.o.,.4.y.u.T.:X,X,X,X<X<X1X1XI.5 J                             ",
"                              G > l 5.e.j.z.C.C.S.).'. X|.oXoX:X;X,X,X<X<X<X1X2X3X1Xb.I J                               ",
"                                P w b d.S.'.'.[. X@X=X=X;X,X,X<X<X1X1X2X3X3X3X4X&X} U                                   ",
"                                    ' ) <.M.:X;X,X,X,X<X<X1X2X2X2X3X3X3X4X3X&Xv.! W                                     ",
"                                        _ ) <.n.%X>X1X2X3X3X4X4X4X3X1X>XQ.s.! Q                                         ",
"                                            U w q T ] { b.U.P.P.u.} ~ ! Y Q                                             ",
"                                                    K 1 1 1 K K J P                                                     ",
"                                                                                                                        ",
"                                                                                                                        ",
"                                                                                                                        "
};
