/* XPM */
static char *_7450cb25451413dc692b5bc3dba6a81Y15AAr4vTewxZU8h[] = {
/* columns rows colors chars-per-pixel */
"60 40 238 2 ",
"   c #4D190F",
".  c #690800",
"X  c #701511",
"o  c #562813",
"O  c #7A2516",
"+  c #6D1D2D",
"@  c #533133",
"#  c #762F28",
"$  c #653626",
"%  c #6F3134",
"&  c #794B3B",
"*  c #2C315B",
"=  c #372E58",
"-  c #081C77",
";  c #0E1E6F",
":  c #0B2269",
">  c #172976",
",  c #10256F",
"<  c #283774",
"1  c #30356A",
"2  c #151959",
"3  c #54304D",
"4  c #6B2F4C",
"5  c #703967",
"6  c #5B396C",
"7  c #37447B",
"8  c #574E58",
"9  c #6E4E54",
"0  c #494A72",
"q  c #7D7577",
"w  c #6B6D7A",
"e  c #685477",
"r  c #841513",
"t  c #991914",
"y  c #920707",
"u  c #B61A0A",
"i  c #B30810",
"p  c #AB2619",
"a  c #8B1B2A",
"s  c #A31A38",
"d  c #AF1733",
"f  c #912E2C",
"g  c #AC2D2C",
"h  c #C60602",
"j  c #D90708",
"k  c #D9170B",
"l  c #D11416",
"z  c #E30C07",
"x  c #E5130E",
"c  c #D12B14",
"v  c #D31124",
"b  c #D63C3C",
"n  c #E7282E",
"m  c #904D3B",
"M  c #B44F34",
"N  c #D54F31",
"B  c #A91F49",
"V  c #892F54",
"C  c #AF364C",
"Z  c #985E53",
"A  c #AA5A49",
"S  c #A94E4C",
"D  c #956655",
"F  c #B2694F",
"G  c #AE4B6C",
"H  c #966F73",
"J  c #B6796A",
"K  c #965678",
"L  c #CC535F",
"P  c #D94E52",
"I  c #E65550",
"U  c #C76A49",
"Y  c #C36355",
"T  c #C34B70",
"R  c #CC7868",
"E  c #E47A60",
"W  c #AE805E",
"Q  c #A98572",
"!  c #CE825E",
"~  c #D9886B",
"^  c #D58D72",
"/  c #D09072",
"(  c #EC9C79",
")  c #091E84",
"_  c #0A2587",
"`  c #142A8A",
"'  c #0C2C97",
"]  c #152C98",
"[  c #19369A",
"{  c #173B8A",
"}  c #1737A8",
"|  c #163BB8",
" . c #0A33A8",
".. c #203DA3",
"X. c #2E358D",
"o. c #483891",
"O. c #1D418B",
"+. c #37488A",
"@. c #2A4497",
"#. c #2E458C",
"$. c #1B43BA",
"%. c #1E45AA",
"&. c #2544B9",
"*. c #334EAD",
"=. c #3F64B2",
"-. c #5E538B",
";. c #545F97",
":. c #48568E",
">. c #765C81",
",. c #5B709D",
"<. c #737189",
"1. c #4058BA",
"2. c #4A65AF",
"3. c #4F68B3",
"4. c #7377B1",
"5. c #183DC6",
"6. c #1A47C5",
"7. c #1D4BD4",
"8. c #1C50DA",
"9. c #2349C7",
"0. c #224EDC",
"q. c #2E5BDA",
"w. c #3F64CE",
"e. c #1B52E0",
"r. c #3A68E0",
"t. c #597BD4",
"y. c #5177CE",
"u. c #767AC9",
"i. c #6B7BD6",
"p. c #6D7CCD",
"a. c #4A7BE3",
"s. c #527FE8",
"d. c #497FF9",
"f. c #AC5B8A",
"g. c #8D728A",
"h. c #A97199",
"j. c #9574B0",
"k. c #B676AA",
"l. c #A57DA2",
"z. c #FF7983",
"x. c #E57F8C",
"c. c #C97491",
"v. c #9A7BC1",
"b. c #8979C2",
"n. c #7A8198",
"m. c #7189AE",
"M. c #3F87F8",
"N. c #5D8CDC",
"B. c #5886D9",
"V. c #5687D2",
"C. c #6986C7",
"Z. c #7689C7",
"A. c #6687D8",
"S. c #7587D3",
"D. c #6D98DA",
"F. c #7798D9",
"G. c #7990C6",
"H. c #79A1D4",
"J. c #4C85EC",
"K. c #4D8AED",
"L. c #4987E8",
"P. c #5584E3",
"I. c #538AE5",
"U. c #5385EC",
"Y. c #5289EC",
"T. c #598DEA",
"R. c #5C87E6",
"E. c #4485F5",
"W. c #4A86F4",
"Q. c #458AF5",
"!. c #4A89F4",
"~. c #4586FD",
"^. c #4B86FC",
"/. c #4789FA",
"(. c #4A89FB",
"). c #5285F3",
"_. c #538BF4",
"`. c #5288F9",
"'. c #4B91FC",
"]. c #5792F0",
"[. c #6284E5",
"{. c #6689E4",
"}. c #6896E5",
"|. c #7397EB",
" X c #6E99F7",
".X c #7BA3E7",
"XX c #7DAEF1",
"oX c #8E8889",
"OX c #B49A98",
"+X c #AF8E8E",
"@X c #9788AB",
"#X c #9897A2",
"$X c #8A98B8",
"%X c #8D8BB9",
"&X c #A495B8",
"*X c #AF8EB5",
"=X c #98A0B5",
"-X c #B6B7B8",
";X c #AAAAB2",
":X c #D09881",
">X c #D58F95",
",X c #E98C9F",
"<X c #FC989E",
"1X c #F29A82",
"2X c #DAAB90",
"3X c #F1AD94",
"4X c #CE8EAC",
"5X c #DEB7AA",
"6X c #CFAFAA",
"7X c #ECB3AF",
"8X c #F6C9B9",
"9X c #8995CA",
"0X c #9D97D2",
"qX c #95A8D4",
"wX c #89A2CD",
"eX c #B4B3CD",
"rX c #9ABAFF",
"tX c #8DADEC",
"yX c #ABBBEA",
"uX c #A18FCB",
"iX c #F0BCC7",
"pX c #BAD8FF",
"aX c #B3C4EE",
"sX c #CACBD6",
"dX c #F6CED7",
"fX c #F0E4D7",
"gX c #CED2ED",
"hX c #F9DDE9",
"jX c #C9E8FF",
"kX c #D7F7FF",
"lX c #DFE8FF",
"zX c #E4E6E9",
"xX c #EAEEFB",
"cX c #FAEBF7",
"vX c #EAFAFF",
"bX c #EDF4FB",
"nX c #F6F7FE",
"mX c #F4F0EF",
/* pixels */
"/./././././.(./.(./././.(.W././.Q.Q././.!.Q.~.(.d.).(././.Q././.W.(.J.U.K.Q.Q.M.^.^.^.Q./.(./.M./././././././././././.W.",
"/./././././.(.!./././././././././.Q././.!.Q.(.(.W.`.(.(.E.K.s.{.u.u.u.i.V.T./.^.^.^.(.(./.E./.~./././././././././.(././.",
"/././././././././././././././././.~.~./.(.(././.(./.M.W.U.{.b.k.f.T G k.uXi.s.^./.(.~.M.E.Q.(.(./././././.(././././././.",
"/././././././.(././././././././.(.(.(.(.(.(././.(.M./.U.u.j.f.B v n z.,X4X0X[.W.(.(././.Q./.(.(.(././././././././././.(.",
"/./././././././././././././././.(././.^.W.(./.M./.(.^.i.k.T d j x n z.x.,X*XF.L.J./.~././.Q.W.(.(././.!.!./././././././.",
"/.(././.(././././././././././.!.Q./././.`.(.~./.'.a.[.v.T l j x z l I <X7X4X%XC.T.L.E.(././.W.!.(././.(./././././.W././.",
"/./.(./././.W././././././././././.M.'.'.^.^./.Q./.R.j.G i j j j x l b P L C G l.Z.A._.^.^.^.`.^.(.W./././.(././././././.",
"/./././././././.W.(.(./././././.M./.M.M.^.^.W.U.[.u.f.d i h h l u u p p f a + + -.y.T.^.^.^.^.^./././././././././././.(.",
"W./././.(././././././././././././.~./.M.^.^.^.i.v.f.s t i i u p X X r F F # X 3 4.B.(.(.(.(.M.'././././././././././././.",
"/././././././././.W./././././.^./.(.Q.Q./.^.`.i.h.a r y . t M M D H W / / Q H @Xu.R.(.~.(.'.M.M././././.W././././.(././.",
"(././././././././././././././.W.W.`.Q.M./.`.W.i.K a O . . f U / +XH 6X8X5XOX@XG.B.W.Q.M././.L.M.Q./.(./././.(././././.(.",
"/./././././.(./././.(././././.(./.(././.(.(./.A.h.R S O o m ! 3XOX8 OX8X5X6XsXqX}.J././.(.!.Q.M././././././././././././.",
"(./.(./././././././././././././././././.(././.A.&X>XR m . O / 3X+X9 OX/ / 2X8XfXyXD.s.(.~.M.M.'.Q.(././././././.W./././.",
"/././././././././.(./././.W./././.M././.(.E.P.p.*X4XR U m A ( 2X& @ 9 & D / 2X5XsX|.s.^.(.(.M.'./././././.W././././././.",
"/././././././././././././././././.!.(./.Q.Y.S.j.4X<X( N U ~ ( / m $     & D W OXqX}.U.`./././././././././././.(././././.",
"W.(././.W./.(.(././.(./.~.~.(.^.`.U.K.L.L.F.*Xc.L I N N N ! ~ ~ Q W & $ o o m OXwX.X.X|.I.).(./.(././.(././././././.(./.",
"(./.!./.(.(.^.^.(././.~.(.~./.Q.P.}.N.D.aXgX,Xg l x z x c c A R ! ^ ^ ^ F W 2X5XeXgXyXH..X_.!.!./././././././././.(././.",
"W./././.~.(.(.^.(.(.M.~.(./.W.I.|.jXkXkXnXnXdXI l x z z z h p g Z R ~ 1X3X8XfX6Xq #XoX$X.X XY.!././././././././././././.",
"/././.M./.~././.(./.(.(.(.E.I.XXjXvXvXvXnXnXdXx.g p i h k x l s 4 5 S F <XiX7XoXq q 8 n.wXXX_.~././.(.W./././././.(././.",
"/./.Q./././.!.!.W.Q.(.~.!.K.V.tXgXzXxXbXbXmXhXdXdX>Xf y h j v d 5 3 + a S M # D oXoXw <.m.}._.(.(./.(./././././././././.",
"/././.M.Q.~.Q.Q.!.E.(././.Y.V.H.=X-XsXkXzXfXmXcXcXiX4 s i l v B 5 e 4 f t y X % +X#Xn.m.}.I.^.^.(./.(./././.W././././.W.",
"(.(./././.!./.!.!.Q.(././.!.I.D.m.Q ;XsX-X-XzXnXxXeX6 4 B s B V >.&Xg.V C a + 3 <.wX9XV.V.'.`.^.(./././././././././././.",
"^.(./.Q././././.Q.Q.Q.M.M./.`.}.wXn.#X-X#X-XmXnXxXS.#.X.o.o.o.o.<.qXj.-.l.h.&X0XC.N.P.K.Q.L.M.^.(./././.(./././././././.",
"d.(.(.(./././././.'.M./.(.~.^.U.rXsX;XQ n.=XvXvXgX3.[  .} 5.6.9.#.:.*.3.yXm.C.A.Y.!.W./.Q.Q.(.(.(./.(./.(./././././././.",
"^.^./././.~.(.(./.Q././.M./.^.s.G.gXQ 8 = 0 qXjXtX&.] | | | 5.5.&.| %.t.pXZ.B.U.K.Q.K.Q./.(.(.d.W.~././././././././././.",
"`.^./.(./.(.(.~./././.M.~.(.W.B.G.=X8 = = : #.V.t.} ] }  .5.5.5.5.7.9.R.pXD.P.(.Q.Q.Q.Q.Q.~.^.^.(././././.(././././.W./.",
"^././.Q./.~././.(./.(.~.(.(.P.D.$Xw 8 * 2 - > [ *.] ] } | 9.5.9.0.8.8. XpXD.L./.!.`.!././.M.~.(./././.(./././.W.(./././.",
"(././.M.M.(././.(.(.(.^.(._.B.C.w 8 = * : - - _ ] ] ) ] } | 5.6.7.8.8.r.|.pX].Q.U.)././.M./.(.~././././././././././././.",
"'.M.Q.M.M.M././.(.(.(.^.W.K.N.,.% & = 2 : : - - - ` _ _ ) } } $.6.6.e.e.y.rX}.R.{.R.^.(.(.~.(.^.(.(./././././././././.(.",
"Q.Q./././././.(.W.(.(.^.W.Y.N.:.3 @ 1 > , : - - - - - _ ` - ' '  .6.8.7.q.s.rXtX{.[.`.(.~.(.^.^.(././././.(././././././.",
"(.~././.(.~.(.(././.Q.!.W.Y.T.2.0 0 3.D.}.V.=.O.{ O.*.C.A.=.O._ ] | 5.9.9.*.;.:.R.!.W.!.Q././.E./././././././.(.W./././.",
"(.(./.(.~.(.(.(.(.E.Q.!.!.J.U.R.C.C.A.R.I.I.K.B.N.N.V.N.N.V.{.t.] ] } 9.0...:.;.B.!.J.W.Q.Q.Q.Q./././.W././././././././.",
"(.(././././.~.(./.(./.W.(.W.!.W.U.U.J.J.E.!.W.!.Y.K.K.K.J.Y.).U.1.` } | &...:.4.B.a.a.U._.E.Q./././././.(./././.(./././.",
"~.(./././././././././././././././././././.Q./././././././././._.|.[ ` ..[ @.#.m.t.y.a._.).W././.(./././././././././.(./.",
"/./.(./././././././.(./././././././././././././././././.(./.Q.!.P.y.` > < +.3.B.B.a.E.^.^.(./././././././.W././././././.",
"(./././.W./././././././././././././.W././././.(.(././././././.W.L.}.@.; * 1 t.Y.W.Q./.(.(.(./.Q.Q./././././././.W./././.",
"/./././././././././././././././././././././.(.(.(.(././././.(./.'.P.A.< < y.P.J.Q.M.(.~.~./.M.Q./././.W.W././././././.(.",
"/./.W./././.(././././././././././.W./././././.!./././.(.(./././.Q.K.V.C.y.A._.!.Q./.(./.~./.Q.Q././././././././././././.",
"/././././././././.(./././././././././././.(./././././././.(./././.(.I.T._.(.E.!././.(.(.'./.Q.Q./././././././.(././.(./.",
"/.(./././.(./././././././.W.(./././././././././././././.!./././.(.W.J.W.'.M.^.^.(.(.W.Q./.Q.Q.!.(./.(./././././././././."
};
