/* XPM */
static char *result[] = {
/* columns rows colors chars-per-pixel */
"60 40 235 2 ",
"   c #030303",
".  c #080807",
"X  c #0B030B",
"o  c #0B0C0B",
"O  c #050707",
"+  c #0E130C",
"@  c #110B11",
"#  c #130513",
"$  c #131312",
"%  c #1B191B",
"&  c #181816",
"*  c #11110E",
"=  c #172517",
"-  c #1C371C",
";  c #163815",
":  c #10390F",
">  c #29261D",
",  c #011222",
"<  c #071A29",
"1  c #031F36",
"2  c #251A25",
"3  c #172528",
"4  c #242525",
"5  c #2B292B",
"6  c #2A262B",
"7  c #273827",
"8  c #362A38",
"9  c #333534",
"0  c #3D3D3E",
"q  c #39373B",
"w  c #2F2B30",
"e  c #423928",
"r  c #0D590B",
"t  c #164A16",
"y  c #1A5519",
"u  c #104E0E",
"i  c #0B680A",
"p  c #10680D",
"a  c #097206",
"s  c #0B7709",
"d  c #156E14",
"f  c #196818",
"g  c #147913",
"h  c #2A462A",
"j  c #315832",
"k  c #2C4F2B",
"l  c #286827",
"z  c #247424",
"x  c #356B35",
"c  c #504A38",
"v  c #61583D",
"b  c #536338",
"n  c #383E46",
"m  c #003465",
"M  c #043C6B",
"N  c #073B67",
"B  c #05386A",
"V  c #433B44",
"C  c #3F5D40",
"Z  c #06406F",
"A  c #02447B",
"S  c #074676",
"D  c #005E67",
"F  c #235376",
"G  c #366263",
"H  c #0D5D53",
"J  c #434444",
"K  c #49484A",
"L  c #49514A",
"P  c #504953",
"I  c #535455",
"U  c #5B5C5C",
"Y  c #575959",
"T  c #6B5F44",
"R  c #7C6B4D",
"E  c #736648",
"W  c #716D57",
"Q  c #5C5D60",
"!  c #5F6061",
"~  c #517376",
"^  c #626364",
"/  c #6A6B69",
"(  c #75716C",
")  c #827252",
"_  c #82764D",
"`  c #847768",
"'  c #018401",
"]  c #038C00",
"[  c #088607",
"{  c #13880E",
"}  c #049400",
"|  c #049B01",
" . c #0B980A",
".. c #12920D",
"X. c #168714",
"o. c #159715",
"O. c #0F9411",
"+. c #299E1F",
"@. c #04A401",
"#. c #03AC01",
"$. c #0AA809",
"%. c #02B402",
"&. c #01B903",
"*. c #09B509",
"=. c #12A412",
"-. c #10AF10",
";. c #0CAF16",
":. c #28AD1B",
">. c #238922",
",. c #299828",
"<. c #369931",
"1. c #378331",
"2. c #2AA62A",
"3. c #3AA931",
"4. c #5D973B",
"5. c #4E9138",
"6. c #54B036",
"7. c #01C202",
"8. c #08C209",
"9. c #36C837",
"0. c #549554",
"q. c #4C8C4D",
"w. c #6C9E44",
"e. c #799B51",
"r. c #59B054",
"t. c #79A84D",
"y. c #71A74C",
"u. c #649465",
"i. c #798C7B",
"p. c #72A472",
"a. c #91905A",
"s. c #99A75D",
"d. c #89AC55",
"f. c #9A9166",
"g. c #85896F",
"h. c #AD9A6E",
"j. c #A29679",
"k. c #B0996B",
"l. c #9AAB62",
"z. c #A7A666",
"x. c #B9A577",
"c. c #B2B06F",
"v. c #C5A977",
"b. c #C8B579",
"n. c #D4B47D",
"m. c #CCB574",
"M. c #CAC075",
"N. c #024B87",
"B. c #03528C",
"V. c #0A5084",
"C. c #055694",
"Z. c #1A5E91",
"A. c #004E92",
"S. c #326A94",
"D. c #3D77A7",
"F. c #537895",
"G. c #698187",
"H. c #7B8A84",
"J. c #5787AB",
"K. c #5F8EB2",
"L. c #6592B4",
"P. c #8A8988",
"I. c #889488",
"U. c #979798",
"Y. c #95918C",
"T. c #90A28F",
"R. c #B9A381",
"E. c #B4A898",
"W. c #AEAC96",
"Q. c #879EB2",
"!. c #A29FA1",
"~. c #8BA4B9",
"^. c #99A6B2",
"/. c #A8A8A9",
"(. c #B6B2AA",
"). c #B8ABB6",
"_. c #B4B4B3",
"`. c #BCBABA",
"'. c #BCB4B9",
"]. c #AAAEB0",
"[. c #CDB687",
"{. c #DEB785",
"}. c #D8BA84",
"|. c #D0B999",
" X c #E9BC87",
".X c #F3BF8A",
"XX c #BFC1BC",
"oX c #96DC96",
"OX c #DAC186",
"+X c #EEC389",
"@X c #EAC889",
"#X c #F2C58A",
"$X c #F4CA8C",
"%X c #FCCE8D",
"&X c #F2C787",
"*X c #FCD18E",
"=X c #FFDB8F",
"-X c #FDC492",
";X c #FECC93",
":X c #F9CF94",
">X c #FED292",
",X c #FFDA93",
"<X c #FED399",
"1X c #FFDD9A",
"2X c #F7D998",
"3X c #FFE39D",
"4X c #FFEA9F",
"5X c #FDD9A7",
"6X c #E6D3B3",
"7X c #FFE7A0",
"8X c #F7E1BC",
"9X c #FFFBAE",
"0X c #DBCBAC",
"qX c #95B0C4",
"wX c #B5BBC3",
"eX c #A5B5C3",
"rX c #C4BAC4",
"tX c #D1BED0",
"yX c #B9C1C8",
"uX c #C3C4C4",
"iX c #CDCDCD",
"pX c #C7C8C6",
"aX c #D1D0CB",
"sX c #D5CFD5",
"dX c #CFD1D3",
"fX c #D2D2D2",
"gX c #DADADA",
"hX c #D9D8D8",
"jX c #D0D0CF",
"kX c #FDE8C7",
"lX c #F7EDD6",
"zX c #FFF9D7",
"xX c #E2DEE4",
"cX c #FFFFFF",
"vX c #F7F6F4",
/* pixels */
"&.&.&.&.&.&.&.&.&.&.&.&.&.&.&.&.&.&.&.&.%.%.%.%.#.|  .} } } | @.$.%.%.&.&.&.&.&.&.&.*.&.7.&.&.&.&.&.&.&.&.&.&.%.#.#.#.#.",
"&.&.%.*.%.%.%.#.#.#.#.&.%.&.&.*.&.&.%.%.#.$.,.1.x j k h h h h y u r g  .*.8.7.7.&.7.,.j ..*.&.&.&.&.&.&.&.&.%.%.%.%.#.%.",
"@.@.@.@.@.| | | | | @.#.%.=.y y f s a a a i d f f f z z x L P P J 8 8 % + : t d O.$.*.q.V : ..%.@.@.#.#.%.&.&.&.&.&.&.&.",
"] ] ] } } } | | | @.@.| } } [ y 8 8 w % @                   . o * $ % *         X + : k ^ K @ d #.@.#.%.%.&.&.&.&.&.&.&.",
"] } } | | | |  .| } ] } ] ] ] } s h q K I I q > o O                     O O O O         * J J # o.&.&.7.&.&.&.&.%.&.&.&.",
"} } } } ] ] ] ] ' ] ' ] ] ] ' ' } } s r - 6 J I Y L 0 9 4 o       . . O         O O O O     9 % = *.&.O.*.&.&.&.%.%.%.%.",
"] ] ] ] ] } ] ] ] ] ] ' ] ] } } ' a r t - 3 4 9 K U ^ ^ ^ Y 0 o         o o o     O O   O O       f =.; &.&.%.#.$.@.@.@.",
"} | @.| @.} } ] ] ] ] ] } } d k 7 q e V K Y U ^ Q U U U U ^ 9 o   > R h.n.n.n.v.T o         O O   = = t #.| | } } } | @.",
"%.%.%.$.@.} [ [ } ] [ [ p - 2 8 6 % % 6 q e K J K Y ! U ^ 9     R :X3X7X7X3X,X,X3Xx.$   O       O   X { | } } } } } | } ",
"&.&.%.%.@.| | | | @...g s i g a s r u - & * * 4 J Y ! ! J O O _ 4X*X$XR R }.,X,X%X3XR   .   o e     y %.@.#.#.#.@.@.| | ",
"&.&.&.%.%.%.%.%.%.%.%.%.&.&.7.&.%.#. .p = 5 I U ! ( U Y $   v 1X*X@Xv % + * c f.$X3XOX=   . k.b.  = -.&.%.&.&.%.*.#.@.@.",
"&.&.&.&.&.&.&.&.&.&.&.%.%. .g z j C L P ! ! U ! x.v.` q   > @X<X*X%X6XlXlX0Xh.E T E x.x.  R 9Xx.X X.7.&.&.&.&.&.&.%.%.%.",
"&.&.&.&.&.&.&.&.&.&.&.&.*.g u - 9 n n q 9 3 + > OXv.( 6   h.3X%X%X5XcXcXcXcXcX0X[.v.@X,Xv.n.R b  .&.&.&.&.&.&.&.%.%.$.#.",
"&.&.&.&.&.&.&.&.&.&.&.&.&.7.7.&.#.[ i r +       e v.` $ > 2X*X>X%X5XvXcXcXcXdXC ].zX%X>X<X|.j.$.7.&.%.%.%.#.@.@.| }  .} ",
"&.&.&.&.&.&.&.&.&.&.&.&.&.&.*.o.X.p r = , , , , 6 x.W X T 1X%X>X>X%X;X5X8XkXkX8XkX8X%X5XaXU.r.&.#.#.@.| } } } ] } } | @.",
"%.#.#.@.#.%.&.%.&.&.&.&.&.&.&.&.&. .D N.C.D.J.L.L.W.f.  R 1X%X>X>X;X>X%X%X%X%X*X*X%X*X*X5Xt.@.| } } ] ] [ } } | @.$.$.%.",
"| } } | @.#.%.&.&.&.&.&.&.&.&.&.:.u.P.P.~ J.S.Z.B.N.F.  a.7X;X;X:X%X>X%X:X*X*X*X%X>X>X<Xz.' } ] ] ] } } | @.@.#.#.#.@.@.",
"} | @.#.#.%.%.&.%.&.%.%.#.#.@.+.{.<X,X,X&XF N.B.B.B.C.1 c [.&X,X,X1X,X,X>X,X,X,X<X<X@X_ y } ] ] } | | @.$.@.| | } } ] ] ",
"#.#.#.#.#.@.@.@.@.@.@.| | | | s.>X*X>X@X#XS.A.B.B.B.C.N < S F F.Y.R.[.[.}. Xc.c.d.4. .f t } ' ] } } | } } ] ] ] ] } | @.",
"@.| | } ] } } } } | @.@.#.+.z.;X*X>X$X%XR.S B.C.B.B.C.B.S M A V.M m m N j..Xq.' ' ' ' [ 1.w.z.c.x.l.5.[ ] ] } | @.@.#.#.",
"} } } } | | @.#.#.%.%.:.l.$X<X*X>X$Xn.v.F M M N.C.B.B.B.V.N V.S M M M Y.1X;Xb.w.4.4.t.s.OX;X<X,X,X<X;Xz.O.| | @.@.@.| } ",
"@.@.$.%.%.%.&.&.&.#.t.+X>X>X*X,X#X Xy.H M Z M B S N.N.B.M M B.S M B ~ 2X%X$X>X>X>X<X-X<X;X$X$X$X%X*X>X;Xd.} } } ] ] ] } ",
"&.&.&.&.&.&.#.@.| s.<X>X*X%X>X+X.Xe.s G D.A B N.Z S N.Z.L.F.N.Z m S.F.%X<X>X>X*X*X*X&X+X%X$X;X:X;X*X>X<Xz.] } } } | | @.",
"&.&.%.#.@.@.} ' w.-X*X>X>X>X&X.Xv.{ ] ~ wXqXK.S.B.N.N.eX^.~.F.m G.^.U.[.n.&X*X<X,X>X>X&X&X#X$X%X*X*X*X<Xk.} @.@.#.$.@.@.",
"#.@.| } } [ ] a.-X*X>X%X>X>X+X.Xz.] q./.`._.eXeX~.J.qX~.].^.~.~.^./.sXyX(.E.R.v.n.&X<X>X%X*X+X%X%X*X,X-Xt.#.#.#.@.| } ] ",
"} } ] ] ] } | c.>X*X*X>X>X*X%X%X>Xk./.aXiXfXjXwXwXwX^.yXgXfXwX].uXgXdXfXfXfXiX'.Y.g.a.c. X-X;X-X;X#Xn.6.&.%.#.| } } } | ",
"| } } | @.#.-.m.*X*X*X*X%X>X$X.X X{.(.fXfXfXfXfXfXdXfXfXpXpXpXiXiXpXiXfXfXiXfXfXfXpX/.u.<.w.d.w.3.:.%.&.&.&.%.#.#.#.#.%.",
"#.%.%.%.*.&.&.l.-X-X>X*X;X>X%Xn.E.pXfXfXfXjXfXfXdXiXXX`.'.'.).'.(._._.uXfXfXfXjXfXfXgXfXi.#.&.&.&.&.&.&.&.&.&.&.&.&.&.&.",
"&.&.&.&.&.&.&.*.6.t.l.M.M.M.b.(.dXfXfXfXfXjXjXfXfXuX).U.p.r.3.0.rX(._.iXfXfXfXfXfXiXfXhXI.-.&.&.&.*.&.&.&.&.&.&.&.&.&.&.",
"&.&.&.%.&.&.&.&.&.&.7.&.#.q./.sXfXjXfXfXfXfXfXfXrXI.0.;.&.&.$.0._.`.fXfXfXfXiXdXfXfXfX!.2.&.&.&.&.&.&.&.&.&.&.&.&.&.&.&.",
"&.&.&.&.&.&.&.&.&.*.&.%.u.pXfXjXjXjXiXiXiXpXpX'.0.*.&.&.&.%.0.).uXfXjXfXjXfXfXfXfXfX/.,.&.&.&.&.&.&.&.&.&.&.&.*.&.&.&.&.",
"&.&.&.&.&.&.&.&.&.&.&.o.U.fXhXhXfXhXfXpXXXrX/.0.&.&.&.*.%.u.).).iXfXiXfXiXiXjXiXgXpXq.&.*.&.&.&.&.&.&.&.&.&.&.&.&.&.&.&.",
"&.&.&.&.&.&.&.&.&.%.7.z 5 / U.'.'./.U.Y.U.I.<.&.&.&.&.&.#.H.pXXXpXhXhXhXgXdXgXgXrXu.*.&.&.&.&.&.&.&.&.&.&.&.&.&.&.&.%.#.",
"&.&.&.&.&.&.&.&.&.7.=.% J U c % & o   * y #.%.&.&.&.&.&.8.L V / ( P.P.P.U._.U.H.,.&.&.&.&.&.&.%.&.&.&.&.%.%.%.#.@.| | } ",
"&.&.&.&.&.&.&.7. .z L 0 / / &   X o # f %.#.%.&.&.&.&.&.8.j       O   O K / I 9 o.7.&.&.#.@.@.@.@.#.#.@.| | } } } } ] ] ",
"&.&.&.&.&.&.&.>.% # 5 L n % @ o * X 7 =.#.%.#.%.#.%.%.7.x # O o o o + * O e Y P J d {  .| } ] } } } } ] ] ] ] ] ' ' ] ] ",
"&.&.&.&.&.&.2.4 O o O O O O o o o   6 =.%.#.#.#.%.%.%.&.z = @ @ X X X o o .   o * X @ - { ] ' ] ] ] ] ] ] ] ] ] ] ] ] ] ",
"&.&.&.&.%.&.<.2   O O O O     $ = ; g *.%.%.%.&.&.&.&.&.7.*. .{ g y ; = $ @ # X X X X % X.} } } } ] ] ] ] ] ' ] ] ] ] ' ",
"#.#.%.%.%.%.*.>.h 6 4 4 5 Y U.2.%.&.&.&.&.&.&.&.&.&.%.%.#.#.%.#.%.#.#. .O.s p t : ; ; g $.$.@.| } ] ] ] ] ] ] ] ' ] ] } ",
"@.#.#.%.&.&.&.8.oXxXhXhXgXvXvX9.&.*.&.&.&.&.&.&.&.&.%.%.%.#.%.%.%.%.%.%.%.&.%.%.#.%.&.&.%.#.@.} ] ] ] ] ' ] ] ] ] ] ] ' "
};
