/* XPM */
static char *result[] = {
/* columns rows colors chars-per-pixel */
"60 40 237 2 ",
"   c #0A0404",
".  c #13040B",
"X  c #140B0D",
"o  c #190D0E",
"O  c #19060F",
"+  c #18120F",
"@  c #15150D",
"#  c #190A12",
"$  c #151213",
"%  c #1B1412",
"&  c #1D1919",
"*  c #231415",
"=  c #241A15",
"-  c #2A1C16",
";  c #2A151B",
":  c #251B19",
">  c #2B1E1B",
",  c #281518",
"<  c #331B1D",
"1  c #3B1C1B",
"2  c #220C14",
"3  c #1C2516",
"4  c #193815",
"5  c #113B0E",
"6  c #2D221D",
"7  c #28281A",
"8  c #33251C",
"9  c #342B1E",
"0  c #3A261E",
"q  c #27361A",
"w  c #35361D",
"e  c #371C21",
"r  c #2B2623",
"t  c #342422",
"y  c #3A2923",
"u  c #332D2C",
"i  c #3C2A29",
"p  c #362823",
"a  c #2B3624",
"s  c #3D3823",
"d  c #431412",
"f  c #5D1612",
"g  c #540D0F",
"h  c #660E0D",
"j  c #681E12",
"k  c #523512",
"l  c #451E25",
"z  c #442C23",
"x  c #4A2D26",
"c  c #422E2D",
"v  c #442626",
"b  c #552A2D",
"n  c #433225",
"m  c #4C3526",
"M  c #44312E",
"N  c #4D3B2B",
"B  c #4B3628",
"V  c #54342C",
"C  c #553C2C",
"Z  c #593D2D",
"A  c #483331",
"S  c #5E3731",
"D  c #623B32",
"F  c #652F22",
"G  c #6B3F0E",
"H  c #0E4A0E",
"J  c #12560F",
"K  c #194814",
"L  c #195815",
"P  c #1E4F0F",
"I  c #2A4719",
"U  c #324D1B",
"Y  c #25581A",
"T  c #375C1D",
"R  c #11680D",
"E  c #017B02",
"W  c #077607",
"Q  c #117B0F",
"!  c #176614",
"~  c #137B13",
"^  c #1B7618",
"/  c #0C6D0E",
"(  c #246819",
")  c #227519",
"_  c #356C18",
"`  c #3C4624",
"'  c #385926",
"]  c #2C5D2C",
"[  c #296B25",
"{  c #485D1F",
"}  c #474727",
"|  c #5C412F",
" . c #56462E",
".. c #455825",
"X. c #464038",
"o. c #5C4432",
"O. c #594833",
"+. c #595838",
"@. c #57582A",
"#. c #624532",
"$. c #644B35",
"%. c #6A4C37",
"&. c #6B4139",
"*. c #6D4C39",
"=. c #674537",
"-. c #714C3C",
";. c #78433E",
":. c #6A523B",
">. c #695D3D",
",. c #73523B",
"<. c #7B593F",
"1. c #4A6626",
"2. c #556725",
"3. c #527427",
"4. c #50742B",
"5. c #667A2C",
"6. c #63470F",
"7. c #484748",
"8. c #5B5858",
"9. c #56584A",
"0. c #7B4F40",
"q. c #685643",
"w. c #7E5B40",
"e. c #785540",
"r. c #7B6246",
"t. c #787153",
"y. c #6E6D6D",
"u. c #931217",
"i. c #B70E15",
"p. c #B01414",
"a. c #8B251F",
"s. c #85392B",
"d. c #C91314",
"f. c #D71216",
"g. c #C60C0E",
"h. c #825C42",
"j. c #895E45",
"k. c #835443",
"l. c #8D5642",
"z. c #856044",
"x. c #8A6449",
"c. c #8C7252",
"v. c #997655",
"b. c #B37146",
"n. c #AC7659",
"m. c #028402",
"M. c #038C00",
"N. c #0C820C",
"B. c #0C8C0C",
"V. c #0A8E07",
"C. c #14890D",
"Z. c #12860F",
"A. c #049301",
"S. c #049C01",
"D. c #0D9B0C",
"F. c #09970C",
"G. c #11950D",
"H. c #148913",
"J. c #129612",
"K. c #069211",
"L. c #04A301",
"P. c #03AC01",
"I. c #0BA60A",
"U. c #0CAB0C",
"Y. c #06A705",
"T. c #03B402",
"R. c #01B903",
"E. c #09B709",
"W. c #0EA710",
"Q. c #12A612",
"!. c #259322",
"~. c #56832A",
"^. c #52863A",
"/. c #63942D",
"(. c #669B2E",
"). c #6C8C32",
"_. c #6BA231",
"`. c #6BA432",
"'. c #79A835",
"]. c #78B435",
"[. c #01C202",
"{. c #01C903",
"}. c #07C709",
"|. c #5D8743",
" X c #628142",
".X c #83BB38",
"XX c #86A635",
"oX c #95CD3D",
"OX c #A4D93F",
"+X c #908E5C",
"@X c #A6835E",
"#X c #8C8470",
"$X c #AC8863",
"%X c #BA946B",
"&X c #A69972",
"*X c #AD8D69",
"=X c #97A069",
"-X c #BAA877",
";X c #C2966C",
":X c #C89C74",
">X c #DD946C",
",X c #E29C72",
"<X c #CEA376",
"1X c #D6A878",
"2X c #C6B57E",
"3X c #E7B67F",
"4X c #EFAF7D",
"5X c #C58859",
"6X c #B7F244",
"7X c #C0F549",
"8X c #838383",
"9X c #979998",
"0X c #B9AC85",
"qX c #B5B7B8",
"wX c #CBB985",
"eX c #D6BB88",
"rX c #D1B991",
"tX c #EEBA84",
"yX c #E6B988",
"uX c #F3BD85",
"iX c #F4B785",
"pX c #D7C594",
"aX c #EBC48E",
"sX c #F7C28A",
"dX c #FCC58A",
"fX c #FFC98E",
"gX c #F6C88C",
"hX c #FECB91",
"jX c #F1CE94",
"kX c #F7DBA1",
"lX c #E8D5A3",
"zX c #FEE1A5",
"xX c #FDE4AA",
"cX c #FFECAE",
"vX c #FFF4B5",
"bX c #FFFFBF",
"nX c #FFEEB7",
/* pixels */
"R.R.T.T.R.T.R.R.R.R.R.R.R.R.R.R.R.R.R.R.T.T.P.P.P.L.S.S.L.S.L.S.S.I.P.T.T.R.R.R.R.R.R.R.R.R.R.R.R.R.R.R.R.R.R.R.R.T.T.P.",
"T.R.T.E.T.P.P.P.P.R.T.R.R.R.R.T.P.P.P.L.L.L.S.S.A.M.m.m.m.B.V.A.S.L.P.R.R.[.R.R.R.R.R.R.R.R.T.R.R.R.T.T.R.T.R.R.R.T.T.T.",
"L.L.S.S.S.S.S.L.L.P.T.P.P.L.L.S.S.S.A.M.W R ( U } }  .O.%.:.:.$.O.} ..T ) Z.S.T.[.R.R.R.R.R.R.T.T.T.L.P.P.P.T.T.R.R.R.T.",
"M.A.A.S.S.S.L.L.S.S.S.A.M.M.A.A.E / I } o.;.,.k.h.j.j.j.z.h.j.h.j.j.h.k.0.;.o.I ~ Y.S.B.Z.~ ~ ~ W A.P.P.P.T.T.T.R.R.R.R.",
"A.S.S.S.A.A.A.A.A.M.M.M.M.m.R I } -.k.h.j.h.h.w.w.w.w.w.<.w.w.<.<.w.w.w.x.h.j.S 2 4 ' 1.1.5.).).5...( Q.R.R.R.R.T.R.R.R.",
"A.A.M.M.M.M.V.V.M.A.M.W P U Z <.j.h.w.w.w.h.w.h.w.h.w.h.h.w.h.h.h.w.h.h.C } 9 q 4./.`.]..X/.2.{ 3.'.@.& Q.R.R.R.R.R.R.R.",
"A.M.A.M.M.m.M.A.E J q y D j.j.h.w.w.k.h.w.h.w.w.h.w.w.w.w.w.w.w.h.w.z.y U /.../.(./.(.'.'.).'.).{ / K.J [ E.R.T.T.T.P.L.",
"S.L.S.A.M.A.E K 9 b Z -.j.h.w.w.h.w.w.w.h.w.w.h.h.h.h.w.z.w.h.z.h.z.,.% /.`._.(.`.].]..XoXoX7X6XOXXX( E.E.T.P.L.S.S.A.A.",
"P.L.S.A.M.H < V #.#.Z #.w.h.h.h.h.h.h.j.h.h.h.w.w.w.<.w.<.<.,.,.-.=.#.6 q ..} ....1.1.` w U 4.).`.oX5.! T.L.S.A.A.A.A.A.",
"R.Y.L.D.4 v o.Z C C Z Z | %.,.,.,.,.,.*.*.%.%.=.#.#.| C C C C m m m m m z x x m m m M V * C.I.! 3.OX2.~ T.P.L.P.P.P.P.L.",
"T.T.E.L < #.C Z Z Z Z Z Z Z Z | | | Z Z Z m z z z 9 m #.$.O.| $.$.$.*.r.<.%.%.%.C N O.z ! [.R.[.Y w ! E.R.R.R.R.R.T.E.P.",
"T.R.}.L 0 #.Z Z Z Z Z Z Z | | | V x x w 9 ,.c.$X;X1X<X%Xv.$X;XyXfXfXsXsXuXuXtXuXgXsX1X>.P.R.T.[.W.N.R.R.R.R.R.R.R.R.R.T.",
"R.R.R.E.4 x D S | | Z #.o.m n w ` T ~.I r.hXfXdXdXc.9 % %   % 8 :.*XuXdXdXdXfXsX@Xn = 7 U.R.T.R.R.[.R.R.R.R.T.T.R.T.R.T.",
"R.R.R.R.T.Q ( ' z  .B > - 6 n 1.~.].3.C tX3X3XdXc.  = = u y.u % %   8 ,.v.$Xv.A   u & K E.R.R.R.R.R.R.R.T.T.E.P.P.P.S.S.",
"R.T.R.R.[.[.B.4 - *   r.<X1X<X;Xr.{ T *.hXsXtXuXV $ r & qX9X9Xy.  7.8.X % % $ r 8X9.u ^ [.R.R.R.T.T.P.P.L.L.S.A.A.A.M.A.",
"P.P.T.R.W.4 O ; w I 3 yXuXb.b.5XdX$X..q o.1XuXsX$Xo . . y.8Xy.8.7.qX8X  % , & $ r $ # !.R.P.P.L.L.S.A.A.M.M.M.M.A.A.L.L.",
"S.L.L.R.U.N.V.D.E.[.J.+.<X,X>X,XiXdX<Xc. .$.;XsXgXwXt.N = r X.7.7.6 & +.&X0Xc.O.9.t.9.!.S.S.A.M.M.M.M.M.M.A.S.L.L.P.P.P.",
"P.P.T.T.T.[.[.R.R.P.R.S.^ ^.|. Xt.1XhXhXfX3X1XdXkXcXvXcXkXwX+X&XwXpXzXvXzXyX%Xt.lXbXt.Q M.M.M.M.M.M.A.S.S.L.L.L.L.S.S.A.",
"P.P.L.L.L.L.L.L.S.S.A.L.~ z 6.6.G F z.;X3XgXfXfXzXzXkXkXkXxX-X*X-XwXpXpXjXaXeXxXvXrX] A.m.M.M.M.M.A.A.A.S.A.A.M.M.M.M.M.",
"A.A.A.A.A.A.S.S.L.L.P.P.T._ u.i.g.d.i.1 V j.@X<XeXkXcXcXnXnXnXxXpXpXpXpXcXnXnXlX&X] m.V.M.M.M.M.M.M.M.M.M.V.V.M.V.S.S.L.",
"A.S.S.L.P.P.P.T.R.T.T.T.I.U j f h h d o g g.p.u.a.s.j.n.$X*X-XwXwXwXwX-X=X+X^.^ E A.M.m.M.M.m.M.M.M.M.m.M.A.A.A.S.L.L.L.",
"T.T.R.R.T.T.T.P.L.L.S.S.B.L ! 7 * 8 u c 6 d i.f.f.d.g.g.u.P E E E E E E m.m.m.M.M.M.M.M.M.M.M.M.M.M.M.M.A.A.S.S.S.A.A.M.",
"R.R.T.P.P.L.S.A.A.M.A./ K r p c A c t = > p : f p.i.f.f.F F.S.M.A.M.M.A.A.M.M.M.M.M.M.M.M.m.M.M.M.M.M.M.M.A.M.M.M.A.A.A.",
"P.P.S.S.A.A.M.M.M.V.K 8 v c c y > , > y c c c u 8 1 f k D.R.L.L.L.S.A.A.A.A.A.A.M.M.M.M.M.M.M.M.M.M.M.M.A.A.A.S.L.L.L.P.",
"A.A.M.M.M.M.A.A.L.Y ; M i i = > i c c c c c c c M M > K.[.T.T.T.T.T.P.L.L.A.A.M.M.M.M.M.M.M.M.M.A.A.S.S.L.P.P.T.P.P.L.S.",
"M.M.A.A.S.L.L.P.R.! e c M i + p A c c c c c c i z M > [ {.[.[.[.{.R.P.P.L.S.A.S.S.L.L.S.L.S.L.L.P.T.P.T.R.R.R.R.T.L.S.A.",
"S.L.L.P.T.E.T.T.R.U.q i i i = > t i c c c c c c M c i q H.H.) ) ~ J.R.R.R.T.T.T.R.R.R.T.R.T.R.R.R.R.R.R.R.R.R.R.T.T.P.P.",
"T.T.E.R.T.R.R.R.T.R.~ e M N C m 0 t > t t i i p p y > , < v D e V < [ U.R.R.R.R.R.R.R.R.R.T.R.R.R.R.R.R.R.R.R.R.R.R.R.R.",
"R.R.R.R.R.R.R.R.R.R.I.w Z %.$.*.j.w.C + $ % % % % + @ > 0 Z 8 7 p x t J.[.T.R.R.R.R.R.R.R.R.E.R.R.R.R.R.R.R.R.R.R.R.R.R.",
"R.R.R.R.R.R.R.R.R.R.R.Y D x.j.x.j.x.| . ; ; , : % $ ! Q U * v D V ` H.{.E.R.R.R.R.R.R.R.R.R.R.R.R.R.R.R.R.T.T.R.T.R.R.R.",
"R.R.R.R.R.R.R.R.R.R.R.I.' $.O.#.V c 8 I L [ ] @ . + @ 5 J.L.( ( B.R.R.R.R.R.R.R.R.R.R.T.R.R.R.E.R.R.R.R.R.R.R.R.R.R.R.R.",
"R.R.R.R.R.R.R.R.R.R.R.R.R.R.W # & & & K }.{.}.J.@ + % O X Q {.R.[.R.R.R.R.R.T.R.R.R.R.R.R.R.R.R.R.R.R.R.R.R.T.R.R.R.R.R.",
"R.R.R.R.R.R.R.T.R.R.T.T.[.U.4 : 6 6 : 3 W.R.T.{.^ . % % + O H.R.R.R.R.R.R.R.R.R.R.R.R.R.R.R.R.T.T.R.R.R.R.R.R.R.R.R.R.R.",
"R.R.R.R.R.R.R.R.R.R.T.P.~ & : 6 > 6 , 3 I.R.R.E.4 X % + % O L E.T.R.R.R.R.R.R.R.R.R.R.R.R.R.R.R.T.T.T.R.T.R.R.R.P.T.L.L.",
"R.R.E.R.R.R.T.T.T.L.L.B.$ * = : : : # R T.T.R.T.K o + + o X ~ {.R.R.R.R.R.R.T.T.R.R.R.T.T.E.P.P.Y.P.L.P.T.P.L.S.S.A.A.M.",
"R.R.R.R.R.R.T.P.L.S.S.Y C B 8 8 = H F.T.P.T.P.R.! y 9 8 > q ^ B.U.[.R.R.R.T.T.T.T.Y.L.L.S.A.A.M.M.A.A.A.A.M.M.M.M.M.M.M.",
"R.R.R.T.T.P.P.T.T.W.' ,.h.<.h.<.,.+._ D.T.P.E.J.9 C C Z #.S S b s ! U.T.P.L.L.S.A.M.A.M.V.M.m.M.M.M.M.M.M.M.M.m.M.M.M.M.",
"R.T.E.T.Y.P.T.T.T.( l =.D &.&.&.&.&.b a W.R.[.^ = 9 w p a p 9 s p > H.S.A.A.M.M.V.V.V.M.M.V.A.A.A.A.A.M.M.M.M.M.M.M.m.M.",
"T.T.T.T.T.T.T.R.T.U.G.C.C.C.C.C.C.C.G.D.T.T.R.T.T.P.P.L.S.S.S.S.L.S.I.S.S.S.A.A.A.A.A.S.L.L.L.Y.L.S.A.M.M.M.M.M.M.M.M.M.",
"T.R.R.R.T.R.R.R.R.R.R.[.[.[.R.{.[.[.[.[.R.R.R.R.R.R.R.R.R.R.T.R.R.R.T.T.T.T.T.P.P.T.T.T.T.T.T.Y.L.A.M.M.M.m.M.V.M.m.M.M."
};
