/* XPM */
static char *result[] = {
/* columns rows colors chars-per-pixel */
"60 40 239 2 ",
"   c #480507",
".  c #550A08",
"X  c #551709",
"o  c #6A060A",
"O  c #750E0B",
"+  c #79130B",
"@  c #6A140A",
"#  c #67370B",
"$  c #77380C",
"%  c #7D270A",
"&  c #5F290D",
"*  c #007F00",
"=  c #35790A",
"-  c #2C7008",
";  c #495E0E",
":  c #58550D",
">  c #5B4C0F",
",  c #744809",
"<  c #64550E",
"1  c #7B5208",
"2  c #704B0F",
"3  c #56630D",
"4  c #48700D",
"5  c #6C730D",
"6  c #8D070C",
"7  c #9C050D",
"8  c #930C0D",
"9  c #9A0B0D",
"0  c #96020B",
"q  c #8C130C",
"w  c #86150C",
"e  c #94140D",
"r  c #9B140E",
"t  c #9A180E",
"y  c #9C1911",
"u  c #A40C0E",
"i  c #A2190F",
"p  c #A3160F",
"a  c #B3150F",
"s  c #A80E11",
"d  c #A31311",
"f  c #AC1411",
"g  c #A51910",
"h  c #AC1C11",
"j  c #B31411",
"k  c #B41C11",
"l  c #BA1C11",
"z  c #BE1313",
"x  c #B50F12",
"c  c #8A3511",
"v  c #8D2510",
"b  c #B9260F",
"n  c #B62111",
"m  c #B92111",
"M  c #AE320E",
"N  c #C31312",
"B  c #864A09",
"V  c #914F0C",
"C  c #BA540C",
"Z  c #996809",
"A  c #8E6608",
"S  c #A16F09",
"D  c #BC620C",
"F  c #A87309",
"G  c #B47A09",
"H  c #C3580E",
"J  c #C65813",
"K  c #C24613",
"L  c #CC7110",
"P  c #038C00",
"I  c #078A03",
"U  c #049300",
"Y  c #049B01",
"T  c #099D02",
"R  c #1C9508",
"E  c #1A8D07",
"W  c #368C0B",
"Q  c #2B940B",
"!  c #04A401",
"~  c #09A603",
"^  c #03AC01",
"/  c #0BAE04",
"(  c #06A50B",
")  c #15A609",
"_  c #02B402",
"`  c #0AB305",
"'  c #01B903",
"]  c #0ABA08",
"[  c #17B70A",
"{  c #1BB016",
"}  c #23A912",
"|  c #2ABB12",
" . c #2DB209",
".. c #45810D",
"X. c #41910D",
"o. c #70900B",
"O. c #44B60C",
"+. c #56B61D",
"@. c #4CAA10",
"#. c #6BAA0C",
"$. c #55B72A",
"%. c #67B53A",
"&. c #73B420",
"*. c #00C303",
"=. c #54C31D",
"-. c #78C323",
";. c #68C124",
":. c #75C744",
">. c #939A0A",
",. c #B98609",
"<. c #AC990B",
"1. c #94B113",
"2. c #B5BD19",
"3. c #83BD38",
"4. c #A2BD27",
"5. c #CB8C07",
"6. c #C78908",
"7. c #D68B09",
"8. c #C99508",
"9. c #D49B0B",
"0. c #DB9909",
"q. c #D79608",
"w. c #E09D09",
"e. c #E19313",
"r. c #DBA30A",
"t. c #DDAC0C",
"y. c #D7A209",
"u. c #DCBE1D",
"i. c #D4B40E",
"p. c #EAAC0A",
"a. c #E3A709",
"s. c #F2AD09",
"d. c #E2B40D",
"f. c #EDB20B",
"g. c #E6B90C",
"h. c #EBBE0E",
"j. c #EBBA07",
"k. c #F5B407",
"l. c #F7BB06",
"z. c #F3B40A",
"x. c #F5BB0A",
"c. c #FBBD0A",
"v. c #FCBC07",
"b. c #E7BA19",
"n. c #F3BA13",
"m. c #F2BB1B",
"M. c #FABA18",
"N. c #E2AE11",
"B. c #E09420",
"V. c #F9BF24",
"C. c #ECB826",
"Z. c #97C21D",
"A. c #A4C51A",
"S. c #8EC731",
"D. c #AFC428",
"F. c #A1C33C",
"G. c #B9C62E",
"H. c #ECC10E",
"J. c #FAC307",
"K. c #F6C20B",
"L. c #FBC409",
"P. c #FACB0A",
"I. c #F7CC0A",
"U. c #FCD10C",
"Y. c #FAD506",
"T. c #EDC112",
"R. c #EFC61B",
"E. c #F4C313",
"W. c #F3C41B",
"Q. c #F5CB1B",
"!. c #F8CE1D",
"~. c #F9C916",
"^. c #FBD215",
"/. c #FBD41B",
"(. c #F9DA1C",
"). c #FFE01E",
"_. c #D8C32B",
"`. c #D4CD31",
"'. c #F3C324",
"]. c #F5CB23",
"[. c #F5C32C",
"{. c #FBC728",
"}. c #FAD523",
"|. c #FAD42A",
" X c #FCDA28",
".X c #FAD523",
"XX c #F4CC33",
"oX c #FDCB33",
"OX c #F7CB38",
"+X c #F9D537",
"@X c #EBC82E",
"#X c #FFE52F",
"$X c #D7C50C",
"%X c #9BC64E",
"&X c #B0D046",
"*X c #DBD353",
"=X c #C7D64E",
"-X c #F6CD44",
";X c #F5D344",
":X c #F5D44D",
">X c #FCD947",
",X c #F8DA55",
"<X c #EDD84D",
"1X c #FFE343",
"2X c #FCE15C",
"3X c #F9E356",
"4X c #C6D663",
"5X c #F9DC65",
"6X c #F6DB67",
"7X c #F5DD72",
"8X c #E0D961",
"9X c #DEE175",
"0X c #FCE463",
"qX c #FDEB6D",
"wX c #F7E569",
"eX c #FBE473",
"rX c #FAE57B",
"tX c #F7E579",
"yX c #F9E483",
"uX c #FAE889",
"iX c #FBEB94",
"pX c #FBEB99",
"aX c #F8E694",
"sX c #FEF09C",
"dX c #FBECA3",
"fX c #FBEEAB",
"gX c #FDF1AC",
"hX c #FDF0A5",
"jX c #FAEFB1",
"kX c #FCF1B4",
"lX c #FCF2BB",
"zX c #FCF4C2",
"xX c #FDF6CC",
"cX c #FDF8CD",
"vX c #FEF9D3",
"bX c #FEFADB",
"nX c #FEF7D1",
"mX c #F9EFC6",
"MX c #FFFCE3",
/* pixels */
"' ' ' ' ' ' ' ' ' ' ' ' ' ' ' ' ' ' _ ^ ^ ^ { $. .( $.%X+.} $.3.&.) { $.O._ _ ' _ ' ' ' ' ' ' ' ' ' ' ' ' ' ' ' ' ' ' ' ",
"_ ^ ^ ^ ^ _ _ _ ' ' ' _ _ _ ^ ` / ( :.&XS.3.*X>XOX_.OX{.V.C.{.~.M.u._.V.m.4.S.D.Z.[ *.[ ] ' ' ' ' ' ' ' ' ' ' ' _ ' ' ' ",
"Y Y Y Y ~ ^ _ ^ ^ ^ ! ( ) T %.eX*X*X,XoXoXoX{.@XOX;X:X,X5X5X5X6X6X,X,X-XXX{.M.M.z.b._.@X2.] ] ] _ _ ^ ^ ^ ^ ^ ~ ( _ _ _ ",
"Y Y ! Y ! Y Y T U P P %XtX*X5X;XoX{.'.+X;X<X0XeXuXiXsXhXfXjXlXzXxXnXnXnXcXmXjXaX7X-XV.z.M.u._._.} U Y Y ! ~ ! ! ^ ^ _ _ ",
"U U U P P P P * %.4X4X5X>X{.W.W.Q.!.+X>X3X2X0XeXeXrXyXiXdXfXkXlXfXjXjXxXxXvXbXMXMXMXzXdX6XV.n.M._.G.4.! ^ _ _ _ ' ' ' ' ",
"P P P P P I $.%.9X2XoX'.W.W.K.P.Y./.|.|.OX+XOX;XOX;X0XsXdXfXkXlXfX7X7XyXuXaXfXdXlXzXbXbXnXlXyXOXM.M.OXS.;.| ' ' ' ' ' ' ",
"P P P I I Q tXqXoX'.R.E.c.J.P.I.K.K.E.Q.].XX+X>X5XtXsXsXgXkXxXxXnXnXlXjXdXaXaXyXaXyXaXaXmXzXzXkXyX[.n.oX>X;.' ' ' ' ' ' ",
"U P P P %X3X:Xm.'.W.x.l.L.I.x.x.K.K.E.E.]. X>X3X0XeXrXrXuXuXqX3XjXbXbXMXMXnXlXpXrXuXaX7X6XaXfXkXfXpX:Xn.'.;X*X| _ _ ^ ! ",
"P P R @.&X1Xn.Q.W.l.c.J.x.z.x.E.K.x.I.U.^./. X+X3X2X,X1X(.Y.Y.Y.lXMXbXbXnXnXvXcXjXrX6XuXrX,X6XiXpXiXyX:Xm.oX,X;. .Y Y U ",
"T U R =X#Xn.E.n.k.x.J.x.z.c.x.x.x.P.P.P.Y.U.^./. X3XqXsXXXg.j.b.zXMXbXnXcXzXlXkXkXgXtX;X6X6X;X;XrXrXeX5X-Xm.:X2X$.^ ~ ^ ",
"_ ] S.`./.z.I.f.k.x.z.s.x.l.x.z.K.U.I.P.P.P.P.U.U./. X0XC.w.r.r.mXMXnXlXkXfXpXpXiXuXuX;XOX,X:XXX;XwX2X,X+XOX'.wX&X| _ ' ",
"' ' =.(.I.x.K.s.x.x.z.z.z.z.z.z.K.I.P.P.P.P.P.P.P.P.P.(.N.q.0.0.aXsXuXeXeXwX0X0X2X2X2XXX'.+X+X].Q.>X>X+X|.-XC.qXS.] ' ' ",
"' ' S.I.I.j.K.z.l.l.s.z.z.k.s.s.c.J.J.J.J.L.J.L.L.L.J.L.r.q.q.q.T.^.^.^.^.^./.(././..XE.E.Q.Q.E.E././.^.K.-X{.qX=X| ' ' ",
"' ' [ `.P.k.K.f.x.x.s.s.z.k.z.s.z.J.J.J.J.J.J.J.J.J.J.J.a.q.0.q.l.J.J.J.I.L.L.P.P.U.K.x.K.K.K.x.K.I.P.v.[.[.>XqX=.*._ ^ ",
"' ' | A.$Xc.k.x.s.c.z.s.z.z.z.k.s.k.x.J.L.J.J.J.J.L.J.K.w.w.w.0.l.J.J.J.J.J.L.L.J.x.x.x.x.x.x.x.x.L.l.n.XXM.3X&X$.Y Y Y ",
"' ' ' _ G.L.l.f.z.k.x.x.s.s.z.z.z.s.s.z.k.J.J.L.J.h.f.f.p.p.p.p.p.f.j.J.J.J.x.z.z.x.l.x.x.x.z.x.J.l.x.XXm.3XqXR P U P P ",
"_ ' ' ] =.#.I.v.k.z.l.c.c.s.s.s.z.k.z.k.s.z.z.z.x.c.J.J.J.J.J.J.L.J.l.x.z.z.z.z.x.x.x.z.z.z.x.v.k.n.[.].,XF.@.R P U Y Y ",
"_ ' _ _ ' [ D.i.x.k.z.l.J.L.c.z.s.z.z.x.x.z.k.z.s.l.P.I.I.L.L.I.L.c.s.k.x.z.z.x.z.z.z.z.x.k.z.n.n.W.}.`.`.@.I Y ! T ! ! ",
"! ! ! ! ! Y Y Y 2.J.v.k.f.f.K.P.K.x.z.z.z.s.z.z.x.x.x.x.x.x.c.x.z.x.x.x.z.z.z.z.z.x.k.x.k.z.x.E.^..X@XR P U U Y U U U U ",
"U Y Y Y ! ! ! ! }  .O.Q.L.v.v.k.x.K.K.P.K.K.L.P.U.P.K.K.I.I.L.K.K.K.P.L.K.x.k.x.x.z.z.z.c.U.U.(.#.Q Q I P I P P P P I P ",
"^ ^ _ _ ` _ ` _ _ _ ^  .#.@.i.Y.L.L.c.k.c.L.K.I.I.I.I.P.P.P.P.P.I.K.L.J.x.L.c.x.x.L.L.U.x.V 5 @.P P P P P P P P P P U Y ",
"_ _ ` ^ ^ ~ Y Y U U U I P U - V B $ 0.L.p.p.c.L.c.c.c.x.v.L.L.c.J.L.L.L.L.f.a.K.n.F $ Z $   X P P I P P P P P P U T T Y ",
"^ ! Y U U U P I I I I I P I & . . . . B A B ,.t.,.Z 8.l.9.Z G p.9.V B ,.6.1 1 Z F S % o + w 8 : P P P P P P P P P P I P ",
"U P P P P P P U U T T I U ; 7 q q w + G 6.,.F F S Z Z F Z .   X X     # 1 Z ,.8.y.g.w.g h g p d - P P P P P P P U U U Y ",
"P P U U Y Y ! ^ ` ^ ^ ! R y d y g r L K.p.p.p.a.a.w.0.r.V O + O @ @ , A G q.d.T.Q.!.).L x b k a v I U U Y Y Y ! ( ! ^ _ ",
"Y ! ~ ^ _ _ ' ' ' ' _ ' B f h h u H U.L.K.K.x.K.x.k.c.7.7 e q q e . , G 9.b.[.|..X|.#X XK a b l z B ( ^ ^ _ _ ' _ ' ' _ ",
"` _ _ ' ' ' ' ' ' ' *.5 x k n k K .X(././.^.^.P.I.P.K.M d d r r + . + 6.t.b.].].}.}.]./.W.b a b l N < *.' ' ' ' ' ' ' ' ",
"' ' ' ' ' ' ' ' ' *.4 z l m k b }. X|..X|..X.X.X}.(.J f h g d r X @ w M t.g.h.T.h.h.h.h.H.0.n k n h z 3 *._ ' ' ' ' ' ' ",
"' ' ' ' ' ' ' _ *.W l m b l m C. X|.|. X.X|.|..X#XB.k m k h j O . + e s C d.t.r.t.t.y.y.q.y.L a k h g s 3 *.' ' ' ' ' ' ",
"' ' ' ' ' ' _ *.W k l n l a e./.Q.Q.Q.}.}.}.}. X'.n l m n z 4 - o w e i h H 9.5.5.6.5.7.7.6.8.D d g g d u : *.' ' ' ' ' ",
"' ' ' ' ' ' *.W i f h k f L H.g.g.h.H.T.E.E.W.Q.K j m n N < *.*.; 6 e p h f D 8.6.5.>.@.#.<.,.8.J u u 9 e 7 < *.' ' ' _ ",
"' ] ' ' ' *...d p i i p D d.y.a.p.d.d.d.d.g.H.H j m n N V ' ' ] *.: 7 t i p p D 8.5.O.' *.' [  .#.5 # % q 8 0 # ` ' ' _ ",
"' ' ' ' *.4 r e t d r H 0.q.8.<.>.8.y.9.r.t.C f k h x c ` ' ' ' ' ' < 9 e r r e C <.' _ ' ' ' ' ' *.' ` R W ; # > / ' ' ",
"' ' ' ' 3 7 9 9 r q B >.o.Q  .) ! #.8.8.9.C d h g s c ` ' _ ' ' ' ' ' < 0 e q q 8 X.*._ ' ' ' ' _ ` ' ' ' *.*.' ` ^ ' _ ",
"' ' ) 2 w # > - - P Y U U U U U U R <.6.M 9 y y u c ) *.' ' ' ' ' ' ' *.3 6 w 6 $ ] ' ' _ _ ` ` ^ ^ ^ ~ ~ ! ~ ^ ^ ^ ~ Y ",
"' ' T R ~ ! ! ! ! Y U U U U U Y ! ^ >.h q e e 7 $ / ' _ ' ' ' ' ' ' ' ' *.= + 0 4 ' ( ^ ~ ! Y Y T U P P U U U U U P U P ",
"` ^ _ ' _ ^ ~ ~ ~ Y Y U U Y ! ! ^ _ E 8 q q 0 2 ` ' _ ' ' ' _ ' ' ' _ _ ^ ' E # E Y U P P P P P I P P P P P P P P P P P ",
"^ ^ ^ ` _ ` ^ ^ Y Y Y Y ! ^ ^ ` ` _ ] $ 0 8 3 ' ' _ ' _ ' _ _ _ ^ ( ! Y Y U U U P I I I P P P P U P U U U U U P P P P P ",
"_ _ _ ' _ _ _ ` _ ^ _ ` _ _ ' ' ' ' *.4 w W *.' ' _ _ _ ^ ^ ^ ! ! ! ! ! ! Y Y Y U U U T T Y ~ ! ~ ^ ~ ! Y U U P P P P P ",
"' ' ' ' ' ' ' ' ' _ ' ' ' ' ' ' ' ' ' ) ) *._ ' ' ' _ _ _ _ _ _ _ ' ' _ ` _ _ ^ ^ ` ^ ^ ^ _ _ _ _ ^ ^ ! Y P P P P P P P "
};
