/* XPM */
static char *result[] = {
/* columns rows colors chars-per-pixel */
"60 40 146 2 ",
"   c #460504",
".  c #5C1C05",
"X  c #6C0303",
"o  c #730503",
"O  c #7D0303",
"+  c #760D04",
"@  c #780C04",
"#  c #661206",
"$  c #6E1604",
"%  c #751004",
"&  c #542906",
"*  c #4A3505",
"=  c #543404",
"-  c #7F2C03",
";  c #783603",
":  c #743A03",
">  c #344E05",
",  c #235F06",
"<  c #285B04",
"1  c #275E08",
"2  c #1E6604",
"3  c #146009",
"4  c #0A7F04",
"5  c #157204",
"6  c #1F7D02",
"7  c #246106",
"8  c #246C07",
"9  c #296309",
"0  c #236E08",
"q  c #3F6504",
"w  c #3A6B03",
"e  c #2C7402",
"r  c #227B05",
"t  c #267408",
"y  c #247D09",
"u  c #3E7404",
"i  c #367D04",
"p  c #3C7A06",
"a  c #414005",
"s  c #435600",
"d  c #435C04",
"f  c #565203",
"g  c #5B5404",
"h  c #505E04",
"j  c #595B04",
"k  c #644702",
"l  c #6B4504",
"z  c #644C03",
"x  c #625002",
"c  c #685203",
"v  c #655E04",
"b  c #7B5D08",
"n  c #436305",
"m  c #4A6304",
"M  c #436906",
"N  c #496C04",
"B  c #45650E",
"V  c #5F6205",
"C  c #437506",
"Z  c #417807",
"A  c #616004",
"S  c #810303",
"D  c #950202",
"F  c #9A0202",
"G  c #9B0B03",
"H  c #8C1D02",
"J  c #941402",
"K  c #9D1203",
"L  c #931D03",
"P  c #A50101",
"I  c #AD0101",
"U  c #A40A02",
"Y  c #B30001",
"T  c #BA0003",
"R  c #BD1605",
"E  c #BD1805",
"W  c #AB1C1B",
"Q  c #882502",
"!  c #852B03",
"~  c #B41F26",
"^  c #A92B2A",
"/  c #B7242B",
"(  c #C20001",
")  c #C30E05",
"_  c #CE0902",
"`  c #D50402",
"'  c #DC0101",
"]  c #DC0905",
"[  c #C11405",
"{  c #C51906",
"}  c #C81A07",
"|  c #D41208",
" . c #E30202",
".. c #EB0404",
"X. c #E30B06",
"o. c #ED0804",
"O. c #F20304",
"+. c #FE0004",
"@. c #F30805",
"#. c #8F4606",
"$. c #8E4C06",
"%. c #904706",
"&. c #934E06",
"*. c #8D5107",
"=. c #8A5408",
"-. c #A74D4D",
";. c #AA5454",
":. c #BF5250",
">. c #C87A78",
",. c #0E8604",
"<. c #038C00",
"1. c #0D8904",
"2. c #118C05",
"3. c #029400",
"4. c #0B9503",
"5. c #039C01",
"6. c #0E9C04",
"7. c #1E9604",
"8. c #1A9D05",
"9. c #238305",
"0. c #2D8504",
"q. c #248E05",
"w. c #2C8805",
"e. c #3B8103",
"r. c #239506",
"t. c #2C9103",
"y. c #219D06",
"u. c #239F08",
"i. c #03A401",
"p. c #0DA204",
"a. c #02AB02",
"s. c #0EAD06",
"d. c #12A404",
"f. c #1FA207",
"g. c #12AA05",
"h. c #18A906",
"j. c #1FA108",
"k. c #02B502",
"l. c #0CB206",
"z. c #01BA02",
"x. c #20A107",
"c. c #20A208",
"v. c #00C302",
"b. c #DAC4C1",
"n. c #DED6D4",
"m. c #E4E0DE",
/* pixels */
"z.h.=.&.*.*.*.*.=.=.*.=.$.*.*.*.*.*.*.*.*.$.$.$.$.#.%.%.%.%.%.#.#.#.#.%.*.*.*.=.*.*.*.*.=.*.*.=.*.*.=.=.&.=.&.=.&.b k.z.",
"k.r...+.+.O.+.+.+.+.+.+.+.+.+.+.+.+.+.+.+.+.+.+.+.+.+.+.+.+.+.+.+.+.+.+.+.+.+.+.+.+.+.+.+.+.+.+.+.+.+.+.+.O.+.O.+.| g.z.",
"i.q.X.o.o.o.o.F o + % $ $ $ $ $ % # % + + + @ @ + + + % % % + % % % % % + % % + % % % % % % % % % % % X T @.X.X.o.} p.a.",
"i.q.X.O...o.@.S   # . & * a > < 2 5 ,.<.3.5.i.a.a.k.a.a.a.a.a.a.a.a.a.i.a.i.a.a.a.i.i.i.i.5.5.5.3.3.5.3 I O.X...O.} p.a.",
"3.y X.@.o.o.O.D X D D F F D P F F D J H - : z j N e.t.8.g.l.z.v.v.v.v.z.z.k.k.a.i.6.5.5.6.3.3.3.3.4.i.0 T @.X.X.O.} s.z.",
"<.r X...o.....D o F F F F D D D D F F P P P I Y Y Y Y I U K L ! ; z g h w e r 1.<.3.<.3.5.4.6.i.a.i.z.y T @...X...} s.z.",
"3.r X.@.o...O.D O P P P P P D F F F D D D D D D D F F P P I Y Y T T T T T Y T N a.i.a.a.k.k.z.k.z.k.v.y T O.X. ...} l.z.",
"<.6 ] ..o.....F o I P P I I P P P P P I P P P P P P P P F U F F F G F P Y Y ( C v.k.z.z.z.z.z.z.z.z.v.y T O.X.X...} l.k.",
"3.6 ] ........D O I P I I I I I I I I I I I I I I I I I I I I I I Y P P Y I T Z v.k.z.k.k.z.z.z.z.k.z.y T o.X. ...[ g.a.",
"i.q.X...X.....D O Y I I I I I I I I I I I I Y I I I I I I I I I I I P P Y I T C v.k.k.k.k.k.k.k.l.l.z.y T .. .X...[ s.k.",
"z.u.X.........D O Y I I Y Y I Y Y I I I I I I I I I I I I I I I I I I P I I T C z.k.k.k.k.k.k.k.z.k.v.y T .. . ...{ l.z.",
"z.c.] ........D S Y I I I Y I Y Y Y Y Y I Y I I I I I I I I Y I I I P P I I T p v.k.z.k.z.z.z.k.z.k.v.9.T ..' X...{ l.z.",
"z.c.X... . ...F S Y I I I I I I I Y Y Y Y Y Y Y Y I I I I I I I I I P I I I T Z v.k.z.z.z.k.z.z.z.k.v.y T .. .'  .{ l.z.",
"v.c.]  . . ...D O Y I I I Y I Y Y Y Y Y Y Y Y I I I Y I I I I I I I I P I I Y Z v.k.k.z.z.z.z.z.z.k.v.y T  .'  ...[ l.k.",
"z.x.]  . .X. .D S Y I I I I I I Y Y Y Y Y Y Y Y Y I I Y I I I I I I P P Y I Y Z v.k.z.k.z.z.z.z.z.z.v.y T  .' '  .{ 6.i.",
"v.f.]  . . . .F S I I I I Y I Y Y Y Y Y Y Y Y Y Y Y I Y I I I Y I I I I I I T C z.a.i.s.a.a.k.k.l.l.k.t Y .. .'  .[ 1.3.",
"z.c.]  . . . .F S Y I I I Y Y Y Y Y Y Y Y Y Y Y Y Y I I Y I I I I I P I I U T M i.4.i.i.i.i.i.i.5.4.5.7 T  .' '  .[ 1.3.",
"z.8.]  .'  . .D S Y P I Y Y I Y T Y Y T Y Y Y Y Y Y Y I I I I I I I P P I I Y n i.3.5.3.3.<.3.<.<.<.3., T  . .'  .[ 4.5.",
"a.q.`  .'  . .F S Y I I Y Y I Y Y Y Y Y Y Y Y Y I I Y I I Y I I I I P P W :.Y d 5.<.<.<.<.<.<.<.<.<.3., T  .'  ...[ 4.5.",
"i.q.]  .' '  .D S Y I I Y Y I Y Y Y T Y Y Y I Y Y I I I I I I I I I P F ;.n./ B 3.<.<.<.<.<.<.<.<.<.3.7 T ..' '  .[ 1.<.",
"z.y.] ' '  . .D S Y I Y Y Y P Y T Y Y Y Y Y Y I Y I I Y I I I I I P P F -.b.~ B <.<.<.<.<.<.<.<.<.<.<.7 T  .'  ...[ ,.<.",
"k.r.`  .' '  .D S Y I I Y Y I Y Y Y Y Y Y Y I I I Y P P I I I I P P U F ;.m.I s 3.<.<.<.<.<.<.<.<.<.3.7 T  .' '  .[ 1.3.",
"5.y ] ' '  . .D O Y I I Y Y I Y Y Y Y Y I Y I I I I I I I P P I I I I P ^ >.Y d 3.<.<.<.<.<.<.<.<.<.3., Y  .' '  .[ 1.<.",
"<.y `  .' '  .D S I I I I I Y Y Y Y Y T Y Y I Y I I I I Y I P I I I I Y I P Y d 5.<.<.<.<.<.<.<.<.<.3., T ' ' '  .R 1.3.",
"5.2.` ' ' '  .D S I I I I I I I I I I I P P P P P P P P P P P P P P P P I I Y n 5.3.3.<.<.<.<.<.<.<.5.7 Y  .' '  .R 6.i.",
"k.r.` ' ' '  .D S I I I I Y P P P P P P I I Y P I I I I P I I P I I P P I I Y M i.4.5.4.i.i.5.5.5.3.i.0 Y  .' '  .R s.z.",
"z.c.`  .' '  .D S I P I I Y P Y Y Y Y I I Y I I I I I I I Y I I I I P P I I Y p z.k.k.k.z.z.k.k.z.l.z.y Y  .' '  .R l.z.",
"z.c.` ' ' ' ' D O I I I I I I Y Y Y I Y I I I Y Y I I I I I I I I I P P I I Y p v.z.k.z.z.z.z.z.z.k.v.y Y ' ' `  .E l.z.",
"z.f.` ' ' ' ' F S I P I I I P Y Y Y I Y I I I I I I I I I I I I I I U P Y I Y Z v.k.z.z.z.z.z.l.z.k.v.y Y ' ' `  .R l.z.",
"v.f.` ' ' ` ' D S Y I Y I I I Y I I I I I Y I I Y I I I I I I I I I P P I I Y Z v.k.k.z.z.z.z.z.z.k.v.y T  .' '  .E l.z.",
"z.x.` ' ' `  .D S I P I I Y I I I I Y I Y I I I I I I I I I I I I I P P I I Y Z v.k.z.z.z.z.z.z.z.k.v.y Y  .` '  .R l.z.",
"v.x.` ' ' '  .D O Y I I I I P I Y Y I Y I Y I I I I I I I I Y I I I P P I I T Z v.k.z.z.z.z.k.z.z.z.v.y Y ' ' `  .R l.z.",
"z.x.` ' ' ' ' D S I I I I I P Y I Y I I Y I I I I I I I I I I I I I P P I I Y Z v.z.z.z.z.z.k.z.z.k.v.y Y  .' ` ' R l.z.",
"v.x.` ' ` ' ' F S I I I I I P I Y I I Y Y Y Y I I I I I I I I I I I P P I I Y p v.k.z.z.z.z.z.z.z.k.v.y Y ' ` ` ' R l.z.",
"z.8.` ' ` ' ' D S I P I I I I Y I I I I I I I I I I I I P U I P I I Y Y T T ( C v.k.k.z.z.z.k.k.k.s.z.t Y  .` ' ' R d.a.",
"k.r._ ' ' ' ' F O I I I I I I P I I I Y I I I I Y Y Y Y T T T Y I U L Q ; z g 8.z.z.k.l.a.a.i.5.5.5.5.9 Y ] ` ` ' R 2.3.",
"k.y.` ' ` ` ' F O I I I I I Y Y T T T T T T I P K L ! : g m p w.7.d.k.k.z.z.z.a.p.5.5.4.4.<.<.<.<.<.3.1 Y ' ` ` ' R ,.<.",
"z.8._ ` ` ` ' F S Y Y Y Y Y I K Q ! l g N i q.f.s.z.z.v.v.v.z.z.k.a.i.i.5.4.4.<.3.<.<.<.1.<.<.<.<.1.5.1 Y ' ` ` ' R 1.<.",
"z.x.'  .' ' ..F = z m C 0.r.d.l.z.v.v.v.v.v.v.z.z.z.k.a.a.a.p.a.a.i.i.i.i.5.5.5.5.3.3.3.4.4.6.5.5.5.a.t Y ..' '  .) ,.<.",
"z.g.A A v V v p v.v.v.v.v.v.v.z.z.k.k.k.k.z.z.z.k.k.k.a.k.a.k.k.k.k.z.k.k.k.k.k.k.a.k.a.a.a.k.k.k.z.z.a.m c x z k f <.<."
};
