/* XPM */
static char *c6a1e6894c3a4b268df56af16bf40cbaNvQ0GvTVwoDOZxxt[] = {
/* columns rows colors chars-per-pixel */
"38 40 201 2 ",
"   c None",
".  c black",
"X  c #010101",
"o  c #020202",
"O  c gray1",
"+  c #030304",
"@  c #040405",
"#  c gray2",
"$  c #0B0906",
"%  c gray3",
"&  c #080809",
"*  c #09090B",
"=  c #0B0B0B",
"-  c #0C0C0C",
";  c #0C0C0D",
":  c #0D0D0E",
">  c #110E0B",
",  c #0E0E10",
"<  c #131313",
"1  c #151515",
"2  c #181818",
"3  c #1A1A1B",
"4  c gray11",
"5  c #2A2418",
"6  c #202020",
"7  c #232324",
"8  c gray14",
"9  c #282828",
"0  c #282929",
"q  c #2B2A29",
"w  c gray17",
"e  c #2C2C2C",
"r  c #2C2C2D",
"t  c #2D2E2E",
"y  c #3A3424",
"u  c #3F3828",
"i  c #303031",
"p  c #313131",
"a  c #313232",
"s  c #343434",
"d  c #343536",
"f  c #363738",
"g  c #373939",
"h  c #393939",
"j  c #3D3E3E",
"k  c #413C31",
"l  c #4E4431",
"z  c #504531",
"x  c #584E38",
"c  c #062A4B",
"v  c #063358",
"b  c #09365B",
"n  c #063F6B",
"m  c #003E74",
"M  c #35454D",
"N  c #004379",
"B  c #1C4B72",
"V  c #30526E",
"C  c gray26",
"Z  c #444444",
"A  c #444545",
"S  c gray27",
"D  c #464646",
"F  c #4D4D4E",
"G  c #4D4E4E",
"H  c #515253",
"J  c #565758",
"K  c #5C5C5D",
"L  c #685E41",
"P  c #6D6042",
"I  c #7C6D4E",
"U  c #776E5F",
"Y  c #4B5F6C",
"T  c #54687B",
"R  c #6A6A66",
"E  c #777777",
"W  c #8C7E5C",
"Q  c #917E57",
"!  c #7E807E",
"~  c #9F885E",
"^  c #978760",
"/  c #8D8871",
"(  c #A98D64",
")  c #AB9267",
"_  c #A99569",
"`  c #B49B6B",
"'  c #AA9674",
"]  c #BAA171",
"[  c #C2A876",
"{  c #C6A67D",
"}  c #D2B27D",
"|  c #014980",
" . c #024C84",
".. c #014F89",
"X. c #00508E",
"o. c #2F608B",
"O. c #216194",
"+. c #4A6A86",
"@. c #536E83",
"#. c #577689",
"$. c #48749A",
"%. c #677D8C",
"&. c #4F7FA8",
"*. c #7B95AD",
"=. c #898887",
"-. c gray56",
";. c #91918F",
":. c #87919C",
">. c gray60",
",. c #9B9B9A",
"<. c gray61",
"1. c #9D9C9C",
"2. c #A39B90",
"3. c #ACA28C",
"4. c #B5A586",
"5. c #BEA681",
"6. c #BAA384",
"7. c #BCAD94",
"8. c #97A3AC",
"9. c #91A9BE",
"0. c #9BAAB9",
"q. c #A2A2A2",
"w. c gray66",
"e. c #A9A9A9",
"r. c #AAA9A9",
"t. c #AFAEAD",
"y. c #AEAEAE",
"u. c #BDB2A4",
"i. c #B6B2AB",
"p. c #A6B3BF",
"a. c #A9B3BC",
"s. c #B3B3B5",
"d. c #B9B7B7",
"f. c #B9B8B7",
"g. c #BDBCBB",
"h. c #BCBCBC",
"j. c #BFBFBE",
"k. c #D4B484",
"l. c #D9B682",
"z. c #DAB683",
"x. c #D0B58C",
"c. c #DEBC8C",
"v. c #DEBD8C",
"b. c #C7B090",
"n. c #C6B79D",
"m. c #D4BC99",
"M. c #E0B782",
"N. c #E0B985",
"B. c #E0BA86",
"V. c #E4BA86",
"C. c #E1BC86",
"Z. c #E4BD8A",
"A. c #C1BDB7",
"S. c #E6C187",
"D. c #E0C08E",
"F. c #EAC089",
"G. c #EBC189",
"H. c #EAC18B",
"J. c #EDC289",
"K. c #ECC38A",
"L. c #ECC589",
"P. c #EDC48D",
"I. c #EFC98F",
"U. c #F1C78A",
"Y. c #F3C88C",
"T. c #F6CA8D",
"R. c #F3CD8F",
"E. c #F9CD8F",
"W. c #EBC790",
"Q. c #ECC695",
"!. c #EECB9A",
"~. c #FCD090",
"^. c #FED192",
"/. c #FFD292",
"(. c #FFD493",
"). c #FED79F",
"_. c #FFD898",
"`. c #C5C1BB",
"'. c #E6CAA3",
"]. c #F3D5A6",
"[. c #FFDDAC",
"{. c #E2CFB6",
"}. c #E1D1BE",
"|. c #FEE0B8",
" X c #BFC4C8",
".X c gray76",
"XX c #C8C8C7",
"oX c #C5C7C9",
"OX c #C9CDCF",
"+X c #CDCCCC",
"@X c #CFCECE",
"#X c #D0D0D0",
"$X c #D2D2D2",
"%X c LightGray",
"&X c #DFDEDB",
"*X c #E9E2D0",
"=X c #FEEBD0",
"-X c #F1EFEC",
";X c #F3F5F7",
":X c #FFF9F0",
">X c white",
/* pixels */
"                                                                            ",
"                                                                            ",
"                                                                            ",
"                                                                            ",
"                            < 0 s g C                                       ",
"                  S   < * ; e h e 4 1 ;     7 7                             ",
"                t g @ . . . O . . . . . 1 a f                               ",
"              3 8 @ . . . . . . . ; 6 j S t                                 ",
"              ; . . . . . . . . e H J s 3                                   ",
"            ; @ . . . z Q I 5 @ G K J H S t 0                               ",
"            ; . . . k L._._.} 5 e K J G j 0 0 e                             ",
"            ; $ > . Q _.S.) R.~ > H J 9 1 ;                                 ",
"              y I > [ } x u ] S.5 j R J e                                   ",
"              z ] L _ W n.*X]./.P w ' U H G S 0                             ",
"                ^ S.I.n.-X>X=X(.` w ' k , e p 3                             ",
"                7.'.[.i.&X:X|.(.} k I O . ;                                 ",
"                  '._.[.[.)./.(.S.z / V v c                                 ",
"                  P./././././.(.L.x #.&.&.o.                                ",
"                  ( Y.(././._./.C.M  .X.#.v.Z.                              ",
"                    x.!.I.P.D.4.Y b X.X.%./.E.                              ",
"              z.k.  ;X-Xm.! B N m | X.X.@.L./.G.                            ",
"            G.E.E.P.{.}.Q.4.N N N X.X.N B 6.E./.G.                          ",
"            E./.E.E.Y.E.E.P.V m N  . .m N T G././.H.                        ",
"          z././.E.Y.~./._.I.%.N $.$.N N O.+.z.T./.E.                        ",
"          z././.E.T././.G.b.8.$.*.*.O.&.0.:.  G././.Z.                      ",
"            U.E.E.Y.C.6.u.XXoX0.p.p.9.p..Xs.5.Y././.Y.                      ",
"              N.M.{ 2.h.#X#X%XoX@XOXoX#X#X`.v.E./.^.E.                      ",
"                  1.oX%X#X@X.Xg.g..X#X%X#X#Xn.J.E.^.Y.                      ",
"                  y.%X%X%X+Xf.r.w.t..X#X%X%X@Xm.U.J.N.                      ",
"                  q.+X%X%X%X.X1.    w.@X%X#X#XA.                            ",
"                    h.%X#X%X#Xy.      f.@X#X#X#Xw.                          ",
"                    w.#X#X%X%XA.1.    ,.f.XX%X%Xt.                          ",
"                      g.#X`.+XA.1.      ;.=.,.,.K                           ",
"                      E ;.*.U G h         * = 0 G w                         ",
"                      S J 6 . . ;           + = G S w                       ",
"                    < e 8 @ O O =           @ @ 1 1 ;                       ",
"                    @ . . @ = ;             @ . @ . +                       ",
"                    = = ,                     ; = @ =                       ",
"                                                                            ",
"                                                                            "
};
