/* XPM */
static char *d11505f0d1d44eafc538cde1f76a5522PH7uTyWrEJkmZo8Z[] = {
/* columns rows colors chars-per-pixel */
"60 40 206 2 ",
"   c #2D263F",
".  c #3A2A2A",
"X  c #491F31",
"o  c #422E2C",
"O  c #4B2B2C",
"+  c #44312E",
"@  c #4B342D",
"#  c #473127",
"$  c #52392D",
"%  c #5D3C2B",
"&  c #5A3528",
"*  c #4C2333",
"=  c #482434",
"-  c #512437",
";  c #56263A",
":  c #59253B",
">  c #5C283E",
",  c #542F3D",
"<  c #453230",
"1  c #4C3639",
"2  c #53323D",
"3  c #543834",
"4  c #532E27",
"5  c #62372C",
"6  c #633E2C",
"7  c #643E23",
"8  c #793F29",
"9  c #64263A",
"0  c #6D273A",
"q  c #672839",
"w  c #78293A",
"e  c #732637",
"r  c #60393B",
"t  c #62412B",
"y  c #664C3B",
"u  c #72513C",
"i  c #2A284D",
"p  c #312544",
"a  c #2E2C55",
"s  c #2F2E5A",
"d  c #283458",
"f  c #363659",
"g  c #2D3F71",
"h  c #2C3768",
"j  c #5C2F42",
"k  c #443B46",
"l  c #5A3042",
"z  c #4C3B54",
"x  c #673F50",
"c  c #7A3E4C",
"v  c #324160",
"b  c #2C4379",
"n  c #5D5150",
"m  c #584947",
"M  c #685246",
"N  c #745845",
"B  c #634451",
"V  c #684B59",
"C  c #635654",
"Z  c #695856",
"A  c #74474D",
"S  c #6F6158",
"D  c #75615A",
"F  c #776456",
"G  c #7F634C",
"H  c #474965",
"J  c #5C596D",
"K  c #4B5575",
"L  c #6F5761",
"P  c #5D647B",
"I  c #65677B",
"U  c #7C6D74",
"Y  c #7B7270",
"T  c #786B63",
"R  c #922837",
"E  c #872739",
"W  c #A2212B",
"Q  c #BB232C",
"!  c #B62632",
"~  c #AE2734",
"^  c #CC252E",
"/  c #DD242E",
"(  c #D1232C",
")  c #C32C35",
"_  c #CB2932",
"`  c #C22530",
"'  c #DE2731",
"]  c #D32732",
"[  c #C33139",
"{  c #E02731",
"}  c #8F613F",
"|  c #973E49",
" . c #B93E45",
".. c #824350",
"X. c #9F5A5F",
"o. c #BF474D",
"O. c #AF4A50",
"+. c #B04F55",
"@. c #856957",
"#. c #987A5B",
"$. c #916949",
"%. c #A37851",
"&. c #AD5E62",
"*. c #B75B60",
"=. c #856F61",
"-. c #916769",
";. c #877566",
":. c #917A66",
">. c #826C75",
",. c #887775",
"<. c #BB6469",
"1. c #B67679",
"2. c #AB6367",
"3. c #C04A50",
"4. c #C15F64",
"5. c #9E876F",
"6. c #8B8178",
"7. c #A88A67",
"8. c #AF906A",
"9. c #B0916F",
"0. c #BC9B74",
"q. c #A89478",
"w. c #C8A575",
"e. c #D3AE7B",
"r. c #D9B37D",
"t. c #E2B97F",
"y. c #2D528A",
"u. c #2C5A95",
"i. c #315488",
"p. c #4B6E99",
"a. c #696E82",
"s. c #666C82",
"d. c #797D8A",
"f. c #767785",
"g. c #617D9E",
"h. c #7A7E91",
"j. c #4978A8",
"k. c #987F83",
"l. c #BF7D81",
"z. c #EA7E82",
"x. c #5C83AB",
"c. c #6888AB",
"v. c #94898B",
"b. c #988D92",
"n. c #999298",
"m. c #868996",
"M. c #B3878A",
"N. c #AA8E90",
"B. c #A29899",
"V. c #BA9597",
"C. c #A6A19B",
"Z. c #B7AA98",
"A. c #9A99A2",
"S. c #A69DA1",
"D. c #9AA7B6",
"F. c #ACA4A5",
"G. c #A9A8AD",
"H. c #B7A8A6",
"J. c #AAABB2",
"K. c #B1AEB2",
"L. c #B3B2B4",
"P. c #BBB7B5",
"I. c #B4B5B8",
"U. c #BEBABC",
"Y. c #B8B0AB",
"T. c #C49C9E",
"R. c #EC878B",
"E. c #CBAE87",
"W. c #C7B397",
"Q. c #DAB889",
"!. c #E5BC82",
"~. c #C09FA1",
"^. c #C9B7B6",
"/. c #D1BCBE",
"(. c #CAACA9",
"). c #F0A4A7",
"_. c #F6B8BA",
"`. c #EDC386",
"'. c #F0C687",
"]. c #C4C1BE",
"[. c #98ACC3",
"{. c #B7BCC3",
"}. c #C3BDC0",
"|. c #BFC0C2",
" X c #C4C3C4",
".X c #C8C6C7",
"XX c #CDCCCC",
"oX c gray79",
"OX c #D2CCCC",
"+X c #D4CAC6",
"@X c #CFD1D4",
"#X c #D4D3D4",
"$X c #D8D7D7",
"%X c #DCDCDC",
"&X c #D6D7D8",
"*X c #FAD4D5",
"=X c #D8DEE5",
"-X c #DEE0E0",
";X c #E5E5E5",
":X c #EAE7E6",
">X c #E6E8E7",
",X c #E7E9E9",
"<X c #EAEAEA",
"1X c #E9E8E8",
"2X c #F6F3F3",
"3X c #F3E7E7",
/* pixels */
"2X%X<X%X<X;X<X;X3X;X<X;X<X-X<X-X<X;X<X;X<X;X<X;X<X-X<X1X<X;X<X;X<X;X<X;X1X,X1X,X1X;X1X,X:X,X;X<X;X,X;X,X:X<X;X<X;X<X;X<X",
";X<X;X<X;X<X;X<X-X<X;X<X;X<X;X<X;X<X;X<X;X<X;X<X;X<X1X<X;X<X;X1X;X1X;X1X;X1X;X1X;X1X1X;X,X;X,X;X,X;X,X;X:X;X,X;X<X;X,X;X",
"<X;X<X;X<X;X<X;X<X;X:X;X<X;X<X;X1X;X<X;X:X;X,X,X<X;X<X3X<X;X<X;X1X;X1X;X1X,X1X;X1X;X;X1X,X;X,X;X:X,X;X,X;X,X;X,X;X:X,X3X",
";X<X;X,X;X<X;X<X;X<X;X<X;X<X;X<X;X1X;X,X;X<X;X%X^.(.H.}.=X<X;X1X;X:X;X,X;X1X;X1X;X,X1X;X:X,X;X:X;X;X,X:X,X:X,X;X,X;X,X=X",
"<X;X,X;X;X;X<X;X<X;X<X;X<X;X:X;X1X;X1X;X<X@XM.3.) ] ] ] &.H.1X1X,X;X:X,X1X;X1X;X<X;X;X,X;X1X;X,X:X,X:X,X;X,X;X:X:X,X;X<X",
";X1X;X<X;X,X;X;X;X:X;X,X;X:X;X:X;X,X;X<X&X&.^ { { { { o.(.}.}.;X,X<X1X<X,X1X;X,X<X;X,X:X<X;X,X;X;X,X;X;X,X:X,X;X,X;X,X;X",
"1X;X<X;X<X;X<X;X,X;X,X;X,X,X,X;X;X;X1X,XV.^ { ' ' { [ }.*X_.(.}.;XH.~.OX;X1X,X;X;X:X,X;X;X;X,X:X,X:X,X;X,X;X;X,X;X,X;X,X",
";X1X;X1X;X1X;X1X;X:X;X,X;X,X;X,X;X1X1XOX .{ ' ' ' ' *.2Xz.).)./.<.^ ! c k.#X1X;X,X;X;X,X:X,X;X,X;X,X;X,X:X;X,X:X;X:X:X;X",
";X;X1X1X1X;X1X1X;X1X;X1X,X,X;X,X;X;X1XM.^ ' ' ' ' / l.2Xz.2X:X4.` R j : X U ;X;X<X;X;X<X,X;X,X;X,X,X;X,X:X;X,X:X;X,X:X;X",
"<X;X1X;X1X1X1X;X1X;X,X;X,X;X,X;X1X;X;X2./ ' ' ' ' / 4.3X_.3X<.` w : ; - j S.,X,X;X<X;X;X;X1X;X1X;X:X,X;X,X;X;X,X;X,X;X,X",
";X1X;X1X;X1X;X1X;X,X;X,X;X,X;X,X;X1X%XO./ ' ' ' ' ' ) }.2X1.! 0 - - : , b.;X1X1X;X<X<X;X,X;X;X1X:X:X;X;X,X:X:X;X,X:X,X;X",
"<X;X,X;X<X;X1X;X<X;X,X;X<X;X<X;X<X;X-X+./ ' ' ' ' ' ' o.1.~ 0 l 3 ; B C.;X1X1X;X;X;X;X,X;X,X1X,X,X,X;X,X;X,X:X,X;X,X;X<X",
";X,X;X<X;X1X;X1X;X<X;X<X;X1X;X;X;X1X-XX./ ' ' ' { / / Q W 0 , C F G F.<X;X,X;X,X;X<X;X;X;X1X;X;X;X;X,X;X,X;X,X;X,X;X,X;X",
"<X;X<X;X<X;X<X;X<X;X<X;X<X;X<X;X<X;X<Xk.Q ' ' ' ' / ( W e l C =.0.t.W.%X1X,X<X;X<X;X;X<X1X,X,X1X;X,X;X,X;X,X,X:X;X,X;X<X",
"-X<X;X<X-X<X;X<X;X1X;X<X;X<X;X,X;X<X>XK.e ] ' ' ' ' W e , S :.H.C.6.e.Z.(.^.%X;X;X<X;X<X1X;X;X1X,X;X,X:X:X;X:X;X,X;X<X;X",
"<X;X<X;X<X;X<X;X<X;X<X-X,X;X1X;X1X;X<X#XV E _ ' ' Q 0 2 D 0.E.2XD.d 7.r.`.r.W.-X;X;X<X;X,X;X1X,X;X,X;X:X,X,X;X,X;X:X;X<X",
"-X<X-X<X;X<X-X<X;X<X-X<X;X<X;X<X;X<X;X;XU * 0 E R 9 , D 0.`.E.:X=X,.t.'.`.'.e.XX<X1X1X;X;X,X1X;X<X;X;X;X,X;X1X;X1X;X1X;X",
"3X;X<X;X<X;X<X;X<X;X<X;X,X;X<X;X<X;XXX>.> - > j - = Z 0.'.'.!.W.+XQ.'.'.`.`.w.].<X;X;X1X1X,X;X1X;X<X;X<X;X,X;X<X;X1X;X<X",
";X<X;X1X;X<X;X1X;X:X;X,X;X,X;X<X:X XV : > > : : X 4 $.`.!.w.`.`.w.w.!.!.e.7.6.-X;X<X<X;X1X;X1X;X<X;X1X;X1X;X<X;X1X;X<X;X",
"<X;X<X;X1X;X<X;X<X;X,X;X,X;X<X;XOXV : : > > 9 : O 8 $.`.r.y $.%.$.N :.=.Z Y OX<X<X;X<X;X;X1X;X1X,X;X;X<X;X1X;X1X;X1X;X<X",
";X<X;X<X;X1X;X1X;X<X;X<X;X<X;X<Xv.: : j : > : x 3 5 u r.!.y O 6 8 8 6 6 % P.<X,X;X;X;X1X1X;X1X;X;X;X<X;X1X;X1X;X,X;X1X;X",
"<X;X<X;X:X;X<X;X1X;X,X;X;X;X<X;X>.: : j > : $.7.#.@.%.`.`.w.@.y @ 3 & 5 C @X<X;X;X<X1X;X1X1X;X1X1X;X;X<X;X1X;X<X,X,X;X1X",
";X<X;X,X;X:X;X:X;X:X;X,X;X<X;X<XB.j j : > : -.7.8.r.`.`.`.'.'.w.N 1 n Z v.@XXX#X;X;X;X<X1X1X1X;X;X;X;X<X1X;X1X;X1X;X1X;X",
",X;X,X;X,X,X,X;X,X;X,X,X<X;X,X<X%X,.: : : : r 8.r.q.5.9.0.0.8.:.S v.=X X-X;X2XJ.@X1X1X;X;X1X;X1X<X,X:X;X;X1X;X,X,X;X,X1X",
";X,X,X;X1X,X;X1X1X;X,X;X1X;X;X;X1X-XS.L B B L ;.-.-.A k m k f * 0 1.V.N.V.^.}.h.}.:X,X;X:X,X;X:X;X,X;X,X;X;X,X;X;X1X,X;X",
";X1X;X,X;X1X;X1X;X;X;X,X;X<X;X<X;X<X:X-X.XP.F...q : > z u.g   e ~ ! ` ! ! O.I a.@X,X;X,X,X;X,X,X,X;X,X;X:X,X:X,X,X;X1X;X",
"1X;X1X;X1X;X1X;X1X;X1X;X<X;X<X;X1X;X1XXX.X Xm.J V b.}.U.j.y.p - : 9 0 0 9 B d.I.<X,X,X;X;X,X:X;X:X;X<X,X;X,X;X<X;X<X;X;X",
";X1X;X<X;X1X;X<X;X,X;X1X;X<X;X;X;X<X&XJ.J.d.I I n.<X,X>Xx.y.a p p s K b.G.&X;X1X,X:X:X;X,X;X,X;X;X,X:X;X,X;X,X;X1X;X1X;X",
"<X;X<X;X<X;X<X;X1X;X<X;X1X;X,X;X<X;X%XL.k.f.I I  X;X<X#Xp.g a a s h c.;X<X,X:X;X,X:X;X;X,X;X:X,X;X,X:X,X:X,X;X,X;X<X;X,X",
"-X<X;X<X;X<X;X<X;X<X;X<X;X<X;X<X;X<X%XG.c.I P c.#X<X1XD.y.a s a s s G.1X:X,X:X,X;X,X:X,X;X,X,X;X,X;X:X;X:X;X,X;X1X;X<X;X",
"<X;X<X;X<X;X<X-X<X;X1X;X<X;X<X;X<X;X<X&XG.d.a.I.<X1X@Xp.h a a a i H &X,X,X;X,X;X,X;X,X;X,X:X:X,X;X,X;X,X;X:X;X,X;X1X;X<X",
";X<X-X<X;X<X;X<X;X<X-X<X;X1X;X<X;X<X;X<X;X%X.X;X;X@Xg.b a z H f i u.[.<X:X,X,X,X:X,X;X,X;X,X;X;X,X:X,X;X,X:X,X;X<X;X1X;X",
"<X;X<X;X<X;X<X;X<X;X<X-X<X;X<X;X<X;X<X;X<X;X<X-X{.p.v a H K.%XL.f b j.XX1X#XXXXX-X1X>X1X>X1X;X1X;X1X;X1X;X,X;X<X;X<X;X<X",
";X<X-X<X-X<X;X<X-X<X;X<X;X<X;X<X;X<X;X<X;X#XB.T i.b a H L.<X;X<XA.f u.x.v.N u u F ].1X;X1X>X1X>X<X;X<X;X<X;X<X;X;X;X1X;X",
"<X;X<X;X<X;X<X;X<X;X<X;X1X;X<X;X<X;X<X;X#XF 7 @   a I }.<X;X1X>X;Xf.h h $ $ $ t t ;.1X1X1X;X;X1X;X,X;X,X;X,X;X<X;X<X;X<X",
"-X<X;X<X;X<X;X<X;X<X;X<X;X<X;X1X;X<X;X<XC.t $ + . k oX<X;X<X;X1X;X#XJ . < < + + M Y.;X1X;X1X;X1X,X;X1X;X1X;X1X;X<X;X;X;X",
"3X;X<X;X<X;X<X-X<X;X<X;X1X-X<X;X<X;X<X;XP.t @ + # $ 6.%X1X;X<X;X;X<XG.+ < < o C .X1X1X;X1X;X1X>X;X,X1X,X1X,X;X,X;X<X;X<X",
";X<X;X<X;X1X;X<X;X<X;X<X;X:X;X<X;X1X;X<XXXy $ < # $ t C.>X>X;X1X;X,X&XC o o C .X,X1X;X1X;X1X;X1X1X;X,X;X1X;X1X;X;X;X;X;X",
"<X;X,X;X,X;X1X;X:X-X<X;X<X;X<X;X>X;X<X>X;X=.5 @ + + # ,.1X>X1X;X,X;X<XP.n Y XX<X1X;X1X1X1X;X1X;X,X1X1X1X;X1X;X1X;X<X;X,X",
";X,X;X1X;X1X;X<X;X<X;X<X-X<X;X<X;X<X;X,X;X X;.B m m C L.>X1X>X1X;X<X;X,X$X;X1X;X;X1X;X1X1X1X;X<X;X;X1X;X,X;X1X;X<X;X<X;X"
};
