/* XPM */
static char *_9bf626a32074df59e57f5108b72d840YIv9OKBUElIfbDti[] = {
/* columns rows colors chars-per-pixel */
"60 40 256 2 ",
"   c gray95",
".  c #F2F4F5",
"X  c #EFEFF0",
"o  c #F4F6F6",
"O  c #F6F6F7",
"+  c gray94",
"@  c gray97",
"#  c #F3F3F3",
"$  c #F1F1F1",
"%  c #F4F4F4",
"&  c #1745CE",
"*  c #1139B3",
"=  c #0D216C",
"-  c #071F77",
";  c #F6F6F3",
":  c #204FE4",
">  c #F3EFEE",
",  c #FBFDFE",
"<  c #1642C7",
"1  c #F6F8F9",
"2  c #0E2F9C",
"3  c #EBECEE",
"4  c #F1F2F4",
"5  c #EF0602",
"6  c #FF0700",
"7  c #F80500",
"8  c #071A61",
"9  c #133EBF",
"0  c #0B2992",
"q  c #7A3A18",
"w  c #082384",
"e  c #1A48D3",
"r  c #E8E8EB",
"t  c #F3D1D0",
"y  c #7F797B",
"u  c #E6E4E8",
"i  c #ECE4E3",
"p  c #BFBBBF",
"a  c #1137AC",
"s  c #1134A6",
"d  c #D9DBE4",
"f  c #F4EBE8",
"g  c #EFF5FD",
"h  c #123CB9",
"j  c #632E14",
"k  c #ECF0F6",
"l  c #B6B3B7",
"z  c #CBCFE0",
"x  c #713417",
"c  c #A2A0A4",
"v  c #F48F8E",
"b  c #B67456",
"n  c #472E36",
"m  c #E70401",
"M  c #928F92",
"N  c #AF6242",
"B  c #8F563F",
"V  c #DF8E69",
"C  c #D2815C",
"Z  c #DD8962",
"A  c gray96",
"S  c #E1DEDD",
"D  c #132674",
"F  c #F3F4F4",
"G  c #1E4DDD",
"H  c #F6F9FD",
"J  c #934E30",
"K  c #DAC0B6",
"L  c #F3F1F1",
"P  c #283B79",
"I  c #D80201",
"U  c #FB4A46",
"Y  c #C70402",
"T  c #CECBCC",
"R  c #526393",
"E  c #F6120C",
"W  c #F4DEDD",
"Q  c #AD0603",
"!  c #F32623",
"~  c #8E0300",
"^  c #663F35",
"/  c #E10200",
"(  c #930B07",
")  c #B26C50",
"_  c #B70402",
"`  c #FCAC84",
"'  c #B57A67",
"]  c #EA9166",
"[  c #0E2886",
"{  c #2959EE",
"}  c #F4F3F3",
"|  c #BFB1AC",
" . c #CED6F0",
".. c #BDC0CC",
"X. c #F3D9CC",
"o. c #7C95EB",
"O. c #F7A4A4",
"+. c #E4E2E3",
"@. c #9AA1C3",
"#. c #9E9A9E",
"$. c #AEB1C1",
"%. c #F4E4DF",
"&. c #DECAC5",
"*. c #ABA8A9",
"=. c #CF443B",
"-. c #C0A9AA",
";. c #BB1411",
":. c #EED8D5",
">. c #2E3E8F",
",. c #868286",
"<. c #DF4544",
"1. c #2F45BF",
"2. c #9E563B",
"3. c #700A07",
"4. c #D68D6B",
"5. c #E3BA9D",
"6. c #7A3928",
"7. c #F9C3A6",
"8. c #734D48",
"9. c #B6A198",
"0. c #462823",
"q. c #581F14",
"w. c #A81517",
"e. c #6E2565",
"r. c #B82D1A",
"t. c #E11415",
"y. c #BF142A",
"u. c #FFCFA3",
"i. c #766A6D",
"p. c #841816",
"a. c #572E22",
"s. c #FFB886",
"d. c #F19E76",
"f. c #DF9A72",
"g. c #C47853",
"h. c #223272",
"j. c #7E87AD",
"k. c #7E5C52",
"l. c #4455A2",
"z. c #BB663D",
"x. c #152E8B",
"c. c #6B361D",
"v. c #183498",
"b. c #6A3317",
"n. c #48334D",
"m. c #E44C4A",
"M. c #9FB1ED",
"N. c #EBE8E6",
"B. c #F3AFAE",
"V. c #607AD4",
"C. c #554859",
"Z. c #986A61",
"A. c #5473E1",
"S. c #E1E7F5",
"D. c #1D4ADA",
"F. c #FC3128",
"G. c #FA6764",
"H. c #D8D3D5",
"J. c #323BAA",
"K. c #2040AF",
"L. c #9B989A",
"P. c #84401E",
"I. c #4F4E8A",
"U. c #78432D",
"Y. c #BF6248",
"T. c #7C4733",
"R. c #502010",
"E. c #FDE3C2",
"W. c #CB714C",
"Q. c #E7B3B3",
"!. c #F08383",
"~. c #5E70A7",
"^. c #8D1716",
"/. c #CF0302",
"(. c #EF706F",
"). c #B7655E",
"_. c #C91C1A",
"`. c #5F3830",
"'. c #5D6072",
"]. c #AA9285",
"[. c #754432",
"{. c #952518",
"}. c #D60D1A",
"|. c #C69990",
" X c #FAA675",
".X c #D29F95",
"XX c #A92619",
"oX c #460D06",
"OX c #2D54CB",
"+X c #C26F53",
"@X c #878FB1",
"#X c #BAC7F3",
"$X c #FA8C8C",
"%X c #C58866",
"&X c #D7AC9B",
"*X c #6584ED",
"=X c #C1876B",
"-X c #F02120",
";X c #804F45",
":X c #CCB8B2",
">X c #975C3F",
",X c #B98F7C",
"<X c #9A6248",
"1X c #E62C2C",
"2X c #1540C2",
"3X c #3C60DC",
"4X c #393B7A",
"5X c #A2AEDA",
"6X c #9091AF",
"7X c #F0F3F6",
"8X c #9E827B",
"9X c #91807F",
"0X c #FD231D",
"qX c #233CB3",
"wX c #F1BDBD",
"eX c #9C0401",
"rX c #E59B93",
"tX c #757176",
"yX c #F88E8B",
"uX c #D88787",
"iX c #FA7F7D",
"pX c #E0745A",
"aX c #D47876",
"sX c #A72D28",
"dX c #892342",
"fX c #E39596",
"gX c #F74530",
"hX c #FDD6B1",
"jX c #D85F5E",
"kX c #D23330",
"lX c #702928",
"zX c #FBD2AD",
"xX c #A24931",
"cX c #B49368",
"vX c #375AD6",
"bX c #932768",
"nX c #3E5294",
"mX c #E4C612",
"MX c #FBF5ED",
"NX c #4C4EC4",
"BX c #9E634F",
"VX c #FEC193",
"CX c #2F1F20",
"ZX c #332122",
"AX c #391C15",
"SX c #EAB38A",
"DX c #728798",
"FX c #F4B19B",
"GX c #951737",
"HX c #254BD6",
"JX c #A03532",
"KX c #7E678C",
"LX c #C0BD52",
"PX c #FAF2F5",
"IX c #F2F4F0",
"UX c #F2EFF6",
/* pixels */
"@ X O + A + A + A + A + % $ % $ % $ #   #   # #   #   % $ % $ % $ O 4 o + A + A + A X O X O X O + A + A + A + A + % $ O ",
"+ % $ % $ % $ % $ % $ % $ #   #   #   #   # #   #   #   #   . 4 f t t W %   % $ % $ % $ % $ % $ % $ % $ % $ % $ % $ # $ ",
"% $ % $ #   #   #   #   #   #   #   #   #   # #   #   # # % :.v U 0XF.G.B.>   #   % $ % $ % $ % $ #   #   #   #   #   % ",
"  #   #   #   #   #   #   #   #   #   #   # #   #   # # > O.U E 7 E v v !.wX    #   #   #   #   #   #   #   #   #   #   ",
"  #   #   #   #   #   #   #   #   #   #   # #   #   F f $X! 5 5 7 ! fX(.!.v W F #   #   #   #   #   #   #   #   #   #   ",
"% $ % $ % $ % $ #   #   #   #   #   #   #   # #   # > v -Xm / m 5 5 jXQ.t (.O.1 F % $ % $ % $ % $ % $ % $ #   #   #   % ",
"+ % $ % $ % $ % $ % $ % $ #   #   #   #   # #   # F B.1XI I I / m E ! <.<.kX=.aXQ.> % $ % $ % $ % $ % $ % $ % $ % $ % $ ",
"A $ % $ % $ % $ % $ % $ % $ %   #   #   #     # $ t m.Y Y Y /.t.t.;.XXXX{.p.^.( sX:.4 % $ % $ % $ % $ % $ % $ % $ % $ % ",
"+ % $ % $ % $ % $ % $ % $ %   #   #   #   # # > O.m.;.Q Q _ _.r.q.AXa.N N a.3.( ).i A $ % $ % $ % $ % $ % $ % $ % $ % $ ",
"A $ % $ % $ % $ % $ % $ #   #   #   #   #   F :.<.;.eX~ ~ {.xX2.B ' ' f.f.' )..Xi A $ % $ % $ % $ % $ % $ % $ % $ #   % ",
"$ #   #   #   #   #   #   #   #   #   #   # F W =.Q ( 3.oXU.+X] |.~.p VX5.$.%.. A   #   #   #   #   #   #   #   #   #   ",
"#   #   #   #   #   #   #   #   #   #   #   # L rXpXY.q.R.6.Z s.9.P @.7.SX.XzXE.f #   #   #   #   #   #   #   #   #   # ",
"#   #   #   #   #   #   #   #   #   #   #   # # 7.] W.J q.x V s.].R -.f.4.` u.u.E.%   #   #   #   #   #   #   #   #   # ",
"$ % $ % $ % $ % $ %   #   #   #   #   #   # # # 7. XW.N 6.2.` d.^ n 8.[.) V ` s.hX$ % $ % $ % $ % $ % $ % $ %   #   # $ ",
"A $ % $ % $ % $ % $ % $ % $ #   #   #   # # . # X.` V ) b V d.V B 0.ZXCX`.) C 4.:.A X A $ % $ % $ % $ % $ % $ % $ % $ % ",
"+ % $ % $ % $ % $ % $ % $ % $ #   # # . 7X%.yXG.U F.gX=.Y.C C Z Z C T.a.AX0.^ 9.r u H.r 1 $ % $ % $ % $ % $ % $ % $ % $ ",
"A $ % $ % $ % $ % $ % $ % $ #   O o , , k u iX6 6 6 6 6 E r.N g.C ] ] Z g.g.5.T *.+.p ..u O $ % $ % $ % $ % $ % $ % $ % ",
"+ % $ % $ % $ % $ % $ #   # # , H H H , , o i U 7 5 5 7 6 5 w.8.BXb Z d. Xu.MXp i.L.,.c T 4 @ $ % $ % $ % $ % $ #   # $ ",
"%   #   #   #   #   #   #   k g g g g g , , 3 uX_.w._ /.m 7 7 e.>.6.B +XFXW &.M i.,.C.y l u O #   #   #   #   #   #   # ",
"#   #   #   #   #   #   # # d .. .S.k g 1 O +.H.:.-.^.~ _ / 6 y.HXe.p.w.! JXp.i.M M tX'.M l r #   #   #   #   #   #   # ",
"$ #   #   #   #   #   #   % S #.c $.d r u +.3 4 @ z dXY I m 7 t.1.NXy.GX/ _ ( lX#.M y y L.T $   #   #   #   #   #   #   ",
"A $ % $ % $ % $ % $ %   #   $ l ,.y l T c p r # ; M.J.e.y.}.}.bXR LXKXI.r.Q ~ 3.Z.c *.S 3 A $ % $ % $ % $ % $ %   #   % ",
"+ % $ % $ % $ % $ % $ % $ %   X *.y #.p c p + # k o.h * qXJ.1.D.'.mXDXOXcX' |.K i r #   A $ % $ % $ % $ % $ % $ % $ % $ ",
"A $ % $ % $ % $ % $ % $ % $ %   X H.| 9Xy l 4 ;  .3X* * h < & e K.nXOXvXz 1 . @   A $ % $ % $ % $ % $ % $ % $ % $ % $ % ",
"+ % $ % $ % $ % $ % $ % $ %   # # i 8X^ n >.5X4 M.< s * h h < & & & & A.S.  % $ % $ % $ % $ % $ % $ % $ % $ % $ % $ % $ ",
"% $ % $ % $ % $ % $ #   #   #   % 9.U.n D w s V.A.a 2 s * * 9 < & & < V.3 % $ % $ % $ % $ % $ % $ % $ % $ % $ #   #   % ",
"  #   #   #   #   #   #   # # L K <X6.P - w 0 2 1.2 0 s * 9 < e G : G o.k # #   #   #   #   #   #   #   #   #   #   #   ",
"  #   #   #   #   #   #   #   K >Xq n.0 - - w w v.x.w 2 * 9 & e G : : { o.X #   # # #   #   #   #   #   #   #   #   #   ",
"%   #   #   #   #   #   # # &.B q q n.- = = - - = D D - 0 s * 9 < e : { { #X; A > > # %   #   #   #   #   #   #   #   # ",
"+ % $ % $ % $ % $ % $ %   o | c.x q n = = 8 8 8 8 8 8 = = - [ 2 a 9 e : : *X .:X=X4.5.f A $ % $ % $ % $ % $ % $ %   # $ ",
"A $ % $ % $ % $ % $ % $ % # S k.j b.k.$...@XR P h.P I.j.@.R h.= [ a < D.: : l.;X2.z.z.&X$ % $ % $ % $ % $ % $ % $ % $ % ",
"+ % $ % $ % $ % $ % $ % $ %   S -.| +.@ ; A 3 d z d 3 } @ 3 z j.[ 2 h & G e C.T.J ) N b > $ % $ % $ % $ % $ % $ % $ % $ ",
"A $ % $ % $ % $ % $ % $ %   # # O A %   #   # % % % # #   % A r l.0 a 2X& K.^ q P.J J %Xf A $ % $ % $ % $ % $ % $ % $ % ",
"$ % $ % $ % $ #   #   #   #   #   #   #   # #   #   #   #   # % @.x.0 a 9 4Xc.x x q b X.% $ % $ % $ % $ #   #   #   # $ ",
"#   #   #   #   #   #   #   #   #   #   #   # #   #   #   #   } 3 ~.w 2 v.`.b.j x b X.%   #   #   #   #   #   #   #   # ",
"#   #   #   #   #   #   #   #   #   #   #   # #   #   #   #   # % z >.D n j j U.,X%.F #   #   #   #   #   #   #   #   # ",
"$ % $ % $ #   #   #   #   #   #   #   #   # #   #   #   #   #   # 4 6X0.R.j B K } # % $ % $ % $ % $ #   #   #   #   # $ ",
"A $ % $ % $ % $ % $ % $ %   #   #   #   #   # #   #   #   #   # $ % N.].8.Z.&.A $ % $ % $ % $ % $ % $ % $ % $ % $ %   % ",
"+ % $ % $ % $ % $ % $ % $ % $ #   #   #   # #   #   #   #   % $ % $ A   i N.o $ % $ % $ % $ % $ % $ % $ % $ % $ % $ % $ ",
"@ X O X A + A + A + A + A $ % $ % $ #   #   # #   #   % $ % $ % + A + A $ O + A + O X O X O X O X A + A + A + A + A $ O "
};
