/* XPM */
static char *result[] = {
/* columns rows colors chars-per-pixel */
"60 40 256 2 ",
"   c #00BA00",
".  c #D2D2D2",
"X  c #008D00",
"o  c #009700",
"O  c #008C00",
"+  c #010101",
"@  c #009B00",
"#  c #00B800",
"$  c black",
"%  c #00B900",
"&  c #00B200",
"*  c #00B400",
"=  c #009200",
"-  c #00A100",
";  c #009400",
":  c #00BB00",
">  c #00AD00",
",  c #009300",
"<  c #009800",
"1  c #00A800",
"2  c #00AB00",
"3  c #FFD291",
"4  c #00B500",
"5  c #009E00",
"6  c #008F00",
"7  c #00A400",
"8  c #00AF00",
"9  c gray82",
"0  c #FDD191",
"q  c #00B700",
"w  c #FFD695",
"e  c #D7D7D7",
"r  c #00518F",
"t  c #060706",
"y  c #FDD390",
"u  c #FBD190",
"i  c #D3D4D6",
"p  c #00A500",
"a  c gray1",
"s  c #404241",
"d  c #00AE00",
"f  c gray83",
"g  c #00C600",
"h  c #FFD08C",
"j  c #FFDA93",
"k  c #D0D0D0",
"l  c #00BE00",
"z  c #F4C98B",
"x  c #FACE8E",
"c  c #F1C68A",
"v  c #00B100",
"b  c #C9C9C8",
"n  c #09030A",
"m  c #626363",
"M  c #130F11",
"N  c #0A0E08",
"B  c #037301",
"V  c #5A5B5C",
"C  c #2F3131",
"Z  c #00C300",
"A  c #DBDADA",
"S  c #0C1F0E",
"D  c #0B330A",
"F  c #F7CA8E",
"G  c #013666",
"H  c #FFD299",
"J  c #003B6C",
"K  c #004D8C",
"L  c #202123",
"P  c #00BF00",
"I  c #FFD492",
"U  c #CECECE",
"Y  c #0A6D08",
"T  c #008700",
"R  c #545556",
"E  c #5D5E5F",
"W  c white",
"Q  c #FFCB95",
"!  c #C4C3C4",
"~  c #014C85",
"^  c #014479",
"/  c #F1C18A",
"(  c #B5B5B3",
")  c #0A4A09",
"_  c #272428",
"`  c #066306",
"'  c #3B383E",
"]  c #C0B6BE",
"[  c #099C0A",
"{  c #217421",
"}  c #068404",
"|  c #CDB67E",
" . c #BAB9B9",
".. c #B9AEB7",
"X. c #FFD395",
"o. c #A7AAAA",
"O. c #BBA581",
"+. c #191A18",
"@. c #DCBA85",
"#. c #C8A978",
"$. c #FFDF9A",
"%. c #FFE8A0",
"&. c #00A901",
"*. c #00C100",
"=. c #989B9B",
"-. c #6B6B69",
";. c #003E77",
":. c #7F8D7C",
">. c #145512",
",. c #FDDAA8",
"<. c #484549",
"1. c #8EA7BC",
"2. c #0E8A0C",
"3. c #FCD79A",
"4. c #353737",
"5. c #067E06",
"6. c #B09F6E",
"7. c #413742",
"8. c #4D4F4E",
"9. c #183618",
"0. c #065803",
"q. c #7C6D4D",
"w. c #166B13",
"e. c #FFE39D",
"r. c #FFC694",
"t. c #09A509",
"y. c #82AE50",
"u. c #0B9308",
"i. c #8D9289",
"p. c #FFD095",
"a. c #9AA85E",
"s. c #C6BD73",
"d. c #00B300",
"f. c #BFC0BC",
"g. c #78A14B",
"h. c #1A101A",
"j. c #6AA241",
"k. c #A6A663",
"l. c #589935",
"z. c #E5BE86",
"x. c #1A4C1A",
"c. c #92A2AF",
"v. c #518D51",
"b. c #2B1F2B",
"n. c #517C9F",
"m. c #004282",
"M. c #CEB78C",
"N. c #362837",
"B. c #5B8DB2",
"V. c #C1B378",
"C. c #2B422B",
"Z. c #BFA471",
"A. c #2A5229",
"S. c #4F4850",
"D. c #00091C",
"F. c #FBECCF",
"G. c #F2CE90",
"H. c #8A9F57",
"J. c #1F8D1E",
"K. c #126312",
"L. c #20A321",
"P. c #B6B36B",
"I. c #0E770C",
"U. c #9A8F97",
"Y. c #5F955F",
"T. c #30A331",
"R. c #06AE06",
"E. c #A6B6C4",
"W. c #ADA875",
"Q. c #489241",
"!. c #20B111",
"~. c #F7F6F4",
"^. c #898789",
"/. c #2B6C9C",
"(. c #B9C1C9",
"). c #95895E",
"_. c #E0DEE0",
"`. c #B6BBC3",
"'. c #002D63",
"]. c #329929",
"[. c #B3AB9B",
"{. c #AAAFB4",
"}. c #5E7A85",
"|. c #243624",
" X c #015596",
".X c #9F967C",
"XX c #262217",
"oX c #F9E3BF",
"OX c #83744F",
"+X c #433824",
"@X c #78705E",
"#X c #786748",
"$X c #6D6042",
"%X c #8B9E8A",
"&X c #58B440",
"*X c #9BB260",
"=X c #113D10",
"-X c #4F984F",
";X c #A5B564",
":X c #AFA5A9",
">X c #26A219",
",X c #959393",
"<X c #2EAC24",
"1X c #9FA29E",
"2X c #747E7F",
"3X c #D1C0D0",
"4X c #D8B27B",
"5X c #1F5175",
"6X c #85A2BA",
"7X c #9CB2C4",
"8X c #B7B1A7",
"9X c #689569",
"0X c #00162B",
"qX c #1E5F5A",
"wX c #02A108",
"eX c #75A068",
"rX c #FECA8F",
"tX c #2A5D2A",
"yX c #3D667D",
"uX c #E7CC8B",
"iX c #3A78A8",
"pX c #33842D",
"aX c #346734",
"sX c #415042",
"dX c #5D553A",
"fX c #F9F4DC",
"gX c #DBD3C1",
"hX c #857868",
"jX c #A29166",
"kX c #DAC38A",
"lX c #D3B67E",
"zX c #47B52B",
"xX c #5F923D",
"cX c #10BE11",
"vX c #428243",
"bX c #B5A692",
"nX c #D1BA9A",
"mX c #527D6E",
"MX c #5EA75E",
"NX c #125E93",
"BX c #97DD97",
"VX c #4A493D",
"CX c #33C934",
"ZX c #145D91",
"AX c #526335",
"SX c #FFFBAF",
"DX c #005E67",
"FX c #1A547A",
"GX c #6A95B4",
"HX c #3D5D3E",
"JX c #ECD4AB",
"KX c #DCCCAD",
"LX c #316830",
"PX c #58BAD2",
"IX c #00D200",
"UX c #D28D00",
/* pixels */
"8 2 2 v q %               # # Z l d.% # q q % : : : & 1 p 5 < o o @ 7 2 v & * q # # % % %   :   % % %         :         ",
"q & 8 d.4 #   % % # # % q P *.= tXJ.*.*.g g P & @ 5.0.) >.9.|.C.C.A.A.aXpX].p > & q : l *.% q % 4 8 2 > 8 d.4 q # # # % ",
"    % % %   % 4 v 2 &.2 q u.D 7.vXZ &.X Y ) D N M b.N.7.S.S.sXLX{ w.w.w.w.Y B B B B B ` x.>.wXd.d p 5 @ @ @ 5 - - - 7 1 ",
"%           % q & d 1 2 Y n <.m A.D t + + $ $ $ N +.N t a + $ $ $ $ $ $ $ $ $ n h._ N.N.x.T < @ 5 - - - 5 @ o , = 6 6 6 ",
"                P q P u.a s s t + $ $ $ $ + + + $ $ $ $ $ + $ $ $ $ $ t +.4.8.R <.4.x.B ; X O X X 6 = ; < @ @ @ < ; = 6 ",
"* 4 q # %   : % [ q % S h.C $ $ + + + + + $ $ $ + + + + $ $ a L C ' 8.R R s _ 9.0.5.< ; O O O O O O O O X 6 6 = , ; ; ; ",
"7 7 7 1 > & q # D t.w.+ $ $ $ + $ + $ $ $ a a a $ $ $ + a ' R m m m V <.C L +.9.) 0.B T = = O O O O O O X 6 6 = 6 6 X X ",
"5 @ < o o @ - & ) S S $ + + + + + $ a $X#.@.lXlX6.OXXX$ + 4.m E V V V E m V R <.' ' C |.A.Y = ; 6 O O O X = < - - - @ o ",
"< < < o o ; , 5 2.a $ + $ $ + + $ N Z.%.w I $.%.%.e.G.q.$ $ C m V E V s s s s C _ M h.b.N.b.9.` } X 6 X X X o 7 > 4 * v ",
"o @ - 1 2 2 &.p d.>.$ + +Xt $ + $ #X%.x $.$.@.q.OXG.w %.).$ $ s m E V s L t t N 9.) ` B B B Y Y I.< 7 5 @ @ - &.v %     ",
"1 1 &.v q %   # : R.S $ V.6.+ $ M kXe.G.jX+XN t M dXG.3 e.dX$ N R E -.E E R _ S ` o > # *.P l q 4 4 4 4 4 * 4 q #       ",
"# # # %         # Z 2.+ Z.SXq.$ 6.V.#X$Xq..XKXF.fXJXF 0 w uX+.$ C hX#.O.m V m E S.8.HXtX{ 5.o 4 %       :               ",
"2 8 & 4 # %       % l @ AX#X| Z.j c #.M.gXW W W W W ,.h u e.6.$ L @X#.kXXXt +.C 4.7.' C 9.) 5.#                         ",
"; ; < 5 - 1 > & 4 # q Z - W.nX3.I h fXo.' i W W W ~.,.h 0 3 3.XXn hX| +X$ $ $ N 0.` T 1 # Z Z                           ",
"7 @ ; = 6 = , < 5 p 2 d q &XU.gX,.x oXF.oXF.F.oX,.X.h 3 3 0 $.$X$ @XZ.L D.D.D.D.S 0.Y 2.[ 8 % %               % % %     ",
"d.8 2 7 5 o = X X 6 = o @ 5 y.,.u u h h h h h h h y 3 3 3 x $.q.$ jX[.GXB.B.iX Xm.DXwXl : :             % # d.> 2 2 d & ",
"- p 2 > d 2 p @ o = X X X 6 X k.3.I u u u u 0 0 0 0 u u u 0 %.).+ }.K K ZX/.n.}.:.^.eX!.q # %           % q 8 7 @ o o < ",
"= = = o @ 5 7 p 7 5 @ , 6 O ; >.OXuXH 3.3.w w w j j j j j z M.VX0X Xr r K K FXG.j j w @.>X1 2 8 d.4 # # q 4 4 d.2 7 5 o ",
"- @ ; 6 X X 6 , o o ; = X T 6 x.K.u.l.y.P.s.z.@.M.M.O.i.}.5X;.0XG  XK r r K yXc c 0 u H a.< @ @ 5 - 7 p 7 - p 2 > 8 d 2 ",
"d 2 1 - < , 6 O O l.a.V.V.k.j.pXT T T T } Q./ .XG G G m.r ;.J ~ r r r r r K ^ O.rXF 0 y p.;X>X1 1 - 5 @ o , = = ; < 5 7 ",
"< @ - 7 p - 5 u.W.Q X.w w w H @.a.g.l.l.j.| 0 $..XG J J ^ ~ G ~ r r r r ~ J J 5XO./ F 3 y X.F *X!.d.* 8 2 1 - 5 < ; , , ",
"= 6 6 = ; < o H.Q y u x z F z 0 H Q H H H 3 F 0 $.yX'.J ^ K G G r K ~ ^ G J J ;.qXg.z.z 3 u I H c y.2 4 q % q 4 & d 1 7 ",
"- 5 < ; = = O k.w u 3 0 x 0 z x c z y u u 0 X.w I 2X/.'.;.~ n.6XNX^ ^ ;.m.J ^ iXqX} g./ c 3 0 u I H a.@ 1 8 4 #     % # ",
"- 1 2 2 1 7 < 6.w u 0 0 x F z z c 0 I w w y c @.O.=.1.n.'.n.1.c.7X~ m.r /.B.1.`.mXO 2.#./ c I 3 u y F xX6 o 5 1 8 4 #   ",
"= ; < - 1 8 8 g.r.w 3 x x c x F X.w c 4X#.O.bX8X! f o.c.1.1.c.{.c.7XB.6XE.E.(  .{.v.O k./ c I 3 3 0 u r.H.O 6 = o 5 1 8 ",
"@ o ; o 5 2 4 4 &X| c rXQ Q Q z.P.).:.i. .U i f f . A ! {.(.f A (.7X`.`.(.U f U 9 :XW.u x 0 3 3 3 3 u w P.; ; 6 X X = < ",
"* 8 > > 8 4 #   : 4 !.<Xj.H.j.].9Xo.b e e f 9 . 9 k b U U b ! b f f 9 e e . 9 . 9 8X@./ / z y u y u u 3 | R.2 7 @ o o o ",
"                  : : : :   > :.e A f 9 9 . . . ! ( ( ( ....] ]  .f.U . 9 . . . . i b [.4X3 p.Q p.p.r.r.*Xq % q * v v v ",
"                        % l > i.A 9 9 . . . . . k  .( ] v.T.MXeX1X..! . . . . . . 9 e i [.| s.s.s.;Xy.zXq               ",
"                          % l L.1Xf 9 . . . . . . 9 f...v.  : # R.-X%X! e . f . . . 9 . i o.Q.d q q #   :             # ",
"                            % P L.o.e k . . . . . . . ! ..v.4 : : l > Y.] b b U U U 9 k 9 e 3XY.q :                   % ",
"                              % P Q.3XA k k 9 k k k . U ( ..9Xd.: % l 4 -X:X] f.b f e e e e f U.[ P %                   ",
"v * q # %   :                   : & Y.] _.A f A A A e b f.b :.2 l   % : : T.%XU.,X=.o. .( =.-.b.{ g 4 #                 ",
"< @ - 1 2 v 4 q # % % # # # %   % : 4 T.:.,X( =.i.^.^.2X-.7.aX*.#       % q 2 >.n + a M M s E s +.t.g P #               ",
"X X X = ; < @ - p 2 2 2 1 1 2 8 d.% g [ C 8.-.s + $ $ $ $ $ C.cX  % % % % d.d 8 K.n a + $ M -.-.' sX{ [ *.#             ",
"O O O O O X X 6 6 , ; , = = = o @ 2.` s S.V ' $ t t t t t a n { *.* & v 8 & & d t.|.+ t a t M 4.<._ n M J.P %           ",
"O O O O O O O O O O O X O O X } 9.n a t t $ + a + a a a n t S { P q 4 d.8 8 > 8 t.L + a + a a a $ + a + L L.% %         ",
"O O O O O O O O O X 6 = ; ; o } M + + + a n n N S =XK.Y } [ 4 P %     % # q 4 * * I.=XS N $ $ $ + + $ $ h.].4 # % % % % ",
"X O O O O O O O O O 6 ; @ p 1 2 I.D D D ) ` 5.= 5 2 8 d.v 8 > 8 * #             % *.P v <X=.R _ L L _ C.J.  # % 4 v 8 8 ",
"O O O O O O O O O O X 6 o 7 d 4 l : q 4 q q q 4 4 * * 4 * d.v v * q %             # % % CX~.~._.e e _.BXZ       4 & > 1 "
};
