/* XPM */
static char *f8a0d6d177ee4b2693809870e7e5b610QvSvmxv3B6tn8izu[] = {
/* columns rows colors chars-per-pixel */
"38 40 160 2 ",
"   c None",
".  c #040404",
"X  c #0B0B0B",
"o  c #100F0E",
"O  c #13110E",
"+  c #0F1010",
"@  c #131313",
"#  c #181511",
"$  c #181817",
"%  c #171718",
"&  c #171819",
"*  c #1C1C1C",
"=  c #2E291F",
"-  c #232323",
";  c #2C2C2C",
":  c #2E2B21",
">  c #39362D",
",  c #2E2F30",
"<  c #2F3030",
"1  c #323233",
"2  c #373839",
"3  c #3B3C3C",
"4  c #433C2E",
"5  c #423E35",
"6  c #4E4736",
"7  c #554F3F",
"8  c #5A503C",
"9  c #162E4A",
"0  c #1B3857",
"q  c #173F6E",
"w  c #3F4041",
"e  c #3B474D",
"r  c #1B416C",
"t  c #174071",
"y  c #1B4574",
"u  c #1B4778",
"i  c #1F4B7D",
"p  c #344E69",
"a  c #284A70",
"s  c #3E5972",
"d  c #444545",
"f  c #474748",
"g  c #474849",
"h  c #4C4D4D",
"j  c #4F5051",
"k  c #535455",
"l  c #575858",
"z  c #5A5A5A",
"x  c #665E46",
"c  c #6B6047",
"v  c #7A6E54",
"b  c #776C51",
"n  c #5E5F60",
"m  c #505F6B",
"M  c #596979",
"N  c #6B6A67",
"B  c #756E61",
"V  c #787977",
"C  c #8D7E5D",
"Z  c #897D60",
"A  c #978764",
"S  c #8B8772",
"D  c #A38C6A",
"F  c #A6936D",
"G  c #A99675",
"H  c #B59F76",
"J  c #B9A479",
"K  c #1E5088",
"L  c #234F80",
"P  c #215084",
"I  c #21528A",
"U  c #3A5F89",
"Y  c #36618F",
"T  c #416284",
"R  c #596E80",
"E  c #536A83",
"W  c #5C7284",
"Q  c #547394",
"!  c #53759A",
"~  c #607788",
"^  c #677A8B",
"/  c #707E87",
"(  c #5A7DA3",
")  c #5D80A5",
"_  c #7B90A6",
"`  c #888786",
"'  c #888888",
"]  c #90908F",
"[  c #87909A",
"{  c #9B9A9A",
"}  c #A19A90",
"|  c #A9A18D",
" . c #B0A086",
".. c #BAA587",
"X. c #B1A489",
"o. c #B8AC97",
"O. c #BFB39C",
"+. c #8398AD",
"@. c #98A2AA",
"#. c #99A7B6",
"$. c #9AA9B9",
"%. c #A3A3A2",
"&. c #A8A8A7",
"*. c #ABABAB",
"=. c #B7B1A8",
"-. c #A9B2BB",
";. c #A7B2BE",
":. c #B5B4B4",
">. c #B8B7B5",
",. c #BCBAB7",
"<. c #BCBBBB",
"1. c #C9AE80",
"2. c #C0A681",
"3. c #CDB286",
"4. c #D2B486",
"5. c #DBBB8C",
"6. c #D4B78B",
"7. c #C2AF93",
"8. c #C2B79F",
"9. c #CFBB9C",
"0. c #CAB390",
"q. c #D8BD91",
"w. c #E2BF8E",
"e. c #C7B8A1",
"r. c #DBC08D",
"t. c #DAC093",
"y. c #E2C28F",
"u. c #E4C392",
"i. c #EAC692",
"p. c #E7C896",
"a. c #EDC994",
"s. c #E5C69A",
"d. c #F2CD96",
"f. c #F4CF98",
"g. c #F6D099",
"h. c #F9D39A",
"j. c #FED89F",
"k. c #DFC7A2",
"l. c #C2C0BD",
"z. c #DDCEB8",
"x. c #DDD0BF",
"c. c #E5CBA5",
"v. c #EED5AB",
"b. c #F9D7A4",
"n. c #F9DDB0",
"m. c #F9E0BC",
"M. c #BFC2C5",
"N. c #C4C3C3",
"B. c #CCCCCC",
"V. c #C5C7C9",
"C. c #D0CFCF",
"Z. c #D1D1D1",
"A. c #DEDDDA",
"S. c #E7E1D1",
"D. c #FBEAD2",
"F. c #EEEDEB",
"G. c #F1EEEB",
"H. c #FFF9F1",
"J. c white",
"K. c #F4F5F7",
/* pixels */
"                                                                            ",
"                                                                            ",
"                                                                            ",
"                                                                            ",
"                                      f 3 2 ; *                             ",
"                            ; -   X $ * - ; 3 1 % X @   f -                 ",
"                              2 2 * X . . . . . . . . X 3 ;                 ",
"                                1 f w - @ . . . . . . . X ; -               ",
"                                  - 3 l k < X . . . . . . o @               ",
"                              ; 1 g j z n j + = b C 6 . . . X $             ",
"                            ; ; ; w h l z < = 1.j.j.u.4 . . . X             ",
"                              % $ * ; l l $ A p.F r.j.C . # O X             ",
"                                  < l N 6 : r.J > 7 3.J # b >               ",
"                            < f j k B G ; c g.v.S.e.Z F x J 6               ",
"                            - 1 < & 4 G , G h.D.J.F.O.p.r.A                 ",
"                                + . + v 6 4.h.m.H.A.=.n.k.o.                ",
"                                9 0 p S 6 y.h.h.h.m.m.h.c.                  ",
"                                T ( ( W h u.h.h.g.g.h.h.p.                  ",
"                              5.t.W K L e 5.h.h.h.h.h.a.D                   ",
"                              f.g./ K I 0 m | q.i.i.p.0.                    ",
"                            u.g.p.R K K i r L p V 9.G.K.  3.q.              ",
"                          u.h.d. .a i K P y y q X.s.x.z.u.d.f.u.            ",
"                        w.g.g.w.M q q L L y q s s.g.d.a.d.d.f.d.            ",
"                        f.g.a.4.E U u y ! Q y ^ p.h.h.d.a.d.g.g.6.          ",
"                      5.h.g.w.  [ $.( Y +.+.Q @.7.u.h.h.a.d.d.d.6.          ",
"                      a.h.g.a...:.M.;.$.-.-.$.N.N.=...5.d.d.d.a.            ",
"                      d.h.h.f.q.<.Z.C.N.V.B.V.Z.Z.Z.<.} 2.5.5.              ",
"                      a.f.g.w.e.B.Z.Z.C.l.<.<.l.B.Z.Z.V.{                   ",
"                      5.u.s.9.B.Z.Z.Z.N.*.&.&.>.B.Z.Z.Z.*.                  ",
"                            e.Z.Z.Z.B.&.    { N.Z.Z.Z.V.%.                  ",
"                          *.C.Z.C.B.>.      *.B.Z.Z.Z.<.                    ",
"                          *.Z.Z.V.:.{     { l.Z.Z.Z.C.&.                    ",
"                          z { { ` ]       { <.V.Z.C.<.                      ",
"                        1 h ; @ %         3 k N ` ] V                       ",
"                      < f h @ X           % X . - k f                       ",
"                      @ * * X o           @ X X X ; ; *                     ",
"                      X X X X +             % @ o X X X                     ",
"                      @ o + %                     % X @                     ",
"                                                                            ",
"                                                                            "
};
