/* XPM */
static char *result[] = {
/* columns rows colors chars-per-pixel */
"60 40 90 1 ",
"  c #489D2D",
". c #429229",
"X c #408D27",
"o c #439429",
"O c #479C2C",
"+ c #439329",
"@ c #3E8925",
"# c #3F8B26",
"$ c #489E2D",
"% c #4EAA31",
"& c #52B234",
"* c #53B535",
"= c #53B635",
"- c #53B435",
"; c #50AF33",
": c #4CA730",
"> c #479B2C",
", c #469A2C",
"< c #45972B",
"1 c #4FAC32",
"2 c #4BA52F",
"3 c #4DA830",
"4 c #52B434",
"5 c #419028",
"6 c #45982B",
"7 c #51B033",
"8 c #52B334",
"9 c #4BA42F",
"0 c #489F2D",
"q c #4EAB31",
"w c #51B134",
"e c #429128",
"r c #3D8825",
"t c #3F8C26",
"y c #4DA931",
"u c #50AE33",
"i c #4FAD32",
"p c #44952A",
"a c #3D8725",
"s c #4DA730",
"d c #4AA22E",
"f c #51B133",
"g c #4CA630",
"h c #408E27",
"j c #44972A",
"k c #4BA32F",
"l c #45992B",
"z c #469A2B",
"x c #49A12E",
"c c #429329",
"v c #3E8A26",
"b c #4AA12E",
"n c #49A02E",
"m c #419128",
"M c #3F8C27",
"N c #418F28",
"B c #50AE32",
"V c #45972A",
"C c #3E8B26",
"Z c #499F2D",
"A c #3E8926",
"S c #49A02D",
"D c #51B234",
"F c #479D2C",
"G c #44962A",
"H c #43952A",
"J c #408F27",
"K c #3F8D27",
"L c #3D8925",
"P c #429228",
"I c #469B2C",
"U c #439529",
"Y c #46992B",
"T c #4CA52F",
"R c #51AF33",
"E c #4EA931",
"W c #4EAB32",
"Q c #43942A",
"! c #4FAB31",
"~ c #53B434",
"^ c #4DA831",
"/ c #489D2C",
"( c #4AA32F",
") c #4AA32E",
"_ c #4FAB32",
"` c #50B033",
"' c #52B435",
"] c #4CA62F",
"[ c #408F28",
"{ c white",
/* pixels */
" .XoO+@#+$%&*******=****=-;:>,><1**********&234******-4-****",
"56:789037-*******&q:&=*w3Oe#rt638**********7y8**************",
"u8**********8i9 $p5>;q0+#ra#6s&******-;3d1******************",
"**********fg6h@r#pdd6Xrar#j38*****&ikl+zgw******************",
"********;xcvrrv.,>evrrr@5$1****81bpXv5d&********************",
"******;nm@rrrv.+Mrrrrr@N5h.1-BkVXrCpk;-*****-w8***wy:8***&B:",
"***8iZe@rrrrrA@rCtrrrrr@rr5SzN@a#6:D******8y F17sFGGkf;:$Hhv",
"*726hAC@rrrrr@5OxJrrrrrrrrM#ratl38******-i,NpO>GVOd2SjehMraA",
"xcvrNO+rrrrKGd;-b@aLrrrrtP5vv6y8*****4f73cvNp+c0Zlc5+IOUMMY2",
"@aXOifprve0q&***T+GZmtoFnGth>si**-&fRR78;kg%Z5X.GO91D1cLCx4*",
"vVE-*-3n:7******-&8-1WRb5rCQV 3Bi1if8****==&dd3i&*=*=EG>9&**",
"T&*******************=fjrrX638;178***********=*******-8-****",
"**********************8$5IE8****************7sZE************",
"***********************;u-***************&yFe#oW************",
"***************************************79G#rhZ7=*********-7E",
"**************f338***************;9q-BnPva#,!~fi&******w^OeX",
"************;x.Ml7*****-*****-f%SoO:/NLaL.g;:O.o1***&%0c#@A#",
"**********-g.@XSw-**7:$x&**&^IettG6hrrrt,TS+vL+3--;9jMLAAA5$",
"******wi88dMLG%73Fx$+5Yy-f9H#raLMtrrrrr5jhraK$7&% 5@L#MCh i8",
"*71&BxYx&yMt$!d+vLN6(1~&TovrrrrrrrrrrrrrraAU3;9Gtrv5.XhIE1dj",
"0ooYQ>%8*i$:f>AMGdi~-7:Gvrrrrrrrrrrrrrrrrh g e@rKG6.CCF)6hrr",
"r@5Oq4*****;ZGZ_8=-%,5#rrrrrrrrrrrrrrrrrN>GXrL5IZVtrrL#@av. ",
"e$1-*******qyf*=*;$Xrarrrrrv+Y#rrrLrrrrrvvrCobT,Xrrrrr#.O3f*",
"R**************8g.Lav+Xar#p97fdYJNhArrrrrhz31ZNrLX#CeO3f-***",
"**************i,#aL.97$5<:&****4:ovrrrvcS1fk.LAcb1yy7-****-&",
"************825rrNZ;**8`8*******EcVS6Igf*=1m#G27**====*8B9 O",
"***********8(H5N i-*************-f8*8-****'1%&******f30GNe 2",
"***********817;B-***************************=******8Zmhrh6G.",
"***********-7&**************************************;(mX.lxq",
"********&i],5Z4**************************************%I6d&==",
"*'uB*-idGXAAp!************************************wyFeCCF8w%",
"2z5OgIhLrr#$f**********************************8qZ+#rr5n:Z+t",
"vrL[#rrrr#Y3&*********-*********************-;TVMrarMV/6Krrr",
"rrravArrrCttb-******89O:b:-************-**&y>5vrrrLhcevrrrrL",
"rrM<>trrrrrrO4*****wOCv#N:**********-B99qxUtrrrrrrACLrrrrrCM",
"[I%iorrr@LrrZ*****=gNo.h2wq%8*****&y,NAXXLrrrrrrrrrrrrrrrrAL",
"B-=;GCA+kx5rd****f1B1b5$3gEw****f]p#rrrrrrrrrrrrrrrrrrrrrrrr",
"****wyg;=7PC:=***sd8_.63u8****;(+vaar@hNvrrrrrrrrrrrrrrarCLr",
"*********i[[i8q%~--*7q&*****fgddzjJNVkEorrrrrrrrrrrrrLXHn3Hr",
"*********;o>fkdB************fi8*-&1B8*dCrrrrrrrrrthto0q&**dC"
};
