/* XPM */
static char *result[] = {
/* columns rows colors chars-per-pixel */
"60 40 67 1 ",
"  c #110C07",
". c #150E09",
"X c #16100B",
"o c #1C130C",
"O c #1F1711",
"+ c #22160D",
"@ c #26180E",
"# c #2C1B0F",
"$ c #301C0F",
"% c #211710",
"& c #241A14",
"* c #2C1C12",
"= c #281E18",
"- c #321E11",
"; c #2F2016",
": c #362112",
"> c #3C2413",
", c #302219",
"< c #3A2618",
"1 c #3D281B",
"2 c #422614",
"3 c #442816",
"4 c #4B2B16",
"5 c #452B19",
"6 c #4B2D19",
"7 c #512E17",
"8 c #522F18",
"9 c #4E311B",
"0 c #553017",
"q c #55321A",
"w c #5C341A",
"e c #5D381F",
"r c #61361A",
"t c #66391B",
"y c #6A3B1C",
"u c #5D3A21",
"i c #643D22",
"p c #6A3E21",
"a c #703F20",
"s c #70401F",
"d c #674023",
"f c #6D4224",
"g c #744322",
"h c #794724",
"j c #764826",
"k c #7D4926",
"l c #744728",
"z c #764A29",
"x c #7B4C2A",
"c c #824E2A",
"v c #85512C",
"b c #8B542E",
"n c #8E592E",
"m c #90572F",
"M c #8D5730",
"N c #8E5931",
"B c #905730",
"V c #945A32",
"C c #995E34",
"Z c #966133",
"A c #9C6336",
"S c #9E6938",
"D c #A06637",
"F c #A06738",
"G c #A46B39",
"H c #A86F3B",
"J c #AB723D",
/* pixels */
"JJJJJAVVVVVp>:4rtytttyytr3@#4q>.O-**rtcGJHnhggchhgyw7>24eytt",
"AAAAAVVVVVbytq>>:3www04>@:ecAZf+ic1patyVHHCVCmmVVCgtga3@>7rt",
"VVbkhhhhhgyttr7-;42>>:>4pmGJGV51Vj5VbhycCCVVCmVVmbaaxq$0r732",
"Vcatttttttr4>:3lZGSAZAAFGGAAZt:vCf2VVVVVVVVVmmchat07:4gbZSZc",
"kattttttt4#30jAJJJGCCACCVVNVl5xAAx-pcVVVVVVVcytt8>>4fVAHJJJJ",
"ttttttttt-3tycZZZVVVVVVVVVVu5vGJHV-4thMVCVVbatt4@qtthVFGGDAn",
"rttttttyr@@wytyshbmVnmcclyqubGJJHCi-ttykcchayw-o@4qttgkhjsyy",
"$>34478w4o+5tytttysgyyyt4*qbAJJJGVM42ttttttr2-4icVxqrttttr07",
"rw07433333%*20rtttttttr2$wthVCDGAVCc-4wtttw-5xVCFHHl>>3069iz",
"aaysghhcky#%:4q4qttttw#>rttthnVVbbbcg842>55-6846fNSz4-6xMAJJ",
"GGGGGHHHFf-4fnAzw38w0#+>0ttttyhgayytttt-5tttttww745>qjAHJJJJ",
"GFAADCCMd7raAJJGVxfffjxf927tttttttttttt4-8ttttttttrthDJHJGSA",
"VVVVVvi>5ttcJJJSVCCVVVVVVd##0tytttttttr6%::6wrtrw80wfnCVVkyy",
"nbnni>2w434exvfeudlzd959322>-4wq88w66649xSvq3:>35w4>tknchyyt",
"yt8>2wpytr83;;+#304654rytryyr07468q53vVHJHCMytgbVf6<zVhttytt",
"3>-wgcmbkayw=;+:yvVCZAGGVjtyyyggkvVx5vCGHAVMhcVVVk4&xVckgttt",
"qpvCAFGCVbu2ivi>gCJJJJJJDmccnmVVVVVVq-zVVBBVVVVVmce%xVCCbptt",
"VAJJJJFCBi-pVVl>yVGJJJJJDVCCFHGFFGDVM<2gpyhVVVbhgr-qVGHFBvcj",
"VAJJHCVVi-rybVj>thVAHHJHGAGJJJJJJJHCVu-tytpchate4@5nGJJJAVVV",
"lCGGCVMq-rttcVV58tkVCFGCCHHJJJJJJJHCVc*3tttttw846-tnFJJJDVBV",
":ivVMf5%-yytaVVg-wthnVCVVVVCAAFGGGCVVk@%7re824pMi8tcVCCCCVVb",
"q2**:2w2-yttamVVe-ttaghhgsaaaggccMbBVu%=+>59fVCVu4tyyhhgaaaa",
"ht2 8kbl#rytabVVVq:rtttttttttttttytacf*=+lCHJHAVc4wttttttt03",
"np3qAHHC83ytacbbch5*wtttttttttttttttth8X8BGJJFVVb8>tttttw-o&",
"c8iGJJJHc*2etyytttt3#4ttttttttttttttty48VVCDAVVctw$tytr2-6<&",
"6zHJJJHAV,&-rttttttt7+*4tytttttytyytty4iCVVVVVvgtw--3-@3cCi5",
"MHJJJACVV5&1-4wtttt4>+OO#2wrrrtrrrrrw0-uhhggypytttr44-3MCVw4",
"VFHFCbjkB1&***$-242ecci<%oo>>2>:2----+.wytttttttttt23iVAGAu>",
"VVVbjytyg-2wrtwwwthbCVVnf*uxytrrrtrttw*2wttttttttw:5cDHJJFp:",
"bbhttttw>4ttttacbVVDHACCVu5Mvkgyyttytphp44wttttt0#<VHJJJGCv-",
"tttttt4$7attttcCVCGJJHHGCMq6NVCAbbbccMVVVz82ww0460>vFHJJHCVi",
"ww3>>#>wbbytttcVCHJJJJJGVVN6vAHJGDCVVBVVVVV>&6dcVN>8gMCDHHFV",
"28q*&&whVVgtttgVCHJJJJJAVVVrMHHJJJFVhpacmVVuuBCDCg3ttcVAHJJG",
"vVCz#*tcVVgtttamCCDDHJJCVVV8jmVCAGCcttytycM6lVVVV68agVVDHJJJ",
"VVVV5>ybVVgtttybmVmCVCAVVVV8ryhbVVcttyttttw8vbcgp>ryycVVCDGH",
"cMVVf:8hccyttttgbmCCVmVVVVB5$ryahgytttttr43chtttr-wtttyahccM",
"tMVVVk6-7yttttttyscchakbVVM:X-wyytttttr4*-thhttyt@-tttttttty",
"gVVVVVVf2-rtyytyttyyytytpl43w4--8rrw8>==X4tttttw-O*3tttttttt",
"ackhhhhht$+>448wrrrr0w3:>4wtttt83>2>o&*63-wrw3--.1a-2wrttttt",
"ttttw4>#$:>7834>+$--224wtttttttttttr+XiBVi>>>4wy46Vh72-2wttt"
};
