/* XPM */
static char *_ddf80eaf5354548acaa5dc81295b018sNk2B6Jztqhjp1xL[] = {
/* columns rows colors chars-per-pixel */
"60 40 69 1 ",
"  c #74757E",
". c #7B7D87",
"X c #7B7E88",
"o c #7E808A",
"O c #82848E",
"+ c #848691",
"@ c #868993",
"# c #898B95",
"$ c #8C8E99",
"% c #8E909B",
"& c #91939D",
"* c #9496A1",
"= c #9699A3",
"- c #999CA6",
"; c #9C9EA9",
": c #9EA0AB",
"> c #A1A4AE",
", c #A4A6B1",
"< c #A6A9B3",
"1 c #AAACB6",
"2 c #ACAEB9",
"3 c #AEB0BB",
"4 c #B0B3BD",
"5 c #B2B4BE",
"6 c #B2B5C0",
"7 c #B4B6C0",
"8 c #B5B7C2",
"9 c #B6B8C3",
"0 c #B7B9C4",
"q c #B8BAC3",
"w c #B8BBC3",
"e c #B8BAC6",
"r c #BBBDC6",
"t c #BCBFC7",
"y c #BABCC8",
"u c #BBBDC8",
"i c #BBBEC9",
"p c #BDBFCA",
"a c #BEC0C8",
"s c #BEC0C9",
"d c #BEC0CB",
"f c #BFC0CC",
"g c #BEC1CC",
"h c #BFC1CC",
"j c #C0C2CA",
"k c #C1C3CC",
"l c #C0C2CD",
"z c #C2C4CD",
"x c #C3C5CD",
"c c #C3C6D0",
"v c #C4C6D0",
"b c #C4C7D0",
"n c #C4C7D1",
"m c #C6C8D0",
"M c #C6C8D2",
"N c #C7C9D3",
"B c #C9CBD3",
"V c #C9CBD4",
"C c #CACCD4",
"Z c #CACCD5",
"A c #CBCDD5",
"S c #CBCDD6",
"D c #CCCED7",
"F c #CDCFD7",
"G c #CDCFD8",
"H c #CFD0D8",
"J c #CFD1D8",
"K c #CFD1D9",
"L c #D0D2DA",
/* pixels */
"5kzkkkkkkBBVVGFBk4;@OO#>qBFFLLFFFFLLFFLFFFLFLFFFLFFLFFFLF>OO",
"tKFKKFFKFFGLFLFLLFM>O+4FFFLFFFFLLFFFFLFFLFLFFFLFLFFLFLFFF1O#",
"qKKFKFKFLFFFLFFFFHF>OOqLHFHFFFFLLFFFFFLLFLFFFLFLFFFFLFLFB=O=",
"qKFKFKFKFLFLFLFLLFB&OO2LFHFLLLFFFFLLLFFFFFFLFLFFFLLFFFLFx&O;",
"qKKFKFKFLFFFGFLGFLx&OO>FLFFFFFFLLFFFGGGLLFFLFFLFFFFLFFLF5@O;",
"qKFKFKFKFLFLFLFGFLj$OO;FFFLLFLFFFFLFLLGGLFFLFLFFLLGGLFFF>OO:",
"wKKFKFKFFFLFLFLGFLt@OO=BFLFFLFLFFLFLGGGHFFFFFFLLFFGHHHLz&OO;",
"wKFKFKFKFLFFFLLGFLq+OO&BLFLFFFLFFLFFFLHGFLLFLFFFLFZBBnn4+OO;",
"wKKFLGLLGLLGGGGGBn7#OO%pCCVGCSSGHGGFFHGHGGGFFGFxxkkpppu=OOO-",
"wKFKGGVVVnxncVkkpg7#OO$qjjpkkkpcnxnBVxnnnxnnkkfppkppkf,+OOO=",
"7VMMkkgkpppgpppfpk2+OO@17erpiepippppppkpffpppfpppppp5>@OOOO#",
"2gsspgppkpkppkkpp6&OOOO+#%%&*===-;;;,,2642,,>,>>;;**$OOOOOOO",
"1ir0igpipip0762<;#+OOOOOOXOO+OOOOOOOO++@#++OOOOOOOOOOOOOOOOO",
"+%%$&==**$$##@+O+OOOOOOOOOOOOOOOOOOOOOOOOOO+OOO++++@#@$$&&==",
" OOOOO+O++++O+O##$$$$$#@++++OOX+OOOOOOOO+*>744147eetjjxxnBZV",
"=22355554444464ejnnkxkjppe42,-$+OOOOOOO#1nGGLLLLGLLLLFLLLFFL",
"qLKKKKKKLLLLLLLLGLGLLLLLLFLLFFk5&OOOOOO>BLFLFGLLLFFFGFGLFLLF",
"qLFKFKGKFFFFFFFFGLGFFFFFLFFLFFLL1OOOOO$tLFLFLGFFFFLLLLGGFFFG",
"qLKFKFKGFFFLFLLFLFLFFLGLFFFFGFGL1OOOOO>FFKFKLGGHFLFFFFLGLFGL",
"qKFKFKGLFLFLFFGGFFLFFLGGFLLFFLFF,O+OOO2LKFKFGGLGFFLFFLGGLFGL",
"qLGGGGLGFGLFGGLLFLGGGGLFGGGSVBBj;OOOO+5FFKFGHGGGLFFGGGGGFGLF",
"7CCCVVVVBBxBnBnxknVVVVnnckckkpk2#OOOO+1xxznnxnnVnBMBVVVVBVBB",
"2pgkpkkppjkpppjjkpkkppjpppppkp2#OOOOOO=5pkgkkppppppfpppkpkpp",
"2ppppppppeeeee054770eee007774>#OOO+OOOO$;>,,2pppppjppnppkkpp",
"#*******&&$$$$#@++##$$&$@@+#++OOOOOOOOOOOOOO+&=&-->>>,<,,,>>",
"XOOo+oo+OOOOOOOOOOOOOOOOO+OO+OOOOOOOOOO$##@@OOOOOOOOOOOO+++O",
".OoOOO+#@#$$$&&&&&$$@##@@#+OOOO$>145515jjfjqq544552<,>;;,6e7",
".+;1240rtfjkxFBxBxmxxjttpe>+OO+1FLHFLLFLLFLLLLLLGLLFFGFFGLLL",
"X-nKLKKKLFLLLLLFFHLGLLLLHLM=OO#0HFLLFLLFFFLFFLFFFLLFGFLFHGLL",
"X,LFKKKFLFFFFFFFGLLFFFFFFFH1OO$kLFFFFFFFLFLFFLFLFFFFLFLFGGGG",
".,FKFKFKLFFFFLFLFLFFFLFLHGF2+O&nFHLFLFFLFLFFFFLFLFFLFLFFGGGG",
".:FFKFKFFFLLFFFLFFFLFLFFFLLf$O&VLFFFLFFLFFFLLFFFLFFLFFFLGGDV",
"o;ZFGLGLLGLGHFGGGLGGLGGLGGLp$O&pGGLHFLGGFFVVVVVVVVVVVVVncccp",
"O=ZFGHLVLGGGGLFLHGGGLVSSSVM0@O&0kknnnVnkkknpfkpppnppkppppppp",
"O#9zkMVVnnBMnnxnnncnkkkpkgp7@O&0pkkpjpeeeeppppnpkpkpppcnpckp",
"OO;9ppkkkfpkkpgppfpkkppkppp1+O+-22221;&$$**;;,<2222127221222",
"OO@%&=:>11,1,,,22333242422;#OOOO+#++OOOOXOO++O+O++++++#+@@++",
"OOOOOOOOX+X+OO++#+@+++++@+O++OO+O+OOOOOO+OOX++OOOOOO+OOO++OO",
"OOOOOOOO+XOOOOOOX+++++++++O+++O+O+OOOOOOOOO+OOOOO+OOOO+OO+O+",
"OOOOOOOO++O++*;,2222272221,,21,,;;;;>,>,;$+OOOOOOOO+##$#@#++"
};
