/* XPM */
static char *aec3d2ecfce54cac9d5189bbd5383d7ddBVXBvVttsg6kl0V[] = {
/* columns rows colors chars-per-pixel */
"60 40 89 1 ",
"  c #131416",
". c #17181C",
"X c #191A1E",
"o c #1E1E22",
"O c #1F2023",
"+ c #222225",
"@ c #2C2D35",
"# c #34363D",
"$ c #393A40",
"% c #414247",
"& c #42434B",
"* c #47494F",
"= c #444650",
"- c #464853",
"; c #4A4C56",
": c #4D4F58",
"> c #4F5158",
", c #53545C",
"< c #56585F",
"1 c #545761",
"2 c #575962",
"3 c #5B5D66",
"4 c #5C5E6A",
"5 c #5E616D",
"6 c #5F6272",
"7 c #61636D",
"8 c #626575",
"9 c #666876",
"0 c #6A6C74",
"q c #666979",
"w c #6A6D7C",
"e c #6E7077",
"r c #6D707E",
"t c #73757F",
"y c #6F7281",
"u c #727583",
"i c #767987",
"p c #797B87",
"a c #777A88",
"s c #7A7D8B",
"d c #7E818E",
"f c #7F8290",
"g c #81838E",
"h c #808390",
"j c #818391",
"k c #818492",
"l c #838593",
"z c #848690",
"x c #848793",
"c c #848795",
"v c #858892",
"b c #858894",
"n c #858896",
"m c #868996",
"M c #888B97",
"N c #898C96",
"B c #888B98",
"V c #898B98",
"C c #898C98",
"Z c #898C99",
"A c #8A8D9A",
"S c #8B8E9B",
"D c #8C8F9B",
"F c #8C8F9C",
"G c #8D909B",
"H c #8D909C",
"J c #8E909D",
"K c #8F929E",
"L c #90939E",
"P c #91949F",
"I c #9395A0",
"U c #9295A1",
"Y c #9396A1",
"T c #9396A2",
"R c #9497A2",
"E c #9598A2",
"W c #9598A3",
"Q c #9698A3",
"! c #979AA4",
"~ c #979AA5",
"^ c #989AA5",
"/ c #989BA6",
"( c #999BA6",
") c #9A9DA7",
"_ c #9B9DA8",
"` c #9C9EA8",
"' c #9C9EA9",
"] c #9C9FA9",
"[ c #9EA0AA",
/* pixels */
"kssssffcPQGsuaddddkG/Qvuwysdsasisuur8qdzdaapdxdyuuauuudvNvwX",
"sssdfBJJkiuidffhmJQGsuusdkddsdddsyrukNvddfMMmfdddddkGKPNkd0X",
"sdkAJAaryaffdfAJKfuuskkddddsddiyyscBkdddsdddddddxMGGNkdiupu+",
"mJJfrqyskfkkAGviyikmkfdddddsuyidMcfaauuassddddxAGAfdduudGPg+",
"Aaq9yskkkmAmsyikNvfddddddsuusvmkdayrraaddddfMGAxddiuavPPNkuo",
"99ydmmvmMduydMmkdddkkfdauakmmksiy8yadddddfAAmfduuudKPGcgkmuO",
"admAMmfiyaxAvdddkmkdsiadmNkfsywwydddddfGGMfdauysAPJMkkkkgdt+",
"AJMksrudNAkdddkmmdsidvAmfdiyqwusddddmBBMddayixKRAkgkkkddmPv+",
"AdurikAmfddkmNmdsskAAcfsuwwyisddffMGMffayuaHQJMfkkkkdkGRKk9.",
"rrsmBkdddkAAkdsdmJAkdauwusdddddmBGcfduyuxURGffcvkddMKKmu9w0O",
"kNmkhhhcDDkdsmJJmksiyusdddddkmAAmdayydJQJMfkmffdvAPGsw8umRk+",
"kkmmmmMmkskAYJmdsuuafkfdddkAAmdsuyucRRGffxmxffMJJdu9wdGRJmt+",
"GANcfdsdmLYAkdpuidmkdddfvAAmdiuydGQRMffMMfdfGKAuq9umYPAkkmp+",
"mdaiakGQPAksiiskmkdddkNAmksuyixQ~KcfcMMfdMHKdr8rdJQJvkvAGMt+",
"yysmY~PmdsiifAMkdddvAAmfsuysJ~QNffcGcdfMJBi9quMRRMkkmGAkdmd+",
"dG~/LmdaismAmhddfmAAkdiyukY~YmffMBfdfGGdr6rdKQJcgmAGmkkAQ_d+",
"[~GxdiidAJmfddfBAmksuuiN//JkdddkffcGca89rcRRGfxcFDchML//Bi4X",
"GfdiicJJmdddfGKMksuudJ/QAkddddddmGfy6qdG~UMdfBHMhhDI/JdwwywX",
"iuaMKJmdddcGJmdiuukR/QAkdddddkMmaq6rxQRKffMGJMdMJ/Iliwuishto",
"dGRJMfffMJGxduyam~_Ymddddddkmku89uG~QMfcSHGffBQQBsyyishshhuo",
"RGxcfkGYAfdyydH//Pmddsdsdmmsr8wsR~YmfvGJBfkJ~KduyusssgxcBUh+",
"cMccHKAfsyudK[~Jkddddddmkiq8rkQQKvdcJGmdmURmayuashgcccAI//d+",
"cMGKGfuruk~_[Gxdddddkmfu98uN/QAkdAJMcdAYJduyidddhMMcFI/LNhwX",
"KRBfuyuM~[~Gfddfffkksr89sJ/QGkxGKJfmJYMayudadfcMcMFIIDxssgp+",
"MduruB[[~Kfddcffkfar6qdY/RAdmJJAkmJJfuyisddcAAmmJQLmdsshP/g+",
"rraJ_[~Bffccxfxfiq6rm~_RmkmGJmkNJNayuasdfmAAvBJYLhssdAQQAkto",
"sJ/[~Jffxvxffdu88uN~/RxfNKJmvNGdurisddxGJAcNYYAdsshUQIMsgms+",
"[[~GffmMmkkdy8qiJ//JmkAYJmcABsyyisdfMJGMxAPFmsssBI/FcslBAMto",
"~GcfBGcffdr6qaK[[JfxJRJxvAfiwyaddkAJJmmAJAksadD~QAlsxBmhspwo",
"fxGHMffdr68dR[!GfMJQJmxmsywusddmJYGxvAJNfaskY_Ymfdllhsiupgu+",
"HGMfcuq6qdR[RMdbJRJxcfiwwisddmKQGkmAJmsisM~/YmfshlssuislADiO",
"Mcfaq6yfR[RMdxKQJmkdyqyasfdARRAcmAAksudD//JksfffsuuismFBgdw+",
"fu86yc~[RcgmJQKmsswwwasfhAQQBhMFBssifU_/FcfshsayuicBFAhssMg+",
"86yB~[RcdcP/Pcsuw9yashhF//ShcMmsaihI_/AhhsssuyusBFScsasBIQs+",
"uM[[RmdMY/Pkiyq8iagsnL//Scmmcsuic/`IBhffsaywacFJBfishF/UAs9o",
"[[RcfcR/Pkiw8qysssmL//BccmhausB`/IMhffsuyysAJAfsaicI~Fcsyw4.",
"UMdNE~Pxuq6qysskML`/DcchhiiiF/_FcgsssiwuhLJxdaasDQ/FgiwruswX",
"fcR[RMiq68usffmQ`/DxhcsiysF`QDcsdsitwiMYDdiiahJ_IBsywwsdau7X",
"K~PNaq59ysghAY_/LckksiusU`/BlfshauaxLIMsuidmQ_Qmaywushswquu+",
"&%##@@@#%&%*,<,,;:::==200032344,27wu02:125euu04>;>344;&-401 "
};
